<mxfile host="Electron" modified="2024-05-27T02:16:09.160Z" agent="Mozilla/5.0 (X11; Linux x86_64) AppleWebKit/537.36 (KHTML, like Gecko) draw.io/24.4.8 Chrome/124.0.6367.207 Electron/30.0.6 Safari/537.36" etag="muG20NgXlTGQPSVzqCsQ" version="24.4.8" type="device">
  <diagram name="PÃ¡gina-1" id="KUW1BWG-cARgsiWjyLwE">
    <mxGraphModel dx="779" dy="482" grid="1" gridSize="10" guides="1" tooltips="1" connect="1" arrows="1" fold="1" page="1" pageScale="1" pageWidth="613" pageHeight="310" math="0" shadow="0">
      <root>
        <mxCell id="0" />
        <mxCell id="1" parent="0" />
        <mxCell id="D8GsEc0LYCsvKkbJvELL-2" value="" style="shape=image;imageAspect=0;verticalLabelPosition=bottom;verticalAlign=top;image=data:image/png,iVBORw0KGgoAAAANSUhEUgAABxoAAAOWCAYAAADY65dzAAAABHNCSVQICAgIfAhkiAAAABl0RVh0U29mdHdhcmUAZ25vbWUtc2NyZWVuc2hvdO8Dvz4AAAAmdEVYdENyZWF0aW9uIFRpbWUAZG9tIDI2IG1haSAyMDI0IDIyOjIyOjAwAaCF9QAAIABJREFUeJzs3XlUk3faP/53wo5sKrusirihUsEFtSC17trFttppO9axy2PbeToz3WY67bfT1m7HecZpp7Wbp7Wd2mpbS11AW7VqRUVFRB1QQAQEhLCHACGBLL8/+OUeYhJIIAvg+3UO50DyyZ0r9xKS+7qv6yPSarVaEBERERERERERERERERFZQOzoAIiIiIiIiIiIiIiIiIho8GGikYiIiIiIiIiIiIiIiIgsxkQjEREREREREREREREREVmMiUYiIiIiIiIiIiIiIiIishgTjURERERERERERERERERkMSYaiYiIiIiIiIiIiIiIiMhiTDQSERERERERERERERERkcWYaCQiIiIiIiIiIiIiIiIiizHRSEREREREREREREREREQWY6KRiIiIiIiIiIiIiIiIiCzGRCMRERERERERERERERERWYyJRiIiIiIiIiIiIiIiIiKyGBONRERERERERERERERERGQxJhqJiIiIiIiIiIiIiIiIyGJMNBIRERERERERERERERGRxZhoJCIiIiIiIiIiIiIiIiKLMdFIRERERERERERERERERBZjopGIiIiIiIiIiIiIiIiILMZEIxERERERERERERERERFZjIlGIiIiIiIiIiIiIiIiIrIYE41EREREREREREREREREZDEmGomIiIiIiIiIiIiIiIjIYkw0EhERERERERERERHRgNDZ2YmysjKD269fvw6lUmn/gIioR0w0EhERERERERERERGRQxUXF+PDDz/EnDlzEB0djTfffBMA0NTUhOXLlyMsLAyPPfaYg6MEfvnlF3z55ZeODoNowGCikYiIiIiIiIiIiIiI7CI3NxcrVqxASEgIEhMTkZ+fDwCIiYnBk08+ibS0NIhEIuzYsQNyuRzPPfccNm/ejLNnz+Ktt95yWNxHjx5FcnIybr/9dpw6dcphcRANNEw0EhERERERERERERGRze3ZswcLFixAYWEhJBIJcnJy8Oqrr+qNCQsLQ0JCAvLy8vDUU0/h1VdfRWRkJBISEhAWFmb3mDMzM3HbbbchNTUVmZmZdn9+ooGOiUYiIiIiIiIiIiIiIrKp0tJSrF27Fr/88gsuXLiAhQsXwsnJCbfeeqvB2MWLFwMA4uPjER4ebu9QBdnZ2aitrUV6ejo++OADh8VBNJA5OzoAIiIiIiIiIiIiIiIa2l5//XXMmTMHU6dOBQD8/PPPaG9vh4eHh8HYSZMmAQAqKyvtGuONpk+fjunTpwMA5syZ49BYiAYqVjQSEREREREREREREZHNVFdXY9u2bVi4cKHe7caSjLW1tfjxxx/h4eGBQ4cO2SvEXrm4uDg6BKIBiYlGIiIiIiIiIiIiIiKymbS0NKhUKkybNq3HcUqlEn/+85+xefNm3Hbbbbhw4QIkEgkAoKKiwh6hEpGFmGgkIiIiIiIiIiIiIiKb2b17NwAgNjbW4L6qqiocPHgQjY2NeP755/Hyyy/D398fy5cvh1arxfbt23H69GlhGUQ0sDDRSERERERERERERERENqHRaHDq1Cm4u7sjICDA4P4PPvgACxcuxNSpU/HEE09gzJgxAICVK1fC29sbzzzzDL766is89dRT9g6diMzg7OgAiIiIiIiIiIiIiIhoaCosLERLSwuio6ON3v/GG2/gwQcfRFRUFIYNGybcHhgYiGvXrqG2thbjxo2zV7hEZCEmGomIiIiIiIiIiIiIyCYKCwsBwGg1IwCIxWJMmjTJ6H3Dhw/H8OHDbRYbEfUfW6cSEREREREREREREZFNSCQSAGDCkGiIYqKRiIiIiIiIiIiIiIhsoqamBgDg6+vr4EiIyBaYaCQiIiIiIiIiIiIiIpvQVTR6e3s7OBIisgXO0WgBuVyOX3/91eh9CQkJCAwMtHNE5mlsbMTp06eN3pecnKw3wS4RERH1nUwmw4kTJwAACxYsgLMzP2oRERERERHRzU1X0cjz0ERDE89+WUClUqGiosLofaYmqx0IlEqlybg7OzvtHA0RDSbt7e3CDwC4uLhg2LBh8PT0hEgkcnB0RANPZ2en8D9Xo9E4OBoiIiIiIiIix6utrQUAeHp6OjgSIrKFAZdovHjxIi5dumSVZc2ePRsRERFWWRYNLIWFhcjNzTV5v7OzM+666y6HVJIolUpkZGSgo6PD6P0xMTFITEy0c1SWq62txeHDh80eP3bsWCQkJNgwooFLo9FALDbsRF1aWgo3NzeEhoY6IKq+q6ysRGlpKcrLy9HW1mZ0jLOzM/z9/REeHo5x48bxg6KVdD/uFi5ciBEjRjg4IiIiIiIiIiKi/mltbQXARCPRUDXgEo0KhQIymcwqy2K13tCVn5/f635SWlqKsWPH2imi/zpx4gTq6+tN3q9QKOwYTd+p1WqLjsXB8rqs7fTp08jPz4dIJMLIkSMxatQohISEoLq6Gjk5Obj11lsHTaKxtrYWp06dEvrm6zg5OcHDwwMajQYKhQIajQYqlQoSiQQSiQTu7u6YMGGCg6IeWrofd6yGI3Op1Wq0t7fDy8vL0aEQERERERERGZDL5QCYaCQaqgZcopGoN42NjT0m8nQKCgrsnmgsLS1FcXGxXZ/THubOnQtfX98ex9yMPdbLyspw4cIFuLq66iXedHx8fDBmzBgHRmi+y5cv48SJE0JyKzIyEqNHj0ZYWBg8PDz0xnZ2dkIqleL69esoLCzkRN5EDpSbm4sLFy4gLi5uUFTLExERERER0c1HNyXPjeeY6OajUCjw5Zdf4ty5c/jkk08cHQ5ZCRONNOgUFhaaNa66uhoymQw+Pj42jqiLQqHA8ePH7fJc9hYYGAh/f39HhzHg5OXlISYmBvPmzYNGo0FtbS1qa2tRV1eHYcOGYerUqXB1dXV0mL06f/48zpw5AwAYMWIEbr31VgQFBZkc7+LigoCAAAQEBCA+Pp6Vd0QOJJFITLbqJiIiIiIiGqwaGxtx8OBBrF692tGhWJVWq8WmTZvw5JNP3lRJN11F42B/zd2LX9RqtQMjGZyOHDmCjIwMbNq0CSkpKY4Ox66USiUyMzNRVFSEoqIiFBYWwtXVFbt373Z0aFbBRCMNKhqNBleuXDF7fEFBAWbMmGHDiP7r+PHjwtU5dHOYN28e3N3dIRaLIRaLERoaOmjapOpUVlYiOzsbABAaGoqFCxdanBw1Nj8lEREREREREQ1dRUVF2LRpE7KyslBSUmLx4x977DFs2rTJ6H1nzpzBK6+8go8++qi/YQ44IpEI48aNw7x587B9+3aMHj3a0SHZxVCpaPz555+F3/Py8qDVaiESiRwY0eCSmpqK1NRU/Pvf/3Z0KHanUChw5coV7NmzR9iPnnrqKQdHZT0DLtGYmJiIadOmGdxeUFCAkydPGn3M8uXLERgYaHA7T34PPeXl5UbnAgwMDERtba3B7UVFRZg+fbrN3/BLSkoMPlQFBwcbzHVHQ8tgnw9NrVbj6NGj0Gq18PHx6VOSkYiIiIiIiIhuPrGxsfj444+hVCoREREhnJeLiIjA9u3bERoaCicnJ6hUKrS1taGmpgbnzp3Dxo0bUV9fj8mTJxtd7ubNm/HNN98gPT0dw4cPt+dLspvly5cjKioKixcvxs6dOzFlyhRHh2RTWq1WOJ87GOdovH79Oj744ANcvHgR+/fvF27PysrCnDlzMGfOHMyePRt33323A6McXJycnBwdgt35+vriiSeewJQpU4REY2pqqoOjsp4Bl2jUVQbdqKedz9nZGc7Oxl+KRqOBRCJBRUUFGhsboVAooFAo0N7eDldXV3h5ecHLywvBwcEYP368yeWYS6VSobCwEOXl5WhqaoJCoYCbmxt8fX0xZswYjB071qLnkMvluHr1KqqqqoTlAV1vyt7e3oiMjER0dLRNrgax97ozh6m2qfHx8Thz5gykUqne7XK5HBUVFYiIiLBZTO3t7QYtU4cNG4YZM2Zgz549NnvegU6tVkMmkwEA/Pz8ek32qlQqtLS0AIDRD5IdHR1oa2uDWCzWmy9SIpGgqakJzc3NEIvF8PHxQXh4eJ/mjGxra0NlZSVaW1uhUCjg7OwMLy8vjBgxAoGBgUbfhzo6OlBXVweZTAaZTAYnJyf4+PjA19e3x/ajxmi1WlRVVaGhoQFyuRxisRienp4IDg62SevagoICoXXFvHnzbJ5k7M+6Mrb9detLKpVCJpPBzc0N4eHhCAgIMHi8RqNBeXk5pFIplEolRo4cCX9/f/j5+dk8dmsaqMcB0P/911HbWKlUQi6XC9tUp7a2Fo2NjZBKpXBxcYGPjw8iIiLg5ubW62uxhEKhwLVr1yCTyaBWq+Hp6YnQ0FCT66yzsxOtra16fwNd/4uampqE211dXY1u/4GyLxMRERER0dDg5uam9z3phRdewOzZsw3GxcXFYf78+Vi8eDGmTJlitAPZ559/jrfeegvnzp0bsklGnbi4OGzcuBFLlixBZmbmkK5sVCgU0Gq1AAZnReOoUaPw9ttvOzoMmzl//jx2796N5uZmjB07Fo899hicnZ1RW1uL3NxcLFq0yNEh2lxWVhb279+P8+fP4/nnn8ett94KAPjuu+9w8OBBfPLJJ1YrasvPzwfQlQdjonGQyMvLQ3Z2tnAS7kYqlQpyuRy1tbUoKSlBTk4O4uLiMHXq1D4lzSoqKvDrr78KJ+67P09bWxuqqqpw4cIF3HbbbUYrMG98zOnTp1FQUGC033NHRwekUikqKipw6tQpJCQkYMqUKVar3LP3ujNHe3s7KioqDG53cXFBeHg4ampqDBKNQFcyxZaJxszMTIMqyzlz5lj9ZPRgI5VK8cMPPwAA1q5d22sSq66uDnv37gUAPP744wb3V1dX4+eff4afnx9WrVqFhoYGZGZmGq1kFYvFSEpKwqRJk8yKta6uDqdPn0ZVVZXJMcHBwbjjjjuEvxsaGoTHmJqjMDg4GLfeemuvH461Wi0uXbqEnJwcoxW7QNdVL0lJSVbdl//zn/8AAEJCQhAcHGy15d7IGuvqxu1fU1ODzMxMNDY26o07e/YsIiIicPvttwvvRVevXsXp06f1kjM6kyZNwsyZM02+b1lzO1vDQDsOAOvtv47axiUlJcjMzMTIkSNxzz33QCqVIjMzE9XV1QZjxWIx4uLikJiY2O//dZ2dncjOzsalS5eM7luBgYFISUkx2K9qamqwb98+g/GXL1/G5cuXhb/HjBmD+fPnC38PtH2ZiIiIiIiGhsbGRlRWVgp/L168uMfxkydPRmhoKCZMmKB3e3Z2Np588kl89913N81FkHfddRe+/fZb3HnnnTh9+vSgrPYzR/eppgZjonEoe+GFF7B3716kpaVh7NixePTRR3H27Fl89tln+PjjjwFAL9Gou7jbHG5ubmZf4G8tfY0vKSkJ48aNQ0JCAv7+978LicaIiAjs3bsXf/3rXxEdHW2VGA8ePAgAmDZtGkaMGGGVZQ4EQzrR2NraajJRZoxSqUROTg6uX7+OpUuXWnQSsaysDEVFRSZP3unIZDJkZGRg2bJlJpONra2t2Ldvn9GkmTG6pGRDQwNSU1Otkmy057oz15UrV4yu38jISDg5OSEyMhIXLlwwuL+8vBzt7e02+UdWXFyMsrIyvdtGjx6NqKgovcoS6r/uVVRSqRQZGRlQKpWIjIxEaGgo3NzchA+3jY2NOHHiBGQyGZKSknpcbl5eHrKysqDVauHk5ISwsDCEhITAw8MDSqUSMpkM5eXlBonj6upqVFZWws3NDREREfD29oa3tzdUKhWkUimKioogkUiwa9cu/OY3v4G7u7vR51er1Thw4ICQRPfx8cGYMWPg6+sLjUaDxsZGFBcXo7m5GT/99BOmTp2KmTNn9nNtQqhmAmDw4d7arLGuum//xsZG7Nu3D2q1GmPGjEFQUBC0Wi1qa2tx9epVlJeX4+jRo7j99ttx6dIlHD9+HGKxGDExMQgKCoJarRYuksjPz4dMJsOSJUtsFrs1DbTjwJr7r6O2sY6zszNkMhn27NkDpVKJqKgohIaGwtXVFTKZDMXFxZDJZLh48SLq6uqwdOnSPrf66OjoQHp6ujCJfEREBMLCwuDq6gqpVIrCwkLU1tZi165dWLFihV51o5ubm95csA0NDVAqlfDy8tKryLwxWTjQ9mUiIiIiIhoaDh8+LFSrxcTEYMyYMb0+Zvr06XrVQXV1dVi5ciXi4+MNLm4d6l577TVMnDgRf/rTn/DJJ584Ohyb6F6UM1STqYPRhg0b8O677+LChQvCucHbbrtNmD81LS3N4ELnzZs3G3T2MyUpKQmvvPKK1ePuSX/iGzFiBJ5++mm88MILqK+vh7+/P2bNmoXf/va3iIqKskp8Go0Ghw8fBgDcfvvtVlnmQDGkE419LWeVSCTIzs7u9cRsdwUFBWaP7ezsxOHDh7Fq1SqDGDs6OrB//36zk4zdFRcXw9vbG9OnT7f4sTey57ozl6m2qbrWAkFBQXB3dzeoqNFoNLhy5YrV+53L5XKcOHFC7zY3NzfMmTPHqs9DXbonr48dO4bOzk4sXLgQkZGReuPUajV+/fVXFBcXIz8/H3FxcfD29ja6zMuXLwtzv/r5+eH22283eiXJ7NmzDSqVhw0bhrlz5yI2NtZoYn3y5MlIT09Ha2srcnJyTO4Xv/76q5CkiY2NRXJyssHxN23aNBw4cAASiQQXLlyAh4dHv/fn7lcbhoSE9GtZvbHGutI9TqPR4MiRI3BxccHixYsNYh8zZgwOHjyI0tJSSCQSnDx5EsOGDcOCBQsMLu4oKSnBoUOHUFFRgfLycqPVdtbaztYy0I4Da+6/jtrGOk5OTjhw4ACUSqXRdZqQkIBDhw6htLQU1dXVOH/+PBISEkwuryfHjx9HfX09xGIxUlJSMHbsWL37J02ahL1790ImkwmfF3QCAgKwfPly4e/9+/ejoqICsbGxSExMNPmcA21fJiIiIiKioUE31xiAXi/w1Nm1a5fe36+99hoqKyuxceNGq8Y2GMTGxiI1NRVbtmzBunXrrHJx+UDDisaBp66uDm+88QZ+85vf6BUguLm5oaOjA88++yzuvfdevQudAeCll16yd6gW6W989913H5555hns2bMH69atg1QqRUxMjNW6SObk5AiduxYsWGCVZQ4U1mksO0DpKg08PDwwfvx4JCYmIiUlBYsWLUJKSgomTJhgsp1jXl6e3pugpXpL1MlkMhQVFRncfvbsWaOVcGKxGImJiVi5ciVWrVqF1NRUo3MvXbhwQahS6g9Hrjtjamtrja4XZ2dnhIWFAQBEIpHBiWEdSxLB5jp27JhBKXZSUhL/YdqIbp+USqWQSCRYsGCB0e3t5OSE5ORkuLm5QaPR4OLFi0aX19zcLCRXwsLCsHLlyh7L1W+84io6OhoTJ040Wb3r4+OD+Ph4AKaT5BUVFSguLgYATJkyBfPmzTP63uHu7o5ly5YhPDwcQNf7hLEWkZbQvU94enr2aR4/S1hjXem2v0wmQ0NDA+bNm2c0QRoVFYWIiAhotVrs378fGo3GZLvq0aNHC+vU1HuENWK3poF0HFh7/3XUNtaRSCRobGxEcnKy0XUqEolw2223CR+yL126ZLS1eW90VZ5A19VrNyYZga6k4LJlyyASiSCVSlFeXm7x89xooO3LREREREQ0NHRPNJpqm/rtt9+afHxzczO+/PJLuLi4YNmyZWY/r1QqNZhqQ0epVBoUInzwwQe4//77cfToUbOfw17uu+8+aLVavPjii44OxSa6X7TM86a21dTUZLJLoVwuF46LH374AR0dHbjnnnuMjq2rqxuwSUW1Wo2qqip0dHRYfdlhYWGYOnUqDh06BAD4/vvvsWbNmn4ts66uTsghHDhwAEDX+TVjF3ibu/0GoiFd0RgUFIRFixYhPDzc6MnPcePGYfLkydizZ4/BRtJqtbh27RrGjx9v9vM5OTkhKSkJo0ePhqurK+rq6nDixAmhNdqNzp07h9jYWCE2uVyOS5cuGR2bmpqq13rAz88Po0aNwo4dO6BSqYTbNRoNLl26hFmzZpkdtzH2Xne9MXXSMyIiQu+kaWRkpNGxUqkUNTU1VuvxXlRUZHDiNywsDLGxsVZZ/kDz888/99oicPny5fDy8rJZDN33Q39//x4rk5ydnTF27Fjk5eWhoaHB6Jjc3Fyo1WqIxWLMmTPHJu1+dQkOlUoFhUJh0IpQ1+rXzc2t18ooJycnzJw5ExUVFVCpVMjPz+/XVW66iwHM/YBXVlbWY6V1YGCgwVVOluhtXXXf/qGhocIFBsZER0fj2rVr6OzsRHh4eI8Vm9HR0aioqOhTFbm5sVvTQDoOrL3/OnobazQa+Pv7Y9y4cT2+jsTEROzZswft7e24evWqxe/72dnZALoqiXtqveHt7Y3IyEiUlZXh4sWLNp1rWMee+zIREREREQ1+ly9fFrrcuLm5Yd68eQZjzpw5g507d2L16tVGl7F161a0trYiKSlJbzoIY44fP46dO3di//79KCoqgru7Oy5evChcwKlWq/Hiiy9i8+bNcHJyQn5+PsLDw3H06FH87//+LwAgIyMDEomk3xddK5VKfPzxx0hLS0NRURGcnZ0xdepU/PWvf8Xs2bP1xu7atQtlZWX44x//aHRZuu/HR44cQX5+PiZNmmRxPOXl5X16nDGTJ08WLkq2BlY02s7p06fx7bff4uLFi/jPf/6D2tpavPrqq/jb3/6mN66goAAzZ86EVqtFZmYmqqurAcBgn9El7377299arYrPGjQaDb799lt89tlncHZ2RmVlJa5cuYKXXnrJ6u1Z58+fj/T0dBQWFiI6OrpP+2xdXR3effddpKWlYdy4cZBKpXj00UeF+RlTUlLg5ubW5+03depUq7xWaxrSicaeTlLq+Pn5Ydy4cUbn9rP0xPOiRYv0njMoKAh33HEH0tLSjC6rtbUVVVVVwmPKysqMzkE4YsQIo/3NPT09ERsba5CcLC4u7nei0d7rridqtRpXr141ep+ubapOWFgYnJycjFaZFBYWWiXR2NbWZvDP1tnZWZgkdihqa2vrdUxv85NakzlzCurmJ2tpaTG4T6VSCRVFEyZMgK+vr3UD/P91r/5qbW3VO2nf1taGqqoqAEBcXBxcXFx6Xd6IESMQFRWFsrIyXLlypV+JRt2VNKYqk29UXFyMkpISk/dPmTKlX4nGntbVjW487m/U/ctCb3ND6Mb2pxLcktityZHHga33X0dtY3OShsHBwfDy8kJrayvKysosSjS2t7fj2rVrAGDWh8LRo0ejrKwM1dXV0Gg0fW5rbi5H7ctERERERDQ4da9mTElJMegGdfnyZfzmN7/BG2+8YXIZH374IYCu75a9USgUeO6555Camoq77roLCoUCX3zxBd58801otVo88MADqK6uhouLC9rb2yGVShEeHo7m5mZhGXK5HB0dHf1KNJ47dw4PP/wwCgoKsGHDBmzfvh0ajQaPP/44FixYgPT0dKSmpgLoStw89NBDmDRpkslE47hx4yAWi4Vkyuuvv25xTD4+PiaXb6ng4GCrLEeHczTaztixY/GXv/wF2dnZePjhhwEAH3/8MV566SW9i8k1Gg3a2tqgVqvx1VdfYcaMGQC68hG68yppaWn44YcfAHR1sdJqtWhuboafn5/V425vbze7IvHSpUtYt24dampqsHfvXsTFxaGtrQ0jRozA3/72N6xbt86sXIa5kpOT8e6772LXrl3485//bPHj9+3bh7Vr12LBggXIysqCn58ftFotVq1ahaysLAD/bZva1+3HRKODaLVa1NXV4fr162hpaUFHRweUSiXEYjHc3NwM2l/q3DgXVU/CwsKM7tDOzs5ISEjAL7/8YvRxNTU1wuOuX79udIy/v79e1WJ3xq70kcvlaGtrs0o7RHusu96UlpYafeNxdnY2qPBwdnbGqFGjjLaZu3r1KpKSksw6Id6TY8eOGcQzffp0k/OfDQWzZ8/u9Z+KPT8o9NTaUUe3/xvbFyUSiZAYNdVut7/UajVUKpWQ+L6x8rempkb43ZJKpYiICJSVlUEul6O1tbXPVaS6BKOpcvwbGWtLCQDXrl3rU/vI7npbVzfqLSHW/Rjv7WpI3di+Jsotjd2aHHkc2Hr/ddQ2Nndy71GjRqGwsNCsizC6677e/P39ex2vWz9arRZtbW02/T/jyH2ZiIiIiIgGp59++kn4vb6+HuvXr4dSqURLSwvKy8uRm5sLJycnvXnmu6uqqsKVK1cAoMfuMjq33347gK7zsLNmzcKpU6dw+PBhAMCbb76JiRMn4ttvv0VnZydkMhlGjhwJoKsL18svv4wTJ05g/fr1wkW5fZGWliZUZ27fvh333nuvcN8//vEPTJw4EQ8++CAqKyshFotx9OhRtLW1YcWKFSaX6e7ujsjISJSWlgqJCEv5+flhw4YNfXqsrVmzorH792pH6uzs7Pc5ZmsYPnw4XF1dsWzZMnz44YdYvXo1JBIJDh06pNfKeOLEiTh06BDuuOMOODs74+6778b69evxu9/9DjNnzoRarcaqVauwa9cuJCUl4eWXX0Zubi5eeeUVqyYajx8/jvT0dDQ3N+P06dP4/PPPkZSUZPJi+l9++QV33303vL29kZOTIyTBRSIRtFotAFh9Crdp06Zh+PDheOihhyx+7CeffIInnngCa9aswdatW4WqUJFIBG9vbyGnsHDhQgD/Pbdn6fYbiAZmVFYil8uRnZ2NsrIykwmxnlhy4rmnrHlPVT7d56kydcKyqKjI6HyOPWlqaupXotGe6643ptqm6qoXdW8qOhEREUYTjZ2dnSgpKTHrg4spBQUFQksIncDAQLOuuhrMgoODzTopbi/mJNd0/+xv3D8A/Yrb/lYz1tbW6v3I5XKTFwaYiqG3REl33RMNUqm0z4lGXaWSucf3lClTjN6+bds2sy8s6Ou6upEl68uSsT2xVuzW5MjjwNb7ryMMAx5MAAAgAElEQVS2sUgkMvv/pu7CCksTjbqqSrFYjOvXr/fahqT7sdXa2mqVRONA3JeJiIiIiGjwUSgUOHbsmPB3SkoKXFxc0NHRAXd3d5SUlEClUmHx4sUmv8vk5uYKv5tzMW13t912G06dOoXc3FxkZWXh1KlT2Lt3L4Cu78K6JCPQNQ2GNZJwly9fxtq1a6FSqfDKK6/oJRmBrm5BLi4uqK6uRmZmJlJSUpCeng4nJyfcf//9PS47NjYWpaWlOHv2bL/jHGh0322dnZ37nSSxdrXlYHfo0CHMnz8fAHDPPfcgNDQUVVVV2Llzp8GcqfPmzUNKSgpmzJgBFxcXfPTRR9BoNFCr1XpJ06ysLHR0dJjdBc0Sc+fOxdy5c/HOO+/0OvbEiRNYunQp1Go1MjIy9Lb9v//9b3R2dmL8+PGIiYmxaoxnzpzBtm3bMGrUKIse98UXX+CJJ57ApEmT8Omnnxqc89Fd0B0SEmK0zbEl228gGrKJxpqaGuzfv98mk4Ia09OJTg8PD5PtPLtXE1mzeqA/y7L3uutJa2uryUrPsrIybNmyxaLlFRYW9ivRWFpaanBbbGys0atpjLUqBLr+uUokEuHvgICAXuc/JH39vWJId3yIxeI+J+pqa2tx4sQJ1NXV6d0uFovh7u4ufHgy1UZYd3y5uLjAzc3N7Oft/uG8LxcB6Ohed2trq80+POj0d13dyJL1ZclYY6wduzU58jiw9f5rz22s4+npafb8A7orMOVyuUUtTXWvWaPR4MiRIxbFZ2lS80YDeV8mIiIiIqLB59ixY0IlUUhICDZt2qR3v1qtRnR0NO655x6Ty+h+Ps3S76Xz5s3DW2+9BaVSiYceeghHjx616ZxyKpUKK1euREtLCwIDA/Hcc88ZHefn54e6ujocOnQI06dPxw8//IDVq1f3mgzRVVlKpVKoVKoBW7XUF7r9xBrd0L744ot+L8MapFKpTVqKWmrixInC705OTrj77ruxefNm7N271+j5irKyMixZskT4WywWGz2nYcvzhOaoqqrCypUr0dHRgUcffVRvyrJLly7hxRdfhIuLi9GEXn8UFBRAqVT2+L5lzLlz57B+/XpotVp8+umnRtdfWVkZgP9WM96oL9tvIBk671jdKBSKHhNlI0eOxLBhw+Dk5ASVSoXW1lY0NTX16zl7OmHa0dFhsrVg953OmuXW5rZDvJEj1l1PLK3k7I1EIrH6P4Ljx49bNL6srEx4YwGABx54oM/JrqHEWMWVPZ5Tq9Va/A/p+vXr+Pnnn6FSqSAWizF69GiEhYUhMDAQvr6+esv77LPPjB7/ujGWvu7u1cL9+UcaEhIiPL9EIrGo/aUlrLGuHGUwx26JvhwHjt5/bcGS16IbKxaLLXodui+KYrHY6NVrPenP/62bZV8mIiIiIiL76T4/442VN0DXSfPw8HDccccdJpeh6/oCWN5SMykpSSjsuO+++xAeHm7R4y2VkZGBgoICAMDTTz9tskpTV0xQUVGBt99+Gy0tLXj77bd7XX731y+VSi3uLKZUKnHq1CmLHmOKl5cXEhISrLIs4L+Jxv62TQUgzGNHxt15553YvHkzamtrcebMGcyaNUu4LysrC/Pnz7fKdrC1Z599FrW1tXB1dcX/+3//T7g9IyMDv/vd7+Du7o7vvvtOLwHZV7/++iveeecdLF68GP7+/njwwQcterxarcaaNWugVCqRnJyMpKQkgzFKpRLnzp0DACxatMjksgbz9huSica8vDyjibIRI0Zg4cKFBtWH//nPf/rc/1qnoaHB5H2NjY0m7+t+JYenp6fR5fj4+Fg8oWlfe407Yt31xNqJRqCrqnHmzJlWXy71T3+q8yylaxuq1Wohk8ksOoGv0Whw7NgxqFQqeHp6YsmSJXrtOG5k6oS9rgpLpVJBLpebfVVX90rZ/lRy+fv7C/OsFhcX2yTRaK115QiDOXZz9ec4cPT+awvt7e1mVyfq2r54eXlZlGjUXVSi0WiQkJBglysEb4Z9mYiIiIiI7K+3RCMAREVF9dgStfv0FZZeyOrl5YX4+Hjk5OTYtAhCZ+vWrcLvd999t8lxuu+IWVlZ2LFjB/71r3+Zdc6l+3fLtrY2ixONEokE8+bNs+gxpsTHx+u1te0v3XfogZogGUqSk5Ph6ekJuVyOI0eO6CWqNm3ahDfffNOB0Znn/Pnz2LFjBwDg3nvvRWBgINLT0/HPf/4TZ8+exQsvvIA//elPVqmQBYCxY8diwoQJmD59OmbPnm3x47ds2YL8/HwAwDPPPGN0zO7du6FUKiESiYS5Zo0ZzNtvSCYaTU0KO3v2bKMtTquqqvr9nIWFhYiPjze6g+fl5Zl8XGBgoPB7UFCQwfx/QNdJv7lz5/Y7RnM4Yt2ZUlVVpXdlk7UUFRVh+vTpZre6o77pvn7Nac3Zfb5SW+v+IbepqcmiBEt5ebmQLJk7d26PJ+x7aj/cPYaWlhaz/zl2PyYsnb+gO5FIhPHjx+PChQsoKSnBjBkzrF5Za6115QiDOXZz9ec4cPT+awuWJFx1bUwtnTOx+zEmk8nsMvftzbAvExERERGRfV2/fl04sS4Wi02eOO+tzWX371+WTgOlVCqFc0nWquQzRaFQICMjAwAwZswYvXaVN9IlDIuKivDAAw/g8ccfN+s5dMk4oG8dbYKDgy3uumZK9wSwNVizopF65ubmhjlz5uDgwYPIzMzEiy++CKBrflEvLy/ExsY6OMLedX/fuHDhApYuXYqZM2fihRdewNy5c62+f4aGhhq0frbEe++9B6DrwooVK1YYHfOvf/0LQFcSPyAgwOSyBvP2G5KJRlNz4xmrnqiqqsK1a9f6/ZydnZ04dOgQFixYoPemmZ+fb3ReP6CrlD4oKEj4Ozo62uiEv21tbcjLy0NcXFyvcbS3t/frTdsR684UU9WMYrHYrCuB6uvrjSav2tvbUV5ejqioKL3b8/PzcfXqVYPxcXFxGD16tHlBk6D7m35bW1uvSawb5w2zpcDAQDg7O0OlUuHy5cuIjo42+7G6+cvM2Q97ek2BgYEQi8XQaDS4evWq3ntBT3T7qK+vb78/oE2ePBl5eXlQq9U4evQoli1bZtV2ltZaV44wmGM3V3+Og4Gw/9pCSUkJpk2b1uMYjUYjXBTU0/zMxnRPTEokErskGm+GfZmIiIiIiOyrezXjjBkzTF5I2ts0Ud1PuFtalfjSSy8J37Hy8vLQ3NwMX19fi5Zhrvr6eqhUKgBAYmJij2N1lZkjR47Ep59+avZz6M7Juru7W/xdE/hvgmIg0iVRrVWBRj1LSUnBwYMHkZ2dLdz28ssvY+PGjQ6MynyHDh0C0HUe48yZMwN6v8nNzRVaKi9fvtxoYVNOTg5OnDgBAFiwYEGvyxys229IJhpNtWM7deoUUlNT4enpCZVKhZKSkh6v9LC0ZF8ikeD7779HWFgYPDw8UFNTg9raWpPjo6Oj9WIdPnw4Ro8ejZKSEoOxJ0+eRFNTEyZMmKB3YlKj0aC1tRXl5eUoKiqCp6enyXYF5nDUurtRZ2en0fUAABERESYnTe3u0qVLJmMsLCw0SDS2tLRAIpEYjO2eZJwxYwamTJnS63MDXW1ly8vLDW6PiIjA5MmThb8H4sl2a3B1dYWrqys6OjpQV1fXYyKivb3d5Pa2BWdnZ8TExKCgoACVlZW4fv06Ro0aZdZjdS1enZyceq2KNVahrOPu7o6IiAiUlZWhoKAA06ZNE1pZmiKRSIR91BpXsHh6emL69Ok4deoUqqqqkJWV1acWAaZYa105wmCO3Vz9OQ4Gwv5rC0VFRb0mGisrK4X9Y/z48RYt38vLCyNHjkRDQwPOnz+P8ePHC/M29pVu/o/u8192dzPsy0REREREZF/mtE01xy233AKRSAStVmvR9ElHjhzBxYsXkZaWhoiICGg0Gpw8eRJLlizpcyw96T7VVW9zQerOibq7u1tUeaWbeis+Pt6qF4EPBKxotC/dvIX19fWora1FQUEBgoKCMGbMGAdHZp6ysjIAXbmTgZxkBLravOpMnz7d6JjXX39d+N2cRONg3X5DMtEYFBRk9Kr869ev4+uvv8awYcMgl8tNnpTTMbeFmIuLCzo7OwF0ldIXFxf3+hgnJyejJzNnzZqFqqoqo+0CLl++jMuXL0MsFsPDwwNarVavrB5Av+dZs/e6M+Xq1avClUI3MvcE9ejRo3Hy5EmjsZaXl1s0r5hOTy3nbmSqktXLy8vsk/mDXXBwMMrLy3Hp0qUeK3LPnDmj9yHK3HnS+iM+Ph7FxcVQqVTIzMzEkiVLzLryTXdVWWdnJ6RSqcl2FnK5HIWFhcLfxpLvt9xyC65duwaVSoXjx4/jtttuM/m6FQoFTp48CaDrw+qECRN6jdUcU6ZMQU1NDUpLS5GXlwe5XI65c+f2mjQyhzXXlb0N5tgt0dfjABgY+681iUQiyGQynDlzBjNmzDA6RqFQCC15QkNDe2x3YcqkSZNw7NgxyOVynD17Vq/ffl/orhDWtXO90c2yLxMRERERkX1oNBocPHhQ+NucYgBTfH19MWnSJOTl5QlVQb2pr6/H888/j4yMDAQFBWHs2LG4cuUKjh07JiQaL1y4AH9/f73zb1KpFPn5+Zg6darFU8d0rzDsaV77d955Ryg60SXXzKX7PpacnGzR4wYD3flra7e8JOOmT58udLA6f/48Nm7ciO+++87RYZlt2LBhaGtrE/ItxqjVahw5cqTH+Q7t4fr168Lv3afI0/nqq6+ExGn3quPs7GyMGzfOaPXyYN1+Q3KSuri4OJOVeVqtFq2trXrJpwkTJhg9OWpub/CRI0ciJibGohhnzJhh9GSfl5cXli5d2uN8dhqNBm1tbQZJRmuw97ozpfvJzu50VTTmcHd3N5nQs/RKKeqbW265BUDXh7nDhw8bfBjTaDQ4evQoCgsLMXXqVOF2U0lma/Lx8UFSUhKArrnSfvzxR+GN/0ZqtVqYW2706NHC8Xns2DGjSfXGxkakp6fD3d1dSEQYO2kfEBCA+Ph4AF0tG9PT040eO1KpFLt27UJ9fT0AWC0RqDN//nwhgV9SUoIdO3YgOztbeD5jOjo6UFxc3ONFBdZcV/Y2mGO3RF+PA2Dg7L/W4uvri/DwcJw/fx4XLlwwuF+hUGD//v1CK9LeKh9NGTdunFDhffHiRRw4cMDkcdTQ0IDMzMwel6frcnDt2jWjnwtuln2ZiIiIiIjsIzMzU2hz6ubmZrKKx1yrV68G0FVgYYruu6ZKpcLvfvc7vPvuu8L3qtTUVADAgQMHAHRNCfHaa6/pddYqKyvDmDFjMHfuXERGRuq1JDRHdHS00OHs2LFjBt+X5HI5Vq9ejS+++AIpKSkAur4L6zqdqdVqo9M76UgkEjQ2NkIsFmP9+vUWxTYY6C6MZaLRPjw8PISCj+effx7333+/yfbGA5GuPXF5ebnRY7WyshJLlizp8Ziyl+6dJ69cuaJ334EDB3D06FGhs+GsWbPg4eGB/Px8fP755yZbJA/W7TckKxp9fHywYMEC7Nu3r9fKu9DQUMyePRslJSVCezEdS5Jlc+fORXt7u14W2xiRSISEhAS91pk38vf3x7333osjR46gurra7BiswRHr7kbNzc2oqakxel9MTIxFlW4xMTEmW8EVFhYKJ8nJNoKCgjB+/HgUFBSguLgY1dXVCAoKgo+PD+RyOSoqKtDe3o6wsDBMmTIF586dA9Dz1WHWNGHCBGg0GmRlZaGjowMHDhyAn58fgoOD4e7uDoVCgdbWVkgkEoSFhWHhwoVwc3NDQkICsrKyIJFI8M033yAiIgJeXl5QKpVoamqCRCKBu7s7li5dKlQ/mUqeTp8+HZ2dncjLyxOWFxYWBh8fH2i1WjQ2NqKqqgparRZisRhz5861+pyhYrEY8+bNQ2BgIHJyctDe3o7c3Fzk5uYKrT7c3d2h1WqhVCqhUCgMqqeMHZfWXlf2NJhjt1RfjgOdgbD/WtPcuXOxe/dunD59GoWFhQgJCYGrqytkMhkqKiqE7Tt79myEhob26TlEIhEWLVqEffv2ob6+HmVlZfj6668RHh4Ob29vofJQKpUKiUNd2wxjwsPDcfr0aXR0dCAtLQ1RUVHQaDSoq6vDnXfeeVPty0REREREZHv//Oc/hd81Gg1kMlm/ToI/9thj2LBhA8rKylBTU2Mw9c7atWuxY8cOLFy4EG1tbVizZg3mzp0r3L9gwQJ8+umnOHfuHNavX4+LFy9i69atetNUHD16VGhN2tjYiD/+8Y/CnGnmevnll/HAAw8gJycHDz/8MNatWwexWIxTp07hgw8+QGJiIrKysrB7924cOXIEGo0GS5cuxfz58/HTTz9hy5YtJqsVdXPSrVixAtHR0RbFNRjovttaWklKfZeQkIDz58/D09MTjzzyiKPDschf/vIX7N+/H1qtFnfccQfefPNNJCcno7m5GRkZGfjxxx/x6aef9vsiB2tYtmwZnJycoFar8eqrr8LLywuRkZHYvXs3rl69ip07dwrn0WpqarBlyxb89NNP+PLLL3tc7mDcfkMy0Qh0JcHuuecenD9/HsXFxQZXmri6umLixIlITEyEWCyGi4uLQbLMkhJ3V1dXLF26FHl5ecjLyxMm8O0uJCQEM2bM6HGuOh0vLy+sWLEClZWVyM/Px/Xr13s86efr64uwsDCrnMC197q7kalqRsDyeb2ioqKEg/1Gzc3NqK6uRkhIiMUxkvmSk5MREBCArKwstLW16c3F6OzsjFtuuUXoya9jr0Qj0NXGMDQ0FNnZ2SgvLxdO8Pdk8uTJcHNzw5kzZyCXy/XaJYvFYowePRqzZ8/Wa83b0zExe/ZsREZGIicnBxKJxKCiTCwWIyIiAjNmzMDw4cP79kLNMHHiRMTGxuLSpUsoKytDbW0tFAqFyQsH/Pz8EBUVhaioKKPtAQDrryt7GsyxW6ovx4HOQNl/rcHb2xt33XUXMjMzUVFRYbAORo4ciVmzZvW7/bW7uzvuuusuXLx4Efn5+QbvjTo+Pj69zv/h5+eHefPm4ciRI5DL5bh06ZJwn0KhgJeX1021LxMRERERkW2899572Lp1q14HmM7OTsTHxyMlJQXPPfecXrcqcwUFBeHZZ5/F22+/jbS0NDzxxBN693d0dECpVGLv3r3YsGEDHn74Yb37lyxZgpCQEFRXV+Obb75BRkYGxo0bpzdm9uzZwhiga141rVZr0VyI9913H7y8vLBhwwZ8//33+Oqrr+Du7o6FCxdiy5YtWLRoEQDggQcewA8//ICMjAwUFBRg1KhR+Prrr4UqLWN27doFAPjDH/5gdjyDie5idW9vb5ss//bbb++1+Kc3f/jDH4ZUNenYsWPh6emJL7/8ctDN+Xnrrbfihx9+wNq1ayGRSIREW0BAAJ577jmcPHlywMz3GR4ejg8//BBPPvkkGhsbsW7dOnh4eODpp5/G7t274eTkhOjoaGRmZqKgoAAnT57Etm3beo1/MG4/kfYm6I2lUCggk8kgk8mg0WgwbNgwBAUF6V3ZYk26Kg6ZTAalUglPT0+MHDmyX+XhGo0GDQ0NaGtrg0KhgFgshru7u1BtZKvSc3uvOxq6VCoVJBIJ5HI5xGIxfHx8MHz4cGF+sYGgo6MDtbW12LdvH2bMmAEvLy+4uroiICDA6D8ArVaLuro6tLS0oLOzE8OGDUNAQEC/2kK2tbWhsbFRWE+enp4ICAjosZ2yrXR0dKCpqQnt7e1QKBRwcnKCh4cHPDw84OnpadE/dVusK3sZzLH3RUdHB+rr69HW1gaVSgUXF5cej4PuBtL+a67Lly8jMzMTfn5+WLVqlXB7S0sLGhsb0d7eDjc3NwwfPtzk/Ib91dDQgJaWFigUCjg7O8PT0xPe3t4WfQmTy+WQSCTo6OiAh4cH/P39DT4b3Gz7MhERERERDQ5yuRyTJ0+Gj48Pzp07p3divbOzE7/++itCQkIwadIko4+vrKxEVlYWkpOTTRZ4aLValJaW4uDBg9i0aVOPhQ69UalUaGpqgr+/v8kkgEwmg5ubm8kpqnSuXbuGmJgYrFq1Cl9//XWfYxrIUlJScOzYMbz88svYsGGD1ZevK9BRqVR605utWbMGr7/+uvC3Wq1GfX09qqqq8OOPP+L7778XLrJ944038NJLL/X4PI2NjTh48KDQ7tdatFotNm3ahCeffNJqCbRHHnkE06dPH9TJU5VKJRRDxMXFDegOWQ0NDThz5gxEIhFmzpypd6F9U1MT0tPTMWXKFLMvxhiM2++mSDQSEZmruroaOTk5mDt3Ljw9PQd0goSI+s9UopGIiIiIiIjs5+zZs5gzZw62bduG++67z2bP8+KLL0IkEuGtt96y2XNYYs2aNbh48SJOnjyp12VmKJk2bRpyc3Pxj3/8A88884zNnketVusVx/z+97/H+++/b3J8eXk55syZg8rKyl4TjWfOnMErr7yCjz76yCbtbdPT07FhwwZs37693wm13NxcvP766/jxxx+tFB3Z02DdfixLIyLqpqSkBA0NDfjuu+8gEokwZcoUzJw509FhERERERERERENWYmJifjss8/wzDPP9FiZ2B/Hjh3DTz/9hJMnT1p92X2RlpaGffv2ITs7e8gmGYGu6auArulIBpKIiAgcOHAA06ZN63Hc5s2b8c033yA9Pd1mU8IsX74cUVFRWLx4MXbu3IkpU6b0aTn19fX461//ih07dlg5QrKHwbz9xI4OgIhoIJkzZw4efvhhLFu2DFqtFhcuXEBDQ4OjwyIiIiIiIiIiGtIeeugh/OUvf8GqVausPm/8tm3b8Oc//xn79u0bEPO7HT9+HK+88goOHDhgkwq5gUQmkwEAQkJCHByJoQkTJmDlypUm7//888/x1ltvIS0tzWZJRp24uDhs3LgRS5YsQUlJiVmP6d6sUqlU4rHHHsP7778PX19fW4VJVjSUth8TjUREAKqqqvT+DgoKgljc9Rap0WgcERIRERERERER0U3lqaeewhNPPIGFCxeioqLCassNCQnBkSNHBkSya+fOnXj//fdx/PjxXqvphgJdRWNwcLCDIzFuzpw5Rm/Pzs7Gk08+iY8++sgmFbbG3HXXXUhOTsadd94JuVze49gPP/wQw4cPxyOPPIJDhw7hoYcewvPPP683TyUNXENt+7F1KhHd9ORyOfbt2wdvb28EBQXBzc0NFRUV0Gg0GDVqFAICAhwdIhERERERERHRTeH+++9HYmIiTpw4gfvvv98qy5w/f75VltNfWq0Wzc3N2LFjB0QikaPDsbnW1lZ0dnYC6GpVOhA9+OCDUCgUerfV1dVh5cqViI+Pxx133GHXeF577TVMnDgRf/rTn/DJJ5+YHHf06FE0Nzfj888/x8GDB/Hjjz8iISHBjpFSfwy17cdEIxHd9Dw9PbFmzRpIJBJIpVK0trZi9OjRCAoKQlhYmKPDIyIiIiIiIiK6qcTExAzayp6eiEQiPPLII44Ow27q6uoAAH5+fvDz83NwNMb5+voatKp87bXXUFlZiY0bN9o9ntjYWKSmpmLLli1Yt24dZs6caXTcpk2bEBUVhaCgIDz++OPw9va2c6TUH0Nt+4m03RvBEhEREd1E6uvrUVFRATc3N0ycONHR4RARERERERENGWfOnMHMmTORmJiI7Oxsmz6XWq2Gs/N/66p+//vf4/3337d4Oc3NzQgLC4NSqUR9fT18fHysGaZZPv30U/zP//wPUlNTcfjwYbs/P5GlOEcjERER3bT8/f1xyy23MMlIREREREREZGUSiQQAMHnyZAdHYr6tW7eitbUViYmJFiUZlUol3nvvPaSkpCAkJATh4eFYvnw5Tp48aTB2165dePfdd00uS1fFeOTIEeTn51v+IojsjIlGIiIiIiIiIiIiIiKyqmvXrgEA4uPjjd6vVCoN5kd0tA8//BAAEBcXZ/Zjzp07h8TERDz33HNYsmQJcnJykJWVBY1GgwULFuDIkSPC2I6ODjz00EPYvn27yeWNGzcOYnFX6ubbb7/t4yshsh/O0UhERERERERERERERFalSzQmJSXp3f7FF19gy5YtmDFjBkQiEU6dOoW1a9fi8ccfd0SYgqqqKly5cgVAV7LPHGlpaVi9ejUAYPv27bj33nuF+/7xj39g4sSJePDBB1FZWQmxWIyjR4+ira0NK1asMLlMd3d3REZGorS0FFlZWf14RUT2wUQjERERERERERERERFZ1aVLlzB8+HBMmzZNuO3DDz/E008/jfPnzwtVg0VFRYiLi0NLSwueffZZR4WL3Nxc4fcRI0b0Ov7y5ctYu3YtVCoVXnnlFb0kIwBMmDABLi4uqK6uRmZmJlJSUpCeng4nJyfcf//9PS47NjYWpaWlOHv2bN9eDJEdsXUqERERERERERERERFZVU5ODpYvXw4nJycAwOHDh/H0009j9erVeq1JY2Nj8dBDD+H5559HRkaGo8JFTU2N8LuXl1ePY1UqFVauXImWlhYEBgbiueeeMzrOz88PAHDo0CHI5XL88MMPWL16NWJiYnpc/vDhwwEAUqkUKpXKkpdBZHdMNBIRERERERERERERUZ9ptVqUl5cLf58/fx61tbV49NFHhdv+9a9/Qa1WY926dQaPf+SRR6DVavHee+/ZJV5jZDKZ8LuHh0ePYzMyMlBQUAAAePrpp+Ht7W10nC7JWlFRgbfffhstLS14++23e42l+/NLpdJexxM5EhONRERERERERERERETUZ0uXLkVkZCTWrFkDrVaLd999F0uXLkVycjKArmTZ/v37AQCTJk0yeLyuwvHw4cOQSCT2C7ybYcOGCb9rtdoex27dulX4/e677zY5TiQSAQCysrLw97//Hf/3f/+HiIiIXmPRPQ4A2traeh1P5EhMNBIRERERERERERERUZ8VFhYCAL766isEBwfj8OHD+OCDD4T7c3Nz0dHRAS8vLxZBvCAAACAASURBVAQHBxs83tfXFwEBAVCr1cjJybFb3N3p2pwCgEKhMDlOoVAILV7HjBmDiRMnmhyrSxgWFRXhnnvuweOPP25WLHK53GhcRAMRE41ERERERERERERERNRnX3zxBWbNmoXJkydj5cqVOHHiBKKjo4X7r1+/DgDw8fExuQxfX18AQGVlpW2DNSEgIED4vampyeS4+vp6Yd7ExMTEHpepq4wcOXIkPv30U7NjaWlpAQC4u7v3uM6IBgJnRwdARERERERERERERESDV3JyMrKyskze39nZCQDQaDS9Lks31t5uueUWiEQiaLVaFBUVmRzX0NAg/B4eHt7jMnWJRnd3d73WrL1pbGwEAMTHx+u1USUaiFjRSERERERERERERERENhMaGgqg55ak7e3tAIBRo0bZJaYb+fr6CvNHFhQUmBzXvcJQrVabHPfOO++gtrYWwH9fm7l0rWh1c1wSDWRMNBIRERERERERERERkc1MnDgRIpEIUqkUra2tBvd3dHRAIpEIYx1l9erVAIDLly+bHBMdHY0pU6YAAI4dOyZULerI5XKsXr0aX3zxBVJSUgAAUqkU5eXlALqSk8bWgY5EIkFjYyPEYjHWr1/fr9dDZA9MNBIRERERERERERERkc2Eh4dj9uzZAIxXCxYVFUGtVuOWW27BuHHj7B2e4LHHHoOrqyvKyspQU1NjctzLL78MZ2dn5OTk4OGHH8bRo0dx7NgxbNy4EePHj0dnZyeysrKwZs0aAF0tY5cuXYo//OEPmDhxIs6dO2dy2YcOHQIArFixQm+eS6KBiolGIiIiIiIiIiIiIiKyqUceeQQAsHv3boP7du3aBQBYt26dRcscP348PDw8DOY//Oijj+Dh4QEPDw98/PHHZi8vKCgIzz77LDQaDdLS0kyOu++++7Bnzx4kJSXh+++/R2pqKhYtWoQTJ05gy5YtSEtLw/Dhw/HAAw9g+fLlEIlEKCgoQEFBAb7++useW6Lq1sUf/vAHs+MmciSR9sa6XiIiIiIiIiIiIiIiIit79NFHsXPnTpSVlcHPzw8A0NLSgqioKCxZsgRfffUVRCKRQ2OUy+WYPHkyfHx8cO7cuV7jUalUaGpqgr+/v8mxMpkMbm5ucHNz63FZ165dQ0xMDFatWoWvv/66z6+ByJ6YaCQiIiIiIiIiIiIiIptTqVT4/e9/j9zcXKFi7/3338eECRPw8ccfw9XV1cERdjl79izmzJmDbdu24b777rPb865ZswYXL17EyZMn4enpabfnJeoPJhqJiIiIiIiIiIiIiMhuGhsbUVBQAK1Wi/Hjx2PkyJGODsnAtm3b8OKLL+Ls2bMICgqy+fOlpaXh8ccfR3Z2NudmpEGFiUYiIiIiIiIiIiIiIqIbbN68Gd999x1++ukneHh42Ox5jh8/jvXr1+Pf//43pk2bZrPnIbIFZ0cHQERERERERERERERENNA89dRTGDlyJBYuXIhvvvkG4eHhVn+OnTt34vvvv8fx48eFeSuJBhOxowMgIiIiIiIiIiIiIiIaiO6//35s3boVJ06csPqytVotmpubsWPHDiYZadBi61QiIiIiIiIiIiIiIiIishgrGomIiIiIiIiIiIiIiIjIYkw0EhEREREREREREREREZHFmGgkIiIiIiIiIiIiIiIiIosx0UhEREREREREREREREREFmOikYiIiIiIiIiIiIiIiIgsxkQjEREREREREREREREREVmMiUYiIiIiIqL/j737Do+iXP8//kkhJBASIEAgQoj0GkQpAQQM2AAFDCCKBT3IEREO2BBBRI/1eCwUFQFRQcWDVGmCEHqRqhBaKKEHCEUCCSVtfn/wY78suwkpuzub7Pt1Xbmu3WeeZ+Ze9t5ldu6ZZwAAAAAAQJ5RaAQAAAAAAAAAAACQZxQaAQAAAAAAAAAAAOQZhUYAAAAAAAAAAAAAeUahEQAAAAAAAAAAAECeUWgEAAAAAAAAAAAAkGduWWi8evWq2SEAAAAAAAAAAAAAyIGv2QHc6MqVK1q8eLHS09PVunVreXu7ZR0UAAAAAAAAAAAAcCs+Pj4qW7asS7fpZRiG4dIt5uDcuXOaMWOG2WEAAAAAAAAAAAAAhUpwcLB69uzp0m261RWN/v7+qlOnjg4cOKCMjAxFRESoRIkSZocFAAAAAAAAAAAAuLWAgACXb9Otrmi87tixY1q4cKFKly6tmJgY+fq6VT0UAAAAAAAAAAAA8HhueRPEypUrq169ejp//rw2bNhgdjgAAAAAAAAAAAAAbuKWhUZJioqKUunSpbVz504dOXLE7HAAAAAAAAAAAAAA3MBtC42+vr5q166dvL29tWrVKl25csXskAAAAAAAAAAAAAD8f25baJSkcuXKqXHjxrp06ZJWrVpldjgAAAAAAAAAAAAA/j+3LjRKUuPGjVWhQgUdOnRI+/btMzscAAAAAAAAAAAAACoEhUZvb2+1a9dOxYoV09q1a5WSkmJ2SAAAAAAAAAAAAIDHc/tCoyQFBQWpefPmSktL07Jly2QYhtkhAQAAAAAAAAAAAB6tUBQaJalevXoKDw/XyZMnFRcXZ3Y4AAAAAAAAAAAAgEcrNIVGSWrbtq0CAgK0adMmnTt3zuxwAAAAAAAAAAAAAI9VqAqNAQEBat26tTIzMxUbG6vMzEyzQwIAAAAAAAAAAAA8UqEqNEpSRESEatWqpb///lubN282OxwAAAAAAAAAAADAIxW6QqMktWzZUqVKldL27duVmJhodjgAAAAAAAAAAACAxymUhUY/Pz9FR0dLkpYvX66rV6+aHBEAAAAAAAAAAADgWQploVGSKlasqMjISKWmpmr9+vVmhwMAAAAAAAAAAAB4lEJbaJSkJk2aKCQkRHv37lVCQoLZ4QAAAAAAAAAAAAAeo1AXGn18fNSuXTv5+PhozZo1unTpktkhAQAAAAAAAAAAAB6hUBcaJalMmTJq2rSprly5ohUrVpgdDgAAAAAAAAAAAOARCn2hUZIaNmyosLAwHTt2TLt27TI7HAAAAAAAAAAAAKDI8zIMwzA7CEdITU3VjBkzlJmZqZiYGJUuXdrskGwkJydr6dKlOnjwoPz8/FSnTh21a9dOvr6+ZocGAAAAAAAAAAAA5EmRuKJRkkqWLKmWLVsqIyNDy5YtU1ZWltkhWSQlJalfv34KDQ1V3759tWnTJq1atUpdu3ZV/fr1lZiYaNX/woULCgsLU+3atU2KGAAAAAAAAAAAAMhZkSk0SlLNmjVVvXp1nTlzRn/++afZ4UiS1qxZo8jISI0fP17R0dE6fPiwpk2bphkzZmjmzJnau3evoqOjdfbsWcuYpUuX6sSJE2rRooWJkQMAAAAAAAAAAADZK1KFRklq3bq1AgMD9eeffyopKcnUWOLi4vTAAw/o1KlT6tixo+bMmaNSpUpZlnfo0EFVq1bV3r179dNPP1na58+fL0nq1KmTy2MGAAAAAAAAAAAAcqPIFRr9/PzUpk0bZWVladmyZUpPTzcljvPnzysmJkaXLl1SUFCQJk+erOLFi9v0q1atmiRp2rRpkiTDMLRw4UKFhobq4YcfdmnMAAAAAAAAAAAAQG4VuUKjJFWuXFn169fXhQsXtGHDBlNi6NOnj/bv3y9JGjp0qMqVK2e3X5kyZSRJ69evV3p6upYsWaJTp07ppZdekr+/v8viBQAAAAAAAAAAAPKiSBYaJSkqKkply5bVrl27dOTIEZdue+vWrZo1a5YkKTAwUIMGDcq2r7f3tbfAMAwdPXpUI0aMUM2aNfWvf/3LJbECAAAAAAAAAAAA+VFkC40+Pj6655575O3trZUrV+ry5csu2/bEiRMtjx944AGVKFEi275eXl6Wx6+99po2b96sb7/9VgEBAU6NEQAAAAAAAAAAACiIIltolKRy5crpzjvv1OXLl7V69WqXbfe3336zPO7SpUuOfW8sNM6aNUvvvPOO7r77bqfFBgAAAAAAAAAAADhCkS40SlLjxo1VsWJFHTp0SHv37nX69q5PgXpddHT0Lftf16lTJw0fPtxpsQEAAAAAAAAAAACOUuQLjV5eXrrnnntUrFgxrV27VhcuXHDq9pKTk5WVlSVJ8vX1VVhYWI79byw0PvTQQ1ZXOAIAAAAAAAAAAADuqsgXGiUpKChIUVFRSk9P14oVK6yKe46WnJxseVyhQgV5e2f/T2wYhs6cOWN5funSJafFBQAAAAAAAAAAADiSRxQaJalu3bqqWrWqTp48qW3btjltO1WqVFGFChUkSadOncq2eJiWlqbevXtrxYoVlraUlBSnxQUAAAAAAAAAAAA4kscUGiWpbdu2CggI0ObNm3X69GmnbMPb21tdu3aVJGVmZmrGjBk2fXbt2qUWLVooPj5eY8eOtbTPnz/fcrXlzp07tWfPHqfECAAAAAAAAAAAABSUl+HMeUTd0OHDh7V48WKVKVNGjzzyiHx9fZ2yjXvvvVf79+9X8eLFNXjwYDVp0kSnTp1SbGys5s+fr379+uk///mPLl++rPDwcKWmpkqSatWqpVKlSikpKUmrV69W1apVHR4fAAAAAAAAAAAAUFAeV2iUpFWrVmnPnj2KjIxUVFSUU7aRlJSk559/XgsWLFB6erokqXz58oqJiVH//v0VGRlp6fvDDz/ohRdeUGpqqkqXLq1nnnlGb775pkJCQpwSGzzTjh079Pvvv+vll182OxQUISkpKVqyZIkOHDggPz8/1ahRQ9HR0QoICDA7NMBtXL58WStXrlR8fLxSUlIUHh6u6tWrq0WLFvLy8jI7PCBHf/31l2bOnClJql+/vh577DGTI4Inu3DhguW31a0UK1ZMQUFBTo4IyJ+jR48qLi5Oqamp6tGjh9nhoIg4f/68MjMz8zWW409wln379mnjxo1KSkrSxYsXFRwcrPDwcLVu3VrlypUzOzxAmzZt0u7du3X06FEFBAQoMjJSrVq14rhWIZTfY98ZGRlasmSJdu7cKT8/PzVu3FitW7d2UpRFl0cWGjMyMjRz5kxduHBBnTp1UlhYmNO2lZaWpqSkJAUFBeX4QzcrK0tJSUkKDQ3loCMcJisrSwsWLNDo0aMVGxurihUr6sSJE2aHhSLi448/1nvvvaeLFy9atVeoUEGDBg3S4MGDVaJECZOiA8yXkZGhL7/8UiNHjlRycrLN8rp16+rdd99Vt27dTIgOuLVz587pzjvv1OHDhyVJ3bt31/Tp002OCp7stttuU2JiYq76vvzyy/r000+dHBGQO1evXtXChQs1depULV26VMnJyWrSpImee+45/fOf/zQ7PBQBhmGoTJkydvc5b6VJkybatGmTE6KCpzIMQ5MmTdInn3yi+Ph4ValSRQ8++KDOnTun2NhYnT9/Xt7e3urRo4c++eQTVa5c2eyQ4YFmzZqlESNGaNeuXWrSpInat2+vZcuWadOmTSpbtqxeeuklDR061CmzIcJxCnrse9q0aRo8eLD+/vtv9enTRwkJCVq0aJHq1aunb7/9Vs2bN3di9EWLRxYaJenUqVOaO3euSpQooe7du6t48eJmhwQ4zIULF/Tdd99p7NixOnDggKWdQiMcITMzUy+88IImTpyYY7+WLVvq999/V8mSJV0UGeA+Dh8+rE6dOmnnzp059vP29ta8efPUsWNHF0UG5I5hGOrUqZN+++03SxuFRpgpLi7OalaYW9mwYYOaNWvmxIiAW/v777/17rvv6ttvv1VycrL8/f31yiuvaODAgQoNDTU7PBQh+/fvV82aNfM19tNPP2XmIzjM1atXFRMTo4ULF0qS2rZtq3nz5qlUqVKSpMTERLVs2dJyIltoaKi2bt3q1ItAgJu9+eabev/99yVdu41ZXFyc/Pz8JEkdO3a0/AZq2bKlFixYoNKlS5sWK+xzxLHvIUOG6L///a8kady4cerXr58kqUePHpoxY4Z8fX31ww8/MKtPLnmbHYBZQkNDdccddyg1NVVr1641OxzAIfbt26dBgwapcuXKGjx4sNUXLeAoTz/99C2LjJK0bt06DRkyxAURAe7l+PHjateunTIyMvTyyy9rzJgxGjhwoCpUqGDTNysriysZ4Jbef/99qyIjYLZFixblum9ERARFRpgqKytLo0ePVo0aNfT5558rOTlZXbp00a5du/Tee+9RZITDbd26NV/jvLy89Oijjzo4GniyAQMGWIqMkjR69GhLkVGSwsLCLAUe6dqFIC+++KJLY4Rn++6776xysFu3bpYioyT179/f8njdunV6/PHHlZWV5dIYkT1HHfseNWqUpchYsmRJPfHEE5Zlw4cPl3RtlqrevXtr9erVBQ/cA3hsoVGS7rrrLpUvX1779++nIINCb+jQoXrwwQeVlZWlwYMHKzAw0OyQUAQtWLBAU6dOVUBAgLp27aoBAwaoc+fO2V4VPnHiRJ07d87FUQLmycrKUpcuXdSxY0dt375dn376qQYOHKgxY8ZYpmS52fHjx3X8+HETogXsW7ZsmUaOHGl2GICVvBQae/bs6cRIgJxdvHhRnTt31uDBgy37wa+99prmzJmj22+/3eToUFRt2bIlX+PatGnDtJVwmISEBH377bdWbXXq1LHp16lTJ6vnc+bM0cmTJ50aGyBdu5ftq6++atVWrVo1q+dRUVFWzxctWqQff/zR6bHh1hx17PvgwYMaNmyY5Xnz5s2tToho1KiR5VZQaWlp6tu3b67vE+/JPHqSYW9vb0VHR2vWrFlavXq1QkNDKc6g0Orfv78+/PBDyz0+U1NT9dlnn5kcFYqSK1euaMCAAWrdurWmTZumSpUqWZYdOXJE0dHRSkhIsBqTnp6uJUuWcMAPHmPcuHGqXr26xo4da7MsJCREn3/+ud2bih88eFC33XabK0IEcnTy5En16tVL1atX1759+8wOB5AkpaSkaM2aNRo4cKCqV69+y/5dunRxQVSArRMnTuiBBx5QXFycpe3xxx/Xxx9/bGJU8ATXr2j08fFRnTp1FBAQkG3f/fv36/z585Ku5SfgKH/88YfNlV979+5Vw4YNrdpKly6tkiVLKjU11dK2e/duVaxY0SVxwnNNmjTJ5mT4m78vy5UrZ5Of7733np588kl5e3v0NVumc9Sx7xEjRujy5cuW51WqVLFa7uXlpWrVqmnHjh2SpPj4eE2YMIGrr2/BowuN0rX/3Jo1a6Z169Zp5cqVNmfVAIVFeHi41fPcHIQB8uLnn3+Wt7e3Fi9ebLMjFh4ertjYWNWtW1dXrlyxWnbkyBFXhgmYKiYmRr169cp2ebNmzeTr66uMjAyr9oiICCdHBtxaZmamevXqpdq1a6tbt24aNGiQ2SEBkqTly5fLMAx98MEHnBgKt3X16lU98sgjVkXGKlWqaPz48SZGBU+xdetWRUVFafbs2TkWa7KyshQeHq7z58/L19dX3bt3d2GUKOr++usvm7bRo0frm2++sWm/+fdQrVq1nBYXcN2sWbNs2uwVD0NDQ61OpN+3b5+2bdumxo0bOzU+5MwRx77//vtvzZw506rN3v+bISEhVs8nTpxIofEWKMNLatCggapUqaLjx49bKtVAYVeyZEmzQ0ARs2PHDk2cODHbs2MjIiIUExNj056SkuLs0AC3UalSJZUpUybb5WlpaTZtTZo0YcoquIW3335bW7du1ZQpU+Tj42N2OIDFokWL1LJlS4qMcGsvvviiNmzYYNX25ptvWk3FBTjDwYMHlZGRofnz59/yirClS5dapuy///77bQ6kAgURHBxs0zZp0iR9/fXXVm1Hjx7V1atXLc8jIyOZ3QVOl5mZaXea6Rtz8Tp7+5zLli1zSlzIv/wc+545c6bNBRL+/v42/W7OgW3btlmdTAZbhf6KxtTUVCUkJGjfvn0KCwuzmUdZkrZv366NGzfqzjvv1J133ml3PW3atNGMGTO0YcMGhYWFqWzZss4OHQAKlU8//fSWfaKjozV16lSrtpvPOAI82fr1663O3q1SpYrdM3wBV1u+fLk++OADTZkyRVWrVjU7HMDKokWL5OPjo+eff15lypRR1apVVaNGDTVv3lxBQUFmhwdo/fr1mjRpklVb+fLl9cwzz5gTEDzKoUOH1L9//1wVDSdPnmx5zLSpcLTsrvYaMGCAvLy89Pzzz0uyzsMyZcpo+vTpLokPni0lJcVuUfHSpUs2bdfvz3ej61NUo3Bbt26dTZu9k2z9/Pxs2tasWWMzFTT+T6EsNE6dOlXjx4/X/v37lZiYaGmvVauWdu/ebbnkOT09XQMGDNDEiRNlGIZ8fX21aNEitW/f3madJUuWVJs2bbRkyRKtWLFCXbt2Zd5lAMij4sWL27TZ+84FPNGVK1f073//2/K8devWmjlzpsqXL29iVIB09uxZPfXUU+rRo4eeeOIJs8MBrOzbt88yddXN9w319fXV3XffrUGDBqlz5878foNp3njjDZu2zp072z1IBThadHS0oqOjb9nvwoULmj17tqRr9yTjfrZwtPvuu0/16tXTrl27rNozMzPVr18/LVq0SIMGDdIHH3wgSXrggQf0xRdfqEaNGmaECw8TFBQkHx8fZWZmWrXbKzTaKzydOXPGabHBdTZu3GjTZu83hL0c2Lx5s1NiKioK5S+xevXq6dVXX7WcCXPd3r179dtvv0m6Nu/8008/rQkTJsgwDEnX5v/+9ttvs13v7bffrho1aujMmTN2L6UGAOTs4MGDVs/bt2/PvecASQcOHFDnzp21Zs0aS1tcXJymTJlidzpVwJX69OkjLy8vjRs3zuxQABuLFi3KdllGRoZWrFihRx55RFFRUTpw4IALIwOuiYuL08qVK23aT506pWbNmqlUqVLy9/dX3bp11bNnT8XGxpoQJSBNnz5dly9fliQ99NBDTOsLhytWrJi++uor+frav65lzpw5io6OVnh4uDZs2KBFixZRZITLeHl5KSwszKb90KFDNm32ikxnz551RlhwsZtPXMyL3bt3OzCSoqdQFhrvuOMOPfzww3rrrbfUrVs3q2XXf4i++eab+t///mdzdU12U6ded/fddyswMFB//fWXTpw44djAAaCIW7hwoeWxj4+PPv74YxOjAcy3efNm9erVS3Xr1tWSJUuslp0/f16vvvqqevToYXNWJeAqX331lebOnavJkyfneH9RwCw5FRpvtGnTJrVs2dLuwSLAmebNm2e3/cyZM6pVq5bCwsJ09epV7dmzR7/88ovuvfde9e3bV1lZWS6OFJ6OaVPhCm3bttW0adNyvKI7Pj5en3zyif7++28XRgZI7dq1s2n766+/bNouXrzoinDgYpcvXy7Qid58Z+WsUBYab/TII49YPV+3bp0WL16sjz76SMOHD1dycrI2btyo4cOHa8KECXrppZdyXJ+fn5/atm0rSVqxYoXS09OdFjsAFCW7d+/Whg0bLM9HjBhxy5M7gKIuLS1NycnJOR5MnDt3roYMGeLCqIBr9u/fr9dee02vvPKK3R/dgNmuXr2qFStW5Lp/UlKSHnnkEQo4cKmbTySSpDp16mj9+vX68ccftWvXLrVq1cpq+TfffGN3ulXAWRISEiwzawQFBaljx44mR4SiLCYmRkuXLlX16tWz7TN9+nQ1adJEx48fd2Fk8HS9e/e2afvzzz+VlJRk1WZvmtRKlSo5LS64xvnz5ws0nkJjzgp9oTEqKsrq+fbt2/XUU0/pH//4h9577z0VL15cTZs21Xvvvae+ffvm6r4dt912mxo0aKCLFy9q/fr1zgodAIqUt956y/K4W7duVs8BT9WyZUstWLBAhw8f1nPPPZftfshXX31l8+MGcCbDMPSPf/xDNWrU0HvvvWd2OIBdhmFozpw5+v777/Xhhx9q4MCBatOmjQIDA7Md89dff+nXX391YZTwdEeOHLFpq1q1quWxj4+PvvjiC5s+n3/+OdP9wmWmTJliua1QTEyMzexfgKO1bt1aEydOVHBwcLZ9EhIS1L59e34HwWWio6P16KOPWrVdunRJgwYNUkZGhqRrJwsnJibajL3x/3YUTgW9oIzb3uSs0Bcaq1WrZvWfVkZGhgIDAzV69OgCrbdZs2YqW7as9uzZY3PPMQCAteXLl2vmzJmSpA4dOmjq1Kny8vIyOSrAfdx2222aOHGi/vrrL9WqVctm+ZUrVzR9+nQTIoOnGjNmjDZt2qSffvqJg41wW/7+/rrvvvvUu3dvDR06VGPGjNHKlSt17tw5zZs3z2Z2m+smTJjg4kjhyezdciUkJMTq+R133KFy5cpZtaWnp+uXX35xamyAdO2kjR9++MHynGlT4Wxbt25VkyZN1K5dO4WEhOj7779X6dKl7faNj4/Xq6++6uII4ckmT56srl27WrX973//U8WKFfXwww+rYcOGdm9tcv/997sqRDhJTic+5EZ232O4ptAXGr28vNS4cWOrtj59+qhkyZIFWq+Pj4+io6Pl7e2t1atX69KlSwVaHwAUVSkpKerTp48Mw1DXrl01e/bsHO/HAHiyhg0bavHixXanXYmPjzchIniigwcPatiwYRoyZIgqVaqks2fP2vylpKTYjLt69arOnj2rc+fOmRA18H+KFSumhx56SLNmzdLatWtVuXJlq+W7du0yKTJ4InuzFdi76vaOO+6waVu2bJlTYgJutHr1aiUkJEiSKlSooPbt25scEYqyH3/8Uc2bN9eWLVskSZ988ol69+6t7du3Z3trlR9//NHuffIAZ/D399fs2bM1b948Pfroo2rYsKHKli2r0qVLy9/fX3Xr1rU75t577zUhWjhSUFBQrma7zE7ZsmUdGE3RU+gLjZJsCo07duxwyHpDQkLUpEkTXblyRatXr3bIOgGgKDEMQ88++6wOHjyoJ554QtOnT+fKGOAWIiIitGDBApurfpOTk02KCJ5m69atunTpkv7973+rXLlydv+GDh1qM27evHkqV66cateubULUgH0tW7bUA6C+yAAAIABJREFU+vXrFR4ebmk7evQoUxvBZW6+elGSZYrKG9mbcs3e1GyAo02ePNnyuEePHvLx8TExGhRlu3bt0vPPP2+ZgrJx48aW2QeqVKmilStX2r0vuGEYmj17tktjBR566CFNmzZN27dv19mzZ7V//35Nnz5dZ8+etenbt29flShRwoQo4UheXl52Z5jKrfr16zswmqKnSBQabz4jZtOmTQ5bd6NGjVSpUiUdPnxYe/bscdh6AaAoeO+99zRjxgz17dtXU6ZMka+vr00fwzD00UcfmRAd4L4aN25sczb5bbfdZlI0AFC4Va5cWePGjbM8L1asmIoVK2ZiRPAkN0+JKsnulGsBAQE2bX///bdTYgKuu3z5stX0/EybCmcaNWqU1YxwnTp1sloeGBioqVOn2j1BIy4uzunxAbdy8OBBrV271qqtZMmSGj58uEkRwdHsXVmdlZVl02bvpMVGjRo5JaaiokgUGm++J8KBAwcctsPu5eWle+65R35+flq3bh1XGwDA/zdnzhyNHDlSL730kiZMmJDt9ANz587VtGnTXBwd4P6ioqJyfA4AyL2OHTuqQoUKkqTq1atzr2i4zF133WXTdvnyZZs2e1dCXM9ZwFlmzZqlixcvSpLCw8PVsmVLkyNCUXZ9utTrqlWrZtMnNDRUgwYNsmm3d79bwNXef/99m1kJPvroI4WGhpoUERwtOjrapu36Vdg3unDhgk3bgw8+6JSYiopCX2g8cuSI3nnnHZv2zZs3O2wbpUqVUosWLZSRkaEVK1bYnQYFADxJXFycnnrqKb355pv67LPPsu23efNm9evXT82bN3dhdEDhcOPBxdKlS+uBBx4wMRp4khIlSigiIiLHP3s3ur8+rkqVKiZEDdxa9erVJUkPP/ywyZHAk9ibBtDewSl/f3+btmbNmjklJuC6G6dNfeyxxzgJA061e/duq+clS5a028/e8QEKOTBbXFyc1XemJPXu3VsDBgwwKSI4Q0xMjM3MJzdeiX3dzftyderUUb169ZwaW2FX6AuN/fv3V61atWyq0TdPn7pr164Cbad27dqqVq2aTp06xQ2KUSjYu+ybIjkc4ciRI+rYsaOysrK0fv163XfffVZ/9957r1q3bq0qVaqoadOmOnnyJAdR4DF+/vlnPfjgg+rRo4d+/fXXHPsePnzY8vitt97i/qZwmQ4dOujgwYM5/r366qs24zp27KiDBw9q69atJkQNTzRx4kSFh4erTp06Gjx4sE6ePJlt36ysLO3cuVP+/v564YUXXBglPF2HDh0UFBRk1ZaUlGTTz97Z8t27d3daXMDx48cVGxtrec60qXC28uXLWz0/deqU3X72Tlpr06aNU2ICcuPSpUt67LHHrP6v7ty5s77++msTo8Kt5OfYd9myZdWzZ0+rNnv7befOnbN6Pnjw4HxE6FkKTaHRMAx9/fXXevHFFzV37lylpaXpww8/1MKFC/Xll1+qRYsWVv2XLFliefz+++/rtddeK3AMd999t0qUKKEtW7bYTUDAnaSmpuaqDciLM2fO6P7779exY8d06dIlLV261OYvNjZWa9as0bFjxyzjuKIRnmDdunXq1auXFi9erBkzZqhr167q16+f3bn9JWnDhg2Sru1fDBw40JWhAoDbO3XqlPr376+jR48qPj5eo0ePVt26dTVx4kS7/f/3v//pwoULGjFihCIiIlwbLDxacHCw/vWvf1m1JSQk2PS7+Wz5xo0b67777nNqbPBsP/zwg+UgbJ06dXTHHXeYHBGKug4dOlg9z+5CjRuPFUjXZs147LHHnBYXkJNLly6pS5cuVhcpvfLKK5o9e7bd2QjgPvJ77Pvdd9+Vn5+f5fmOHTuslmdkZFh9T0VEROjZZ58tQKSeodAUGr/55hu98MIL+uqrr9SlSxcFBQVp2LBhGjhwoFq0aKGOHTta9V+1apU+++wzDR8+XOPHj9ekSZMKHIO/v7/uueceZWVlacWKFXbPSATcxfUD2DdKSUnR0aNHTYgGRUFKSoo6dOig+Pj4PI0rVaqU6tat66SoAPdh7/t1/Pjx6tChg820Gz/99JPWrFmjRo0aae7cufL19XVVmABQKKSnp9v83jp//rz++c9/qn379lq1apUyMjJ05coVjRs3Ts8995yef/55DRs2zKSI4cneeOMNqyLO2bNntW/fPqs+Bw4csDz28/PTV199xTSWcKopU6ZYHnM1I1xhxIgRqly5suX5L7/8ouTkZJt+CxcutHr+7rvvKiwszOnxATfbvXu3WrduraVLl0qSatasqV9//VWffPKJvL0LTdnEY+X32HdERIQ++eQTy/OdO3fqypUrlud//vmn5XeIr6+vfvzxR6vCJOwrNJ+Ym++5ePXqVdWtW1cffPCBJKlVq1ZWN2HPysrSK6+8oi+++EJz585VxYoVHRJH5cqVVbduXZ0/f14bN250yDoBR0pNTdX48eM1bdo0u8v79u2r/fv3uzgqFHZpaWnq2rVrvu5/27RpU3bQ4BHuu+8+m6nTJGnZsmVq2rSpJk6cqJ9++kn/+Mc/9PTTT6tPnz5av369ypQpY0K0AODeKleubHMy6XXLli1T27ZtVbp0aQUGBmro0KEaM2YM01vBNCVKlNDcuXPVoEEDS9uYMWMsj48fP67ly5dLunYC8+TJkxUVFeXyOOE5Nm7caHW/PAqNcIXbbrtNv/32m+Ve3ykpKYqJibG6onvx4sUaO3asJKl48eJ699139fLLL5sSLzzXrl27NGDAADVu3Fhbt25VRESERo0apZ07d6pz585mh4dbcMSx74EDB1qmQ7169apGjRplWTZ+/HhJ14qMEydOVKtWrRwUedFWaI789uzZ0+ps/zp16mjx4sVWNxYePXq0AgMDLc/r1q2rjRs3Onx6iBYtWig4OFg7duzg6jC4jTfeeENhYWEKCgpSv379lJ6ebrff4sWLVbNmTZUrV44fG8i1n3/+2er+HnnBtKnwFGXLltXatWvVuHFjm2V79+7VP//5T/Xr10+XL1/W1q1b9c033yggIMCESAGgcJg9e7Zef/11hYaG2iwrVqyYGjVqpI8++khHjx7Vc889Z0KEwP+pUqWKNmzYoNdff11BQUH64osv1KpVK/Xv318tW7ZUamqq7rvvPq1bt44pAuF0N17NeNddd6lmzZomRgNP0qBBA8XHx+v1119XqVKltGzZMpUrV07t27dXs2bN9OCDD8owDD311FPau3ev3nzzTbNDhgcZOnSobr/9djVo0EALFy7Uc889p7Vr1yohIUGDBg1SsWLFzA4ROXD0se/PP/9cU6ZMUZUqVTRixAh16dJFXbp00aRJk3THHXfo999/1zPPPOOkV1P0eBm3ukOmG9m2bZvWrFmjSpUq6eGHH7b74T9w4IBiY2NVr149tWjRQj4+Pk6J5fTp0/r111/l7++v7t27M2czAACw2L17t7Zs2aITJ07Iy8tLFSpUUPXq1dWsWTN+vABAHmVkZOjQoUNKTEyUj4+PQkJCFB4erhIlSpgdGmDXpUuXtHbtWu3bt09ZWVkKDw9XZGQk9w8F4FFSU1O1e/duHThwQMePH1epUqVUpUoVRUVFWa56BFzp559/VkREhBo0aKBSpUqZHQ7cREZGhlatWqX4+Hj5+/urXr16XDSRD4Wq0OhuNm/erK1bt+r222/nJu4AAAAAAAAAAADwKIVm6lR3dOedd6pChQo6ePAg97wDAAAAAAAAAACAR6HQWADe3t5q166dihUrpjVr1iglJcXskAAAAAAAAAAAAACXoNBYQEFBQWrWrJnS0tK0bNkyMRMtAAAAAAAAAAAAPAGFRgeoX7++wsPDdfLkScXFxZkdDgAAAAAAAAAAAOB0FBodpE2bNvL399emTZt07tw5s8MBAAAAAAAAAAAAnIpCo4OUKFFCbdq0UWZmpmJjY5WZmWl2SAAAAAAAAAAAAIDTUGh0oIiICNWsWVN///23tmzZYnY4AAAAAAAAAAAAgNNQaHSwVq1aKTAwUNu2bVNiYqLZ4QAAAAAAAAAAAABOQaHRwfz8/NSuXTtJ0sqVK5WWlmZyRAAAAAAAAAAAAIDjUWh0gooVK6phw4a6ePGi1q9fb3Y4AAAAAAAAAAAAgMNRaHSSpk2bKiQkRPHx8UpISDA7HAAAAAAAAAAAAMChKDQ6iY+Pj9q1aycfHx+tWbNGly5dMjskAAAAAAAAAAAAwGEoNDpRmTJl1KRJE125ckUrVqwwOxwAAAAAAAAAAADAYSg0OllkZKTCwsJ07Ngx7dq1y+xwAAAAAAAAAAAAAIeg0OhkXl5eio6OVvHixfXHH3/o/PnzZocEAAAAAAAAAAAAFBiFRhcoWbKkWrRooYyMDC1btkxZWVlmhwQAAAAAAAAAAAAUCIVGF6lVq5aqVaumM2fO6M8//zQ7HAAAAAAAAAAAAKBAKDS6UOvWrVWyZEn9+eefSkpKMjscAAAAAAAAAAAAIN8oNLpQ8eLF1bZtW2VlZWnZsmVKT083OyQAAAAAAAAAAAAgXyg0uljlypVVv359XbhwQRs2bDA7HAAAAAAAAAAAACBffM0O4EaZmZm6ePGi2WE4XZ06dXT06FHt2rVLISEhqlSpktkhAQAAAAAAAAAAoBDz9vZWUFCQS7fpZRiG4dIt5uDcuXOaMWOG2WEAAAAAAAAAAAAAhUpwcLB69uzp0m261RWNxYsXV61atcwOwyVSU1N14sQJhYSEqEyZMmaHAwAAAAAAAAAAgEKsRIkSLt+mW13R6EkSEhK0dOlSRUVFKTIy0uxwAAAAAAAAAAAAgDzxNjsAAAAAAAAAAAAAAIUPhUYAAAAAAAAAAAAAeUahEQAAAAAAAAAAAECeUWgEAAAAAAAAAAAAkGcUGgEAAAAAAAAAAADkGYVGAAAAAAAAAAAAAHlGoREAAAAAAAAAAABAnlFoBAAAAAAAAAAAAJBnFBoBAAAAAAAAAAAA5BmFRgAAAAAAAAAAAAB5RqERAAAAAAAAAAAAQJ5RaAQAAAAAAAAAAACQZxQaAQAAAAAAAAAAAOQZhUYAAAAAAAAAAAAAeUahEQAAAAAAAAAAAECe+ZodgKvFxsbq2LFj6t27t9mhwA0cOXJEM2fO1O7du2UYhurVq6dHHnlEERERTtleRkaGVq5cqfnz5yshIUFlypTR4MGDdccdd9jtv379es2bN0+HDx9WQECAIiMj9dhjj6lChQq52t6KFSu0evVq7du3T+XLl1ejRo0UExOjwMBAR74s5MAVOebo9zmveWrPkCFDlJycrPHjx+crBngeZ39WCrr+uLg4LV68WHv27JG3t7dq166tVq1aKSoqyiXbh/tw91y9UV73ezMzM7VkyRItWbJEiYmJKl26tJo1a6bu3burVKlSed4+zOPueeqM+Nj3KFzcPUcdHSPHIdyXu+ei2ePhGuQh3B05CnIAt2R4iOXLlxutW7c2JBn9+vUzOxzjwIEDxvjx441t27aZHYrHGjFihFG8eHHjkUceMRYsWGD89ttvRvfu3Q0/Pz9j6NChRlZWlsO2lZycbAwbNswoW7asUa1aNWP06NHG+fPns+1/+vRp45577jEk2fyFhoYay5cvz3F7O3fuNNq3b293fOXKlY05c+Y47LUhe87OMUe/z3nN0+xMmjTJkGRERETkeSw8k7M/KwVZf2JiohETE2OUK1fO+OCDD4zffvvNmDp1qvH0008bkoyuXbsaJ0+eNPX1wXXcOVdvlJ/93pMnTxpt2rQxatasaXz33XfG77//bnz88cdGuXLljHLlyhm//PJLQV4aXMjd89QZ8bHvUbi4e446MkZ3Ow4Ba+6ei2aPh2uQh+ShuyNHyVFygBzIjSJfaFy1apURHR1tdQDeHXbwKTSaa/DgwYYk4/HHH7f6ssjKyjJ69+5tSDL69+/vkG1NmTLFKFeunCHJeOKJJ4yUlJQc+58+fdpo2LCh0ahRI+Pdd9815s+fb0ycONG47777LDlcokQJ48SJE3bH79q1yyhbtqwhyahRo4Zx//33G7Vr17b6DHh7exuxsbEOeX2wz9k55uj3Oa95mp39+/cbgYGBHOxDrjn7s1KQ9Z8/f96IjIw0goODjcOHD9ss//rrrw1JRnR0tJGZmWnK64PruHOuXpff/d6dO3caYWFhRkhIiHHw4EGrZceOHTMqVKhgeHl5Gd98802+Xhtcx93z1Bnxse9RuLh7jjpqHe56HAL/x91z0ezxcA3ykDx0d+QoOUoOkAO5VaQLjRs3bjRmzJhhpKamGl988YVb7eBTaDTP4sWLDUlGQECAkZiYaLP81KlTRsmSJQ1Jxty5c/O9nYyMDOOll14yJBnFixc3xo0bl6tx3bt3N15++WUjLS3NZtmLL75oyePhw4fbLM/MzDTuvPNOo0mTJjYHCjdv3myEh4dbxt92223GxYsX8/XakDNn55gj3+f85ml264qKijJKlSrFwT7kirM/KwVd/3PPPWdIMoYMGWJ3/VlZWZYC/7x581z++uA67p6rhlGw/d7rJzN98MEHdpd///33tzzRCeZz9zx1RnzsexQu7p6jjlqHOx+HwDXunotmj4drkIfkobsjR8lRcoAcyIsiXWi80Z9//ulWO/gUGs1Tv359Q5LRrVu3bPs89thjhiSjVq1a+d5Onz59LDk3efLkXI2Ji4szHn/88WyXX7x40fDz8zMkGZ07d7ZZPmfOHKNGjRpGamqq3fEnTpywXAUnyVi6dGnuXgzyxNk55sj3OT95mp23337buP/++41evXpxsA+54uzPSkHXX758eUOS8eWXX2Y7vmfPnoYkY8SIEQ7fPtyHu+fqzfKy33v9x5UkY8eOHXb7XL582VLIGTBgwC23D3O4e546Iz72PQoXd89RZ8TobschcI2756LZ4+Ea5CF56O7IUXKUHCAH8sJbHqJYsWJmhwA3sG7dOu3cuVOS9MADD2Tbr0OHDpKkvXv3Ki4uLs/b+fTTTzVp0iRJUkxMjJ5++ulcjUtMTNTYsWOzXR4YGKjbb79dklSuXDmb5VOmTNHYsWNVokQJu+MrVqyoF154wfJ806ZNuYoLueeKHHPU+5zfPLVnw4YN+uqrr/Tdd9/J29tj/mtBATj7s+KI9ScnJ0uS/vjjj2zHnz59WpIUHBzs8O3DPRSGXL1ZXvZ7f/jhB0mSl5eX6tSpY7ePv7+/IiMjJUkTJkzQ8ePHc71+uIa756kz4mPfo3Bx9xx1Vowch3A/7p6LZo+Ha5CHOY+H+cjRnMd7AnIg5/GwxS8yeJRffvnF8ji7g2mSVLt2bcvjuXPn5mkbCQkJGjZsmKRrxcDx48fneuz999+vkJCQbJenpaXp0KFDkqRHH33UZnlwcLAefPDBHLfRrl07y+OUlJRcx4bccUWOOeJ9Lkie3iwlJUVPPvmkvvzyS4WFheV7PfAszv6sOGL910/smDt3rg4fPmwzNi0tTdu3b5cktWrVyuHbh3soDLlaEHv27JEklS5dWj4+Ptn2a9CggaRreb906VKHbR+O4e556uj42PcofNw9R10RI9yDu+ei2ePhGuRhzuNhPnI05/GegBzIeTxsUWiER1m9erXlcY0aNbLtd+OyvH6JDB06VGlpaZKkxx9/3O6Vh/m1atUqXb16Vc8884zdsy2+/fbbW66jdOnSlseNGjVyWGy4xhU55oj32ZF5OnjwYLVs2VLdu3fP9zrgeZz9WXHE+q+f0JGcnKwePXro4sWLVsvHjBmjM2fOqFevXoqKinL49uEeCkOuFkR8fLwk6erVqzn2u3H7W7Zscdj24RjunqeOjo99j8LH3XPUFTHCPbh7Lpo9Hq5BHuY8HuYjR3Me7wnIgZzHww6z5251lR07drjVvRG4R6M5ihcvbrnJ660EBwcbkgxvb28jIyMjV+s/fvy44eXlZcm1ZcuWGdu2bTNee+01o3PnzkbPnj2Njz76yNiwYUOeYz979qxRtWpVY9CgQUZ6enqex183Y8YMQ5Lh5eVlHDx4MN/rgX3OzrHcyul9dmSezpo1y4iIiDCSk5MtbU8++ST3ScItOfuz4oj1nz9/3qhevbrlsxIZGWn5PE2fPt0oVqyY0blzZ+PixYsuf31wncKQqzfL7X5vVlaWERAQYOmbkpKSbd9x48ZZ+vXs2fOWscK13D1PHRkf+x6Fk7vnqLNidLfjEHD/XDR7PFyDPMx5PMxHjuY83hOQAzmPhy2uaITHOH/+vOVs/dxcvXW9T1ZWls6cOZOrbcyZM0eGYUi6dj+O8ePHq3379lq+fLni4+P1yy+/aOjQoYqKitJLL72kK1eu5Gq9Gzdu1N13362kpCSVKVNG6enpuRpnz/r16yVJ3bp1U0RERL7XA1uuyLHcyul9dlSenjhxQv369dPkyZMVFBTk0PhRtDn7s+Ko9QcHB+v333+3TMu3fft2RUZG6tFHH1X//v01ZswY/frrrwoMDHTp64PrFJZczS8vLy9Vq1bN8nzt2rXZ9vX19bU8vnz5coG3Dcdx9zx1ZHzsexRO7p6jrogR7sHdc9Hs8XAN8jDn8TAfOZrzeE9ADuQ8HvZRaITHOHnypOVxQEDALfvf2OfUqVO52kZsbKzlcYUKFdSjRw+dPn1amzZt0p49e7R7927VqFFDhmFo1KhRevHFF3Nc38qVK9WrVy+1bNlSu3fv1uXLl/X222+rWbNmOnjwYK5iulFGRoZ+/PFH+fj4aMSIEXkej5y5Isdy41bvsyPy1DAMPfvss3r22WfVpk0bh8UOz+Dsz4oj11+tWjWtXbtWtWrVkiRdvHhR06dPV7169RQTE+P07cNchSlX86t9+/aWx7Nnz862X1ZWluVx+fLlHbJtOIa756mj4mPfo/By9xx1RYxwD+6ei2aPh2uQhzmPh/nI0ZzHewJyIOfxsI9CIzzGhQsXLI+9vLxu2d/Hx8fyODk5OVfbOHbsmOXxf//7X3Xr1s1qee3atfX7779bDtB999132rx5s911paSkaMeOHWrevLleeOEFVaxY0bJsx44deuqppyxXpeXWlClTdOrUKY0cOVKRkZF5Gotbc0WO5cat3mdH5OnYsWN16tQp/fvf/3ZY3PAczv6sOHr9ERERGjZsmFXbypUr1bhxY23bts3p24d5Cluu5scrr7yiYsWKSZImTZpkda+KG61YscLyODQ01CHbhmO4e546Kj72PQovd89RV8QI9+DuuWj2eLgGeZjzeJiPHM15vCcgB3IeD/soNMJj3Hgp9I1n5WcnMzPT7tic3HhGxF133WW3z+23365nn31W0rUzs7/88ku7/QIDA/Xiiy9q0KBBGjt2rI4dO6b//Oc/li+3tWvXaurUqbmKS5LOnTun119/Xffee6+GDx+e63HIPVfk2K3k5n0uaJ7u2rVLI0eO1I8//ig/Pz+HxA3P4uzPiqPX/84772jgwIFatGiRRo4cafkeTkxMVOvWrW2Kje7wXQDHKGy5mh/h4eH6/PPP5e3trfT0dHXv3l0zZszQhQsXlJSUpDlz5qhVq1ZWBchmzZo5ZNtwDHfPU0fEx75H4ebuOeqKGOEe3D0XzR4P1yAPcx4P85GjOY/3BORAzuNhH4VGeIwbz77Pzb2FLl26ZHdsTm488BEcHJxtvx49elge79mzJ1fr9vHx0ZAhQ/Sf//zH0jZv3rxcjZWkgQMHKiwsTDNnzpS3Nx99Z3BFjt1Kbt7nguRpWlqaevXqpbffflv169d3SMzwPM7+rDhy/QMGDNDbb7+t7777Tg888IDefvttLVu2TJUqVZJ0bSrVhx9+2KqA7w7fBXCMwpSrBfHiiy9q+vTpCgkJUVJSknr06KHg4GCFhobqs88+09ixY9WgQQNJ1/ZH7rnnHodtGwXn7nla0PHsexR+7p6jrogR7sHdc9Hs8XAN8jDn8TAfOZrzeE9ADuQ8Hvb5mh0A4ColS5ZUYGCgUlJSdObMGRmGkePl0adPn5YkFS9eXGXKlMnVNkqXLm15nJ6enm2/hg0bWh7nttB43aBBgzRq1CgdO3ZMR44cydWYjz/+WJs2bdKqVasUFBSUp+0h91yRYznJ7ftckDz9+OOPdezYMfn5+Wn8+PF2x+3du1fStQLMjX0ef/xx8g+SnP9ZcdT6x48fry+//FKtWrWymmK4TZs2+uOPP9SxY0ft3LlTR48e1fDhwzVp0iSXvD64TmHJVUeIiYnRQw89pPXr1+vYsWMKCwtTZGSkQkJCdPLkScv9fR988MEcT1KB67l7nnp5eRVo/Pvvv8++RyHn7jnqihjhHtw9Fwv6fVnQ8XAN8rBgrw/OR44W7PUVBeRAwV6fp+KyJniUO++8U5J05coVJSYmZtsvKSlJFy9elHTtgHJu5muWpGrVqlke5zRnc/HixS0H6TIyMnK17ut8fX3VoUMHScrVPRp//fVXjR8/XrGxsVb3eYRzODvHspOX97kgeXr48GGdPXtW/fv3V79+/ez+bdy4UZJ09uxZq/br/zEDkvM/K45Y/zvvvCPJ+ure68LDwxUbG6uQkBBJ0k8//WT1eTLruwCOVxhy1VH8/PzUtm1bPfHEE4qOjrbk95gxYywnprzxxhsO3y4Kzt3ztCDj2fcoGtw9R10RI9yDu+ei2ePhGuRhwV4fnI8cLdjrKwrIgYK9Pk9EoREepW3btpbH+/fvz7bfjcs6d+6c6/U3bdrU8njfvn059vX395d07V54eVW+fHlJUtWqVXPst3z5cr388sv6/fffVaVKlTxvB3nn7ByzJ6/vc0HyNCoqSk8++WSOfzVr1pR07QylG9sDAwPz+xJRBDn7s1LQ9Z86dUonTpyQJFWvXt3u2NDQUA0bNkySdPXqVat1mfFdAOdw91x1tsOHD2vUqFGSpI4dO6pVq1Yu2zZyz93ztCDj2fcoGtw9R10RI9yDu+ei2ePhGuRhzuNhPnI05/GegBzIeTxsUWim6U+lAAAgAElEQVSER+nVq5fl8c6dO7Ptd+Oyhx9+ONfr79Spk+Xx9TOr7UlPT7ecYd2yZctcr/+6Q4cOSbp2wC87GzZsUJ8+fTR//vxsD5JL0qZNm3Tu3Lk8xwD7nJ1jN8vP+1yQPO3Tp49++OGHHP/at28v6VpB/MZ25jHHjZz9WSno+m+8OjGnm4M3a9bM8jgtLc1h24f7cPdcdabMzEz16dNHly9fVsWKFfXdd9+5ZLvIO3fP04KMZ9+jaHD3HHVFjHAP7p6LZo+Ha5CHOY+H+cjRnMd7AnIg5/GwRaERHqVOnTqWAxELFy7Mtt/8+fMlSa1bt7Z71eC2bdt08uRJm/a6deuqdevWkqSZM2dmO7XpoUOHLAeuX3jhhTy9hrS0NK1atUpVq1ZV9+7d7faJi4tTr169NGvWLNWtWzfbdSUlJen1119nfmkHcnaO3Si/77Mr8hS4FWd/Vgq6/ho1aqhUqVKSct7pvD6dpI+Pj9Xn0FGvD+Zz91x1ppdeekmxsbEqVaqUpk+frgoVKrhku8g7d89Td85zuIa756gjY4R7c/dcNHs8XIM8zHk8zEeO5jzeE5ADOY+HHYaHWLFihSHJkGT07dvX7HCMAwcOGOPHjze2bdtmdigeZ/v27Yavr6/h6+trxMfH2yzft2+f4efnZ3h7extbt261Wpaenm40bdrUkGT4+fkZ3377rc34LVu2GD4+PoYk4/vvv7cbwxtvvGFIMtq3b2/VfubMGWPMmDHGsmXLso1/zJgxRvHixY3ly5fbXb5v3z6jYsWKxuOPP26MGjXK7t/nn39uvPXWW0Z4eLjx4YcfZrst5I+zc+z6OgryPhckT2+lX79+hiQjIiIiT+PgeZz9WSnI+g3DMAYMGGBIMsLDw40rV67YfQ0jR440JBn//Oc/Hb59uA93z9WbFXS/9+rVq0bv3r0NSUaFChWMLVu25HkdcD13z1Nnfiey71E4uHuOOmodN3K34xC4xt1z0ezxcA3ykDx0d+QoOUoOkAN54TGFxusHzCUZLVq0MLKyskyNh0Kjub7//nvD29vbaNOmjXHx4kVLe0pKihEdHW14eXkZEyZMsBkXHx9vySNJRkBAgHH16lWbfhMmTDC8vLwMPz8/Y86cOVbL/vjjDyM4ONioWrWqkZiYaLXs+gFrSUabNm2MTZs2WZalpaUZn3/+uVG7dm0jNjbW7us6evSoUbVqVasYc/orVqyYcfLkyTz92yF3nJljjnqf85unt8LBPuSFs7+P87t+wzCMS5cuGQ0aNDAkGY899piRmppqtXz9+vVGQECAER4ebpw4ccKhrw/ux51z9WYF2e9dvny5cddddxmSjF69euX5/wCYy93z1Fnfiex7FB7unqOOWsd17nYcAv/H3XPR7PFwDfKQPHR35Cg5Sg6QA7lVpAuNx44dM4YOHWp07NjR8PLyskruFi1aGK+++qoxa9YsU2Kj0Gi+efPmGbVq1TJq165tvPnmm8aIESOMunXrGtWrVzdmz55td0xaWprlbIzrf9m9hwsWLDCqV69u+Pj4GNHR0cbw4cONXr16GcHBwUavXr2MM2fO2IzZvHmzUb58eav116xZ02jRooVRu3ZtY8KECUZ6errd7WVkZBi1a9fOdfFJktGjR4/8/wPilpyRY45+n/OTp7fCwT7klbO/j/Oz/utSU1ONIUOGGL6+vkZ4eLjx7LPPGiNHjjRiYmIMPz8/o2fPnsbx48cd/vrgntw5Vwuy35uQkGCMGzfOuPfee40SJUoYvXr1MlavXp23fxy4DXfOU0eMt4d9j8LF3XO0oOtw5+MQsObuuWj2eLgGeQh3R46CHEBueBlGNjfnglMlJCRo6dKlioqKUmRkpNnheKyMjAxt2bJFe/bskWEYqlOnju666y4VK1Ysx3HHjh3T8ePH1aJFC50+fVohISF2+xmGoQ0bNmjnzp1KS0tTlSpV1Lx5c5UvXz7bdaekpGjVqlU6cOCAfH19FRISosjISNWuXVteXl4Fer1wPWfnmCPkJ08BR3P2ZyW/67/u4sWL2rVrl3bu3KmMjAxVqlRJrVq1UtmyZZ36+uB+3D1X8yoxMVFvvfWWateurbp16+qee+5RYGCgU7YF13H3POU7Ee6eo45aB9yfu+ei2ePhGuQh3B05CnIAt0Kh0SQUGgu/X3/9VaNGjdLy5cvNDgVFFDkG5A6fFRQW5CoKA/IU7o4chbsgF+EOyEO4O3IU5IBn8DU7AKAwSkxM1Ouvv6758+ebHQqKKHIMyB0+KygsyFUUBuQp3B05CndBLsIdkIdwd+QoyAHP4W12AEBhs2nTJnXq1Enff/+9atSoYXY4KILIMSB3+KygsCBXURiQp3B35CjcBbkId0Aewt2RoyAHPAtXNAJ55OXlpUWLFik0NNTsUFBEkWNA7vBZQWFBrqIwIE/h7shRuAtyEe6APIS7I0dBDngW7tFoEu7RCAAAAAAAAAAAgMKMqVMBAAAAAAAAAAAA5BmFRgAAAAAAAAAAAAB5RqERAAAAAAAAAAAAQJ5RaAQAAAAAAAAAAACQZxQaAQAAAAAAAAAAAOQZhUYAAAAAAAAAAAAAeUahEQAAAAAAAAAAAECeUWgEAAAAAAAAAAAAkGcUGgEAAAAAAAAAAADkGYVGAAAAAAAAAAAAAHlGoREAAAAAAAAAAABAnlFoBAAAAAAAAAAAAJBnFBoBAAAAAAAAAAAA5BmFRgAAAAAAAAAAAAB5RqERAAAAAAAAAAAAQJ5RaAQ8mGEYZocAF+B9BgAAhQn7LgDgGnzfAgAAR/A1OwBXWLFihVavXq19+/apfPnyatSokWL+H3v3HlVVmf8P/H0AMQvDQhStQVISzaKZLEPJW5Z2GR1RzKQmc9nM17yMVpOaZtDMqkbnogPjNDhjmjb9EUKmNplJKOaomc3yQmpeUQQULQlMuZ3P7w8X+8eRc9/Xc877tdZZa8t+9rOf7XnvZz/sh7PPmDGIiooyu2lkslOnTiE/Px8HDx6EiOCOO+5AWloaEhISNKl///79+PTTT3Ho0CGEhYUhKSkJqampSElJ8au+xsZGbN26FRs2bMDx48dx0003YdasWfjpT3/qtHxZWRlKS0udrvv++++Rl5eHd99916+2kHf0zhig7n1uamrCZ599hs8++wzl5eXo0KED+vXrh/T0dLRv397vNs2ePRvV1dXIzc31uw4KLXqfKzt27MD69etRWlqKdu3aITk5GU8++SQ6derk1fZqxxJq90/WYUS/3qywsBBlZWWYOHGiqnp86ZOZ1eCgd07V1q92jMqcBj6rZ/Ra3vbHp06dwunTp72ut0ePHoiLi/OrTaQNq2fR7P6WjBHsOWxJq/EtGSvYM2rk73iBihkgjySIlZSUyLBhwwRAq9ett94qa9euNa1tx44dk9zcXNm7d69pbQh1CxYskLZt20paWpp8/PHH8sknn0h6erpERkbK3LlzxW63+113eXm5jBkzRjp27ChvvvmmfPLJJ/L+++/LM888IwBk9OjRUllZ6XV91dXVMm/ePLn55pule/fu8te//lUuXrzocbuBAwc6zX/z66233vL7GMkzPTPWkr/vc2VlpQwaNEhuv/12WbFihWzatEkWLVokHTt2lI4dO8oHH3zgV3uWL18uACQhIUHNYVEI0fNcqaqqkiFDhjg9Nzp37ixFRUVut1c7llC7f7IWo/r1oqIipW+fMmWKqrq87ZOZ1eChd061qN/fsQtzGhwCIaPNfO2PH3zwQbfZvvaVn5+v5lBJJatn0cz+lowTCjkU0XZ8S8YK9owa9TteIGMGmAFvBO1E4zfffCM333yzAJDExEQZPny4JCUlOQyowsLCpLCw0JT2caLRXLNmzRIAMmHCBIfOwm63y8SJEwWATJ061a+6L168KMnJyRIdHS2lpaWt1v/jH/8QADJ06FBpamryWN+qVaukY8eOAkCeeuopqa2t9aodO3bscPsLxXXXXSdVVVU+Hx95R8+MteTv+1xSUiJdu3aVmJgYOXHihMO6srIy6dSpk9hsNvnXv/7lU3uOHj0qUVFRnGgkr+l5rlRVVcldd90ld999t/z+97+XDRs2yD//+U95+OGHlXPk+uuvl4qKCqfbqx1LqN0/WYsR/XpxcbEMHTrUIWNqbsR42yczq8FD75xqUb+/YxfmNDgEQkZF/OuPjx8/LmFhYV5PMrZr187r3+1Ie1bPopn9LRknFHKo9fiWjBXsGTXq3l0gYwaYAW8F5URjU1OT3HPPPXLvvfe2uoH+1VdfSXx8vHJxu+WWW6SmpsbwNnKi0Tyffvqp8otdeXl5q/Vnz56VG264QQDIunXrfK7/ueeeEwAye/Zsp+vtdrtyo3r9+vUu62lsbJQXXnhBAEjbtm3l7bff9qkdaWlpMnToUNmwYYPT19dff+1TfeQ9vTPWkr/vc/NNuTfffNPp+pUrV/p8w66xsVFSUlKkffv2nGgkr+h9rqSnp8uLL74o9fX1rdZNmzZNGQvMnz+/1XotxhJq9k/WYkS//uWXX8qaNWvk0qVL8re//U31jRhf+mRmNTjonVOt6vd37MKcBr5Ayai//fHs2bPllltukWXLlsmePXvk6NGjTl/N4+zRo0f7fIykDatn0ez+lowRCjnUenxLxgr2jBp57y5QMQPMgC+CcqJx7dq1kpiYKJcuXXK6vqKiQvmEAgDZvHmzwS3kRKOZ+vTpIwBk7NixLss8+eSTAkB69uzpc/2xsbECQJYuXeqyzPjx4wWALFiwwGWZyZMnKxl99913fWrD4cOHJSwsTHbu3OnTdqQNvTPWzN/3uflCCkAOHDjgtMzly5eVm9PTp0/3qt6srCwZPny4ZGRkcKKRvKLnubJ//36ZMGGCy/U1NTUSGRkpAGTUqFGt1qsdS6jdP1mLUf16s//973+qb8R42yczq8FD75xqUb+/YxfmNDgEQkav5W1/fOXKFenVq5ccO3bMY53NE+OrV6/2qg2kPatn0cz+lowTCjlsSYvxLRkr2DNq9O94gYgZYAZ8EYYgtGrVKuTk5OD66693uj4uLg7PP/+88u/du3cb1TQy2X//+1+UlJQAAEaMGOGy3KOPPgoA+Pbbb7F//36f9lFdXQ0A2Llzp8syVVVVAIDo6Gin6//85z9j+fLlAIAxY8bgmWee8akNf/rTnzBixAjcf//9Pm1H6hmRsWb+vs+rV68GANhsNvTq1ctpmeuuuw7JyckAgGXLluHMmTNu69y1axf+/ve/Y8WKFQgLC8pLC2lM73OlvLwcOTk5LtdHRUXhtttuAwB07Nix1Xq1Ywm1+yfrMLJfb9amTRtV2/vSJzOrwUHvnGpVv79jF+Y08AVKRq/lbX988uRJLFy4EN27d3dbzm63o6CgAJGRkRg5cqRXdZO2rJ5Fs/tbMkao5LAlteNbMlawZ9SM3/ECDTPgfntqLSjvBkdHR+ORRx5xW+bBBx9Ulmtra/VuElnEBx98oCy7mmABgKSkJGV53bp1Pu2j+SbHunXrUFpa2mp9fX099u3bBwBITU1ttf748eOYN28egKs3SnJzc33af2VlJVatWoUvvvgCjz76KN544w0UFxfjypUrPtVD/jEiY4C69/nQoUMAgA4dOiA8PNxluTvvvBPA1cxu3rzZZbna2lo8/fTTWLp0Kbp27erjkVCo0vtcGT58OGJiYlyur6+vx8mTJwEATzzxRKv1ascSavdP1mFUv64VX/tkZjU46J1TLepXM3ZhTgNfIGRUjaSkJIwaNcpjuS+++AIVFRUYNmyYyz86JX1ZPYtm97dkjFDIIQW2YM8oM+4ZM+B+e2otKCca33nnHY9lOnTooCzffffdejaHLGTbtm3KcmJiostyLdf52ok039yorq7GuHHjUFNT47A+Ozsb58+fR0ZGBlJSUlptP3fuXNTX1wMAJkyY4PNfZWdnZ6Ourg41NTXYuHEjXn31VQwePBhxcXHIzMzExYsXfaqPfGNExgB17/Phw4cBAHV1dW730bKNe/bscVlu1qxZGDBgANLT0308CgplRp0rrhQXF6Ourg7PPvus079e03ss4Wn/ZB1mZ9VXWvfJzGpg0DunWtSv5xiVObW+QMioEfLy8gAAY8eONXzfdJXVs2j1/pa0EQo5pMAW7Bllxj1jBtxvT06Y/exWs6xZs0YAiM1mkxMnThi+f35Hoznatm2rfMmrJ9HR0QJAwsLCpLGx0et9XLx4UXr06KE8ez45OVnJWF5enrRp00ZGjRolNTU1rbY9c+aM2Gw2ZdvPP/9c9u7dKy+//LKMGjVKxo8fL3/4wx9k165dLveflpamfLees1ePHj3kyJEjXh8P+caIjIn4/z7b7XZp166dUq62ttblPt5++22l3Pjx452WKSgokISEBKmurlZ+9vTTT/M7Gskjo84VZy5cuCDdunWTmTNnSkNDg9/1+DuW0Gr/ZAwzsnrgwAG/vsNG6z6ZWQ0ceudUi/r1GqMyp4EhEDLqjL/9sTNNTU3SpUsXCQ8Pl6qqKlV1kf+snkUr97eknVDI4bW07E9Jf8GeUTPvRwQKZsD99tRaUH6i0Rs7duwAcPUvCRMSEsxtDBni4sWLyie4vPmUYHMZu92O8+fPe72f6OhobNq0SXlc2b59+5CcnIwnnngCU6dORXZ2Nj766CNERUW12nbt2rUQEQBXn1+fm5uLYcOGoaioCIcPH8YHH3yAuXPnIiUlBS+88ILTR58UFBTghx9+wLlz57Bu3TqMHTsWkZGRyvpjx45hwIAByuOlSDtGZQzw/3222WwO3x2zfft2l/uIiIhQli9fvtxqfUVFBaZMmYJ3330XN954o0/tp9Bm5LlyrS+//BIPPPAAzp07h5tuugkNDQ1+1+XPWELL/ZP+zMyqr7Tuk5nVwKF3TrWqX48xKnMaGAIlo3prfmzq4MGD+V2iJrF6Fq3c35J2QiWHFLiCPaPMuGfMgPvtybmQnGhsbGzEe++9h/DwcCxYsMDs5pBBKisrleV27dp5LN+yzNmzZ33aV/fu3bF9+3b07NkTAFBTU4O8vDzccccdGDNmjMvtCgsLleVOnTph3LhxqKqqwu7du3Ho0CEcPHgQiYmJEBEsWbIE06ZNc1lXbGwsRo4ciTVr1qC8vBwvv/wywsKunvJVVVV45plnfDom8szIjDXz530eNmyYsvzhhx+6rNtutzvspyURwaRJkzBp0iQMGjTIr7ZT6DLjXNm6dSsyMjIwYMAAHDx4EJcvX0ZWVhb69euHEydO+Fyfr2MJrfdPxjAjq/7Qsk9mVgOP3jnVun4txqjMaWAJtIzqhY9NNZ/Vs2jF/pa0F2o5pMAT7Bllxj1jBtxvT86F5ETjqlWrcPbsWWRmZiI5Odns5pBBfvjhB2XZZrN5LB8eHq4sV1dX+7y/hIQEzJs3z+FnW7duxc9+9jPs3bvX6TZlZWXK8h//+MdWv4QmJSVh06ZNyqTPihUr8NVXX3lsS0xMDBYtWoSCggLluLZt24atW7f6dEzkntEZu5a37/NLL72ENm3aAACWL1/u8FzylrZs2aIsd+7c2WFdTk4Ozp49i9/97neq202hx+hzpba2FgcOHMD999+P559/HnFxccq6AwcO4Je//KXyaXJv+TKW0GP/ZAyz+3VvadUnM6uBSe+c6lm/P2NU5jTwBHJGtWK325Gfnw+bzYa0tDRD9kmtWT2LVutvSR+hnEMKDMGeUWbcM2bA/fbkXMhNNH733XeYM2cOHnroIcyfP9/s5pCBWn4UuuUntVxpampyuq23Xn/9dcyYMQMbN25EZmam0imVl5dj4MCBTicbW/5FRd++fZ3We9ttt2HSpEkArn6CYenSpV636Re/+IXDTciWE0mkntEZc8XT+xwfH4/FixcjLCwMDQ0NSE9Px5o1a5TH66xduxapqakOE5D9+vVTlr/55htkZmbivffec3gED5G3jD5XoqKiMG3aNMycORM5OTkoKyvDwoULlX55+/bteP/9972uz9exhNb7J+NYpV93R8s+mVkNTHrn1IjzwJcxKnMaeIIho2pt374dFRUVGDBgALp06WLIPqk1q2fRav0t6YM5JKsL9owy454xA+63J+dCbqJxxowZ6Nq1K/Lz85VHRlBoaPmJLGffN3etH3/80em23pg+fTqysrKwYsUKjBgxAllZWfj888+VXypramowcuRIh4lFAA43CKOjo13WP27cOGX50KFDPrXtN7/5DW666SYAwKlTp3zaltwzMmOeeHqfp02bhry8PMTExODcuXMYN24coqOj0blzZ/zlL39BTk4O7rzzTgBX/3JnyJAhAID6+npkZGQgKysLffr00bTNFDrMPlfCw8Mxe/ZsLFy4UPnZ+vXrvd5e7VhC7f7JOGZn1RO9+2RmNTDonVOjzgN/x6jMqfUFS0bV4GNTrcHqWbR6f0vaYA7J6oI9o8y4Z8yA++3JuQizG2CkRYsWYffu3SguLsaNN95odnPIYDfccAOioqJQW1uL8+fPQ0Tcfjy6qqoKANC2bVtlEO6N3NxcLF26FKmpqQ6/SA4aNAg7d+7EY489hpKSEpw+fRrz58/H8uXLlTIdOnRQlhsaGlzu46677lKWfZ1ojIqKQt++fbF582aHjpLUMypj3vDmfR4zZgx+/vOfY8eOHSgrK0PXrl2RnJyMmJgYVFZWKt8Z+sgjjygT34sWLUJZWRkiIyORm5vrtN5vv/0WwNUJ9ZZlJkyYwL6XAFjnXJk5cyaWLFmCsrIyr2+yaDmW8Gf/ZCyrZNUVo/pkZtXa9M6pUeeB2jEqc2pdwZJRf9ntdqxZswbA1fE3mcfqWbTZbAHR35I6zCFZXbBnlBn3jBlQd3yhKmQ+0vfRRx8hNzcXhYWFDt/jQaHlnnvuAQBcuXIF5eXlLsudO3cONTU1AK5OEHrzvOZmr7/+OgDHTx02i4+PR2FhIWJiYgAA//73vx2e7dy9e3dl2d0zn9u2batM/DQ2NnrdtmY/+clPALj/1CT5x4iMecub9zkyMhKDBw/GU089haFDhyrZzM7OVia7X3nlFaV8aWkpLly4gKlTp2LKlClOX19++SUA4MKFCw4/b74wEwHWOFciIiLw6KOPAoBX3+el9VjC1/2TOayQVVeM6pOZVevTO6dGnQdqxqjMqbUFS0b90fzY1HvvvRfdunXTfX/kntWzGAj9LanHHJLVBXtGmXHPmAF1xxeKQmKisaioCC+++CI2bdqkDKYoNA0ePFhZPnr0qMtyLdeNGjXK6/rPnj2LiooKAECPHj2cluncuTPmzZsHAKirq3PY13333acsHzlyxO2+rrvuOgBXv7PRV6dPnwYAJCUl+bwtuad3xnzh7/tcWlqKJUuWAAAee+wxpKamKutSUlLw9NNPu33dfvvtAK7+hVLLn0dFRWl0ZBQMrHKuxMbGAoDHG396jSW83T+ZxypZdcbIPplZtTa9c2rUeaB2jMqcWlewZNQffGyqtVg9i4HS35I6zCFZXbBnlBn3jBlwvz21FvQTjbt27cLkyZOxYcMGlxM/ALB792589913BraMzJCRkaEsl5SUuCzXct3IkSO9rr/lpxDdfZlsv379lOX6+npl+fHHH1eWmz+B4ExDQ4PySYQBAwZ43b5mBw8ehM1mw+jRo33eltzTO2O+8Od9bmpqwuTJk3H58mXExcVhxYoVDusnT56M1atXu30NGzYMwNWbfS1/zueYU0tWOVdOnjwJ4Oqkuit6jiW82T+ZyypZdcbIPplZtTa9c2rUeaB2jMqcWlewZNRXIoL8/HwAnGi0CqtnMVD6W1KHOSSrC/aMMuOeMQPut6fWgnqicf/+/cjIyEBBQQF69+7tsty5c+cwZ84cPmM3BPTq1Uu54faf//zHZbkNGzYAAAYOHOj0L6L37t2LysrKVj9PTExE+/btAbjvpJofSRkeHu6Qzd69e2PgwIEAgPz8fJePfTp58qQykfn888+73I8zO3bswJkzZ/Dss8/69WlIck/vjHnL3/f5hRdeQGFhIdq3b4+8vDx06tTJ7zYQuWOFc6W+vh7FxcXo1q0b0tPTnZbRcyzhzf7JfFbIqtmYVevTO6da1e+O2jEqc2ptwZBRf2zfvh3l5eW46667lE+Yk7msnsVA6G9JPeaQrC7YM8qMe8YMuN+enJAgdeTIEYmLi5MJEybIkiVLnL4WL14sr732msTHx8tbb71laPuOHTsmubm5snfvXkP3SyL79u2TiIgIiYiIkMOHD7daf+TIEYmMjJSwsDD5+uuvHdY1NDTIfffdJwAkMjJS3nnnnVbbT58+XQBIfHy8XLlyxWkbMjMzBYD8+te/brVuz549Eh4eLgBk5cqVTrd/5ZVXBIAMGzbM4efZ2dmSnp4uS5YskcuXL7farrGxUfr27Su9evWSCxcuOK2b1NM7Y3q8z3V1dTJx4kQBIJ06dZI9e/Z4ebStTZkyRQBIQkKC33VQaNDzXDl//rxkZ2fL559/7nL/2dnZ0rZtWykqKnK6Xs1YQov9k3Xo3a9fa8uWLQJAAMivfvUrVW331Cczq8FD75yqqV/t2IU5DQ5WzqgravvjGTNmCADJysryeVvSj9WzaGZ/S8YJ5hw6o+X4lowR7BnVY9wQbJgBZsAXQTnRePr0aenWrZtyAfP0atOmjVRWVhraRk40mmvlypUSFhYmgwYNkpqaGuXntbW1MnToULHZbLJs2bJW2x0+fNghO+3atZO6ujqHMj/++KPceeedAkCefPJJuXTpksP6HTt2SLt27SQ+Pl4qKiqctm/ZsmVis9kkMjJS1q5d67Bu586dEh0dLd26dZPy8nKHdV26dFHalpiYKFu2bFHWnThxQh544AFJS0uTM2fOePcfRX7TM2Nav89FRUXSt29fASAZGRmtcuUrTjSSL/Q6V5r/oAOADBo0SHbv3q2sq6+vl8WLF0tSUpIUFhY6bZfasUAmJkQAACAASURBVITa/ZP16NmvX6v5D4oASP/+/cVut/vdbk99MrMaXPTOqb/1qx27MKfBw6oZdUVNf2y326Vr164CQPbv3+/1dmQMq2fRrP6WjBWsOXRGy/EtGSfYM6r1uCEYMQPMgLeCbqKxsbFRkpKSvL4xCEDGjRtneDs50Wi+9evXS8+ePSUpKUleffVVWbBggfTu3Vt69OghH374odNt6uvrlb/GaH45ew8vXboks2fPloiICImPj5dJkyZJZmamjBkzRiIjI2X8+PEeB/Yff/yx9OjRQ8LDw2Xo0KEyf/58ycjIkOjoaMnIyJDz58+32iYnJ0fatGnj0L7ExETp2bOn9OnTRz755BP//rPIL3plTIv3+fjx4/L222/LQw89JNdff71kZGTItm3bNDluTjSSr/Q4V7766iuJjY11WH/77bdL//79JSkpSZYtWyYNDQ1O69ZiLKFm/2Rdeo4dysrKZO7cufLYY4+JzWZzKN+/f3/57W9/KwUFBT632VOfzKwGHz1z6m/9ascuzGlwsWJGW9KqP962bZsAkJ49e3osS+awehbN6G/JeMGYw2Z6jW/JWMGcUS22DwXMAHnDJuLiS+BIV8ePH8fmzZuRkpKC5ORks5sTshobG7Fnzx4cOnQIIoJevXqhb9++aNOmjdvtysrKcObMGfTv3x9VVVWIiYlxWq6mpgbffPMNSkpK0NjYiC5duiA1NRU333yzV+0TEezatQslJSWor6/HT37yE9x///2IjY11uc3333+PrVu3orKyEna7HbGxsbjnnnvQo0cPr/ZJ2tIrY2re5/Lycrz22mtISkpC7969MWTIEERFRak6TiK19DhXamtrUVxcjGPHjiEiIgIxMTFITk5GUlISbDab3odk+v5JH3qPHczArAYfvXPqT/1qx6jMaXCxYka1VlZWhmPHjqFTp05uv+eZzGX1LJrR35LxgjGHFFyCPaPMuGfMAHnCiUaTcKIx8H300UdYsmQJioqKzG4KBSlmjMg7PFcoUDCrFAiYU7I6ZpSsglkkK2AOyeqYUWIGQkOE2Q0gCkTl5eWYM2cONmzYYHZTKEgxY0Te4blCgYJZpUDAnJLVMaNkFcwiWQFzSFbHjBIzEDrCzG4AUaDZvXs3Hn/8caxcuRKJiYlmN4eCEDNG5B2eKxQomFUKBMwpWR0zSlbBLJIVMIdkdcwoMQOhhZ9oJPKRzWbDxo0b0blzZ7ObQkGKGSPyDs8VChTMKgUC5pSsjhklq2AWyQqYQ7I6ZpSYgdDC72g0Cb+jkYiIiIiIiIiIiIiIiAIZH51KRERERERERERERERERD7jRCMRERERERERERERERER+YwTjURERERERERERERERETkM040EhEREREREREREREREZHPONFIRERERERERERERERERD7jRCMRERERERERERERERER+YwTjURERERERERERERERETkM040EhEREREREREREREREZHPONFIRERERERERERERERERD7jRCMRERERERERERERERER+YwTjURERERERERERERERETkM040EhEREREREREREREREZHPONFIRERERERERERERERERD7jRCMRERERERERERERERER+YwTjUQBTETMbgIRUVBgf0qhglmnUMCcExERERERGSfC7AYYYceOHVi/fj1KS0vRrl07JCcn48knn0SnTp3MbhqZ7NSpU8jPz8fBgwchIrjjjjuQlpaGhIQE1XU3NTXhs88+w2effYby8nJ06NAB/fr1Q3p6Otq3b+9VHWVlZSgtLXW67vvvv0deXh7effddl9vreXzkHSPeg/379+PTTz/FoUOHEBYWhqSkJKSmpiIlJcXwNhYWFqKsrAwTJ070eVsKbXqfK/70p6dOncLp06e93kePHj0QFxen2fZkTXpnVe24Ve3YgePm4GDkGNCfa7/asYvanJP59M6oFvWrzakzs2fPRnV1NXJzc/2ug7Rl9SzqcV1mDq3H6jlsyZ/r/pYtW7Bt2zYcOXIEsbGxuPvuuzFmzBhERUX5vH8yh9Uzqkf72Fc6CqUM8N6mnySIVVVVyZAhQwRAq1fnzp2lqKjItLYdO3ZMcnNzZe/evaa1IdQtWLBA2rZtK2lpafLxxx/LJ598Iunp6RIZGSlz584Vu93ud92VlZUyaNAguf3222XFihWyadMmWbRokXTs2FE6duwoH3zwgVf1DBw40Gl+m19vvfWWKcdH3tH7PSgvL5cxY8ZIx44d5c0335RPPvlE3n//fXnmmWcEgIwePVoqKysNaWNRUZGS1ylTpqg6Lgo9RvRX/vSnDz74oNttrn3l5+druj1Zj55Z1Wrc6u/YwcrjZvKNUWNAf679WoxdRNSNkcl8emdUbf1a5fRay5cvFwCSkJDg76GRxqycRb2uy8yh9Vg5hy35c90vKSmRYcOGOc3xrbfeKmvXrlVzaGQQq2dUj/axr3QUKhngvU11gnaisaqqSu666y65++675fe//71s2LBB/vnPf8rDDz+sXNSuv/56qaioMKV9nGg016xZswSATJgwwaGzsdvtMnHiRAEgU6dO9avukpIS6dq1q8TExMiJEycc1pWVlUmnTp3EZrPJv/71L7f17Nixw+0NlOuuu06qqqoMPz7yjt7vwcWLFyU5OVmio6OltLS01fp//OMfAkCGDh0qTU1NurWxuLhYhg4d6pBNXozJF0b0V/70p8ePH5ewsDCvJwnbtWsntbW1mm1P1qNnVrUat/o7drD6uJm8Z0Sf6u+1X4uxi4i6MTKZT++Mqq1fq5xe6+jRoxIVFcWblhZi5SzqdV1mDq3Hyjls5u91/5tvvpGbb75ZAEhiYqIMHz5ckpKSHOoJCwuTwsJCv4+P9Gf1jOrRPvaVjkIhA7y3qY2gnWhMT0+XF198Uerr61utmzZtmhKa+fPnm9A6TjSa6dNPP1Vu6paXl7daf/bsWbnhhhsEgKxbt87n+psH/2+++abT9StXrvTqF4O0tDQZOnSobNiwwenr66+/NuX4yDMj3oPnnntOAMjs2bOdrrfb7cogfv369bq08csvv5Q1a9bIpUuX5G9/+xsvxuQzo/orf/rT2bNnyy233CLLli2TPXv2yNGjR52+mvv00aNHa7o9WYveWdVq3Orv2MHq42byjhF9qpprv9qxSzN/c07m0zujWtSvVU5bamxslJSUFGnfvj1vWlqE1bOox3WZObQeq+dQxP/rflNTk9xzzz1y7733tvoD/K+++kri4+OVum655Rapqanx+fhIf1bPqB7tY1/pKBQywHub2gnKicb9+/fLhAkTXK6vqamRyMhIASCjRo0ysGX/HycazdOnTx8BIGPHjnVZ5sknnxQA0rNnT5/qbu7gAMiBAweclrl8+bJywZo+fbrTMocPH5awsDDZuXOnT/sX0ff4yDtGvAexsbECQJYuXeqyzPjx4wWALFiwQPc2/u9//+PFmHxmxLniT3965coV6dWrlxw7dsxj2eabPatXr9Zse7IePbOq1bjV37FDIIybyTtGjwF9vfarHbuIqBsjk/n0zqgW9WuR02tlZWXJ8OHDJSMjgzctLcLKWdTruswcWo+Vc+iML9f9tWvXSmJioly6dMnp+oqKCuXTjgBk8+bNHvdPxrN6RvVoH/tKR6GWAd7bVCcMQai8vBw5OTku10dFReG2224DAHTs2NGoZpEF/Pe//0VJSQkAYMSIES7LPfroowCAb7/9Fvv37/e6/tWrVwMAbDYbevXq5bTMddddh+TkZADAsmXLcObMmVZl/vSnP2HEiBG4//77vd43oP/xkWdGvQfV1dUAgJ07d7osU1VVBQCIjo7WvY1t2rTx3GiiFow6V/zpT0+ePImFCxeie/fubsvZ7XYUFBQgMjISI0eO1Gx7sha9s6rVuNXfsQPHzcHBjDGgr9d+NWOXZv7mnMynd0a1ql+LnLa0a9cu/P3vf8eKFSsQFhaUt18CjtWzqMd1mTm0Hqvn0BlfrvurVq1CTk4Orr/+eqfr4+Li8Pzzzyv/3r17t9d1kzGsnlE92se+0lEoZoD3NtUJyrNm+PDhiImJcbm+vr4eJ0+eBAA88cQTBrWKrOCDDz5Qll1NBAJAUlKSsrxu3Tqv6z906BAAoEOHDggPD3dZ7s477wRwNYubN292WFdZWYlVq1bhiy++wKOPPoo33ngDxcXFuHLlisf963185JlR70HzL5fr1q1DaWlpq/X19fXYt28fACA1NdWUNhK5Y0QO/e1Pk5KSMGrUKI/1f/HFF6ioqMCwYcMcbjaq3Z6sRe+sajFuVTN24Lg5OATCtV3N2AVQl3Myn94Z1ap+tTltqba2Fk8//TSWLl2Krl27uj8AMozVs6j1dZk5tCar51Ct6OhoPPLII27LPPjgg8pybW2tZvsmbVg9o1q3j31la6GWAVIvKCcaPSkuLkZdXR2effZZtzPeFHy2bdumLCcmJros13KdL53Q4cOHAQB1dXVuy7Wsf8+ePQ7rsrOzUVdXh5qaGmzcuBGvvvoqBg8ejLi4OGRmZuLixYsu69X7+Mgzo96D5l8qq6urMW7cONTU1Disz87Oxvnz55GRkYGUlBRT2kjkjhE5VNOfeiMvLw8AMHbsWFO2J2OY3Wd6M27VM+scNwcGs3PqDTVjl+b1evbppC+9M6pV/Wpz2tKsWbMwYMAApKene3UMZIxAyaIrvl6XmUNrCvQcevLOO+94LNOhQwdl+e6779Zs36QNq2dU6/axr2wt1DJAGjD72a1Gu3DhgnTr1k1mzpwpDQ0NprWD39FojrZt2ypfEutJdHS0AJCwsDBpbGz0WN5ut0u7du2UZznX1ta6LPv2228r5caPH++wLi0tTfkOR2evHj16yJEjRww/PvKOUe/BxYsXpUePHkoukpOTlS9Zz8vLkzZt2sioUaOcfqm6Hm08cOAAn2NOPjHiXFHTn3rS1NQkXbp0kfDwcKmqqjJ8ezKOmddWb8etemXdKuNm8syMnPp67VczdhHRt08n/emdUa3qV5vTZgUFBZKQkCDV1dXKz55++ml+35MFBEoWnfH1uswcWlcg5lDr3/nXrFkjAMRmsyn9LFmH1TOqZfvYVzoXShloxnub6oTUJxq//PJLPPDAAzh37hxuuukmNDQ0mN0kMtDFixeVTxp6810GzWXsdjvOnz/vsbzNZnP4Pq7t27e7LBsREaEsX7582WFdQUEBfvjhB5w7dw7r1q3D2LFjERkZqaw/duwYBgwYoDwupZnex0eeGfkeREdHY9OmTcojHfbt24fk5GQ88cQTmDp1KrKzs/HRRx8hKirKtDYSuWJUDv3tT73R/NjTwYMH+/W9dWq3J2OY2Wf6Mm7VI+scNweOQLm2+zt2aaZnn0760jujWtavNqcAUFFRgSlTpuDdd9/FjTfe6LE9ZJxAyuK1fL0uM4fWFcg51NKOHTsAXH26S0JCgmH7Jc+snlEt28e+0rlQygBpJyQmGrdu3YqMjAwMGDAABw8exOXLl5GVlYV+/frhxIkTZjePDFJZWakst2vXzmP5lmXOnj3r1T6GDRumLH/44Ycuy9ntdmU5NjbWaZnY2FiMHDkSa9asQXl5OV5++WXly4irqqrwzDPPOJQ34vjIPaPfg+7du2P79u3o2bMnAKCmpgZ5eXm44447MGbMGEu0kcgZo3Poa3/qDT42NTSY0WeqGbdqkXWOmwNPIF3b/Rm7XEuPPp30pXdGta5fTU5FBJMmTcKkSZMwaNAgj20hYwVaFgH/rsvMobUFYg611tjYiPfeew/h4eFYsGCBIfsk71k9o1q1j32la6GSAdJW0E801tbW4sCBA7j//vvx/PPPIy4uTll34MAB/PKXv4SImNhCMsoPP/ygLNtsNo/lw8PDleXq6mqv9vHSSy+hTZs2AIDly5c7PC+6pS1btijLnTt39lhvTEwMFi1ahIKCAqVd27Ztw9atW5UyRhwfuWfGe5CQkIB58+Y5/Gzr1q342c9+hr1791qijUTXMjOH3vSnntjtduTn58NmsyEtLc3nNqjdnoxjdFa1HLf6k3WOmwNToF3bfR27uKNFn0760zujetTvb05zcnJw9uxZ/O53v/PYDjJeoGXR3+syc2htgZZDPaxatQpnz55FZmYmkpOTDdknec/qGdWqfewrXQuVDJC2gn6iMSoqCtOmTcPMmTORk5ODsrIyLFy4UAnY9u3b8f7775vcSjJCy49St/xEoStNTU1Ot3UnPj4eixcvRlhYGBoaGpCeno41a9Yoj3lau3YtUlNTHSYg+/Xr5/Ux/OIXv3C4ALacsDTi+Mg9M96D119/HTNmzMDGjRuRmZmp9G3l5eUYOHBgqxshzAlZgRVy6K4/9WT79u2oqKjAgAED0KVLF5/3rXZ7Mo7RWdVj3OpL1jluDkxW6FN94evYxRtq+nTSn94Z1aN+f3L6zTffIDMzE++9957DY33JOgIti/5cl5lD6wu0HGrtu+++w5w5c/DQQw9h/vz5uu+PfGf1jGrRPvaV7oVCBkh7QT/ReK3w8HDMnj0bCxcuVH62fv16E1tERmn5ycFrvxfRmR9//NHptp5MmzYNeXl5iImJwblz5zBu3DhER0ejc+fO+Mtf/oKcnBzceeedAK7mcciQId4fBIDf/OY3uOmmmwAAp06dctpGPY+PXDP6PZg+fTqysrKwYsUKjBgxAllZWfj888+ViYuamhqMHDnS4ZECzAlZgVVy6Ko/9YSPTQ0dZmdVq3Grv1nnuDkwmJ1TX/gzdvGWvzkn/emdUa3r9yen9fX1yMjIQFZWFvr06eOxDWSOQMvitTxdl5nDwBDoOVRrxowZ6Nq1K/Lz85VHn5O1WD2jardnX+lZsGeA9BFhdgPMMnPmTCxZsgRlZWX8RTRE3HDDDYiKikJtbS3Onz8PEXH78eqqqioAQNu2bZWbFt4aM2YMfv7zn2PHjh0oKytD165dkZycjJiYGFRWVqKwsBAA8MgjjyA6OtqnuqOiotC3b19s3rzZoaM08vjIOSPfg9zcXCxduhSpqakOkxWDBg3Czp078dhjj6GkpASnT5/G/PnzsXz5csPbSOSKVXLoqj91x263Y82aNQDg9feJabk9GcsqWVU7bvUn61run/RllZx64u/YxVtqc0760TujWtbvb04XLVqEsrIyREZGIjc31+l+v/32WwBXJypblpkwYQJuvPFGj8dJ6gVSFt1xdV1mDgNDsOTQH4sWLcLu3btRXFzMvFmY1TNqs9lUbf/GG2+wr/Qg2DNAOpEQ9qtf/UoASEpKiuH7PnbsmOTm5srevXsN33coGzRokAAQAFJWVuay3NmzZ5VyDz/8sKZteOWVV5S6v/jiC7/qmDRpkgCQ//u//3P4uRWOL9QZ9R506dJFAMiSJUucrq+srJSYmBgBIG3btpWLFy/q2sYDBw4oZadMmeLz8VDosUp/5ao/daW4uFgAyL333uvX/tRuT8azSlbVjlt9zbrW+yd9mZFTX6/9asYu3lKbc9KP3hnVqn5/c/rcc88p9fr6Onr0qNfHSeoFShY9cXZdZg4DRyDmUO3v/GvXrpXu3bvLqVOnfN6WjGf1jKrZnn2ld4I5A67w3qY6IfuJRgCIjY0FAHTr1s3klpBRBg8ejOLiYgDA0aNHccsttzgtd/ToUWV51KhRmu2/tLQUS5YsAQA89thjSE1N9aue06dPAwCSkpIcfm728ZEx78HZs2dRUVEBAOjRo4fTMp07d8a8efPw0ksvoa6uDkePHkXfvn0NayORJ1bJoav+1BU+NjX0WCWrasetvmZd6/2TvqySU1fUjl28pTbnpB+9M6pF/WpympKSgitXrrht465du3DkyBHccMMNSEtLU34eFRXl+QBJM4GQRW84uy4zh4EjWHLoraKiIrz44ovYtGkTfvKTn+i2H9KO1TOqZnv2ld4J5gyQPkL6YdgnT54EcHXCh0JDRkaGslxSUuKyXMt1I0eO1GTfTU1NmDx5Mi5fvoy4uDisWLHC77oOHjwIm82G0aNHO/zczOOjq4x4D6qrq5Vld1963K9fP2W5vr7e0DYSeWKVHLrqT50REeTn5wPwb6JQ7fZkDqtkVe241Zes67F/0pdVcuqK2rGLt9TmnPSjd0a1qF9NTidPnozVq1e7fQ0bNgzA1Qmilj/ndwUZKxCy6A1n12XmMHAESw69sWvXLkyePBkbNmxw+UccALB792589913urSBfGf1jKrZnn2ld4I5A6SPkJ1orK+vR3FxMbp164b09HSzm0MG6dWrl3Kx+M9//uOy3IYNGwAAAwcOdPqX+3v37kVlZaVP+37hhRdQWFiI9u3bIy8vD506dfJp+2Y7duzAmTNn8Oyzz+K2225zWKfV8ZH/jMhYYmIi2rdvD8D9xbShoQEAEB4ejt69e2veRiI1zOyPm7nrT53Zvn07ysvLcdddd+H222/3eX9qtydzWCGrasetvmZd6/2T/qyQU3fUjl28oTbnpC+9M6pF/UbklMwXCFn0hNflwBcMOfTG/v37kZGRgYKCArf95blz5zBnzhx+d5qFWD2jVsl4MGMGyGdmP7tVD+fPn5fs7Gz5/PPPXZbJzs6Wtm3bSlFRkXENa4Hf0Wieffv2SUREhERERMjhw4dbrT9y5IhERkZKWFiYfP311w7rGhoa5L777hMAEhkZKe+8847H/dXV1cnEiRMFgHTq1En27Nnjsmx2drakp6fLkiVL5PLly63WNzY2St++faVXr15y4cIFzY+PtGFExqZPny4AJD4+Xq5cueK0TGZmpgCQX//615q20ZktW7YozzH/1a9+5bE8kYi+54oW/em1ZsyYIQAkKyvLh6PUbnsyj55ZVTtuVZv1QBg3k3eMHuP6eu1XM3bRo08n4+mdUS3Gt2rH2O5MmTJFAEhCQoJP25H2rJxFva/LzKF1WDmHzvh63T9y5IjExcXJhAkTZMmSJU5fixcvltdee03i4+Plrbfe8lgnGcvqGdXz/if7yqtCLQO8t6lOUE40Ng/8AcigQYNk9+7dyrr6+npZvHixJCUlSWFhoWlt5ESjuVauXClhYWEyaNAgqampUX5eW1srQ4cOFZvNJsuWLWu13eHDhx2+BLhdu3ZSV1fncj9FRUXSt29fASAZGRlSXl7utl1dunRR6k5MTJQtW7Yo606cOCEPPPCApKWlyZkzZ3Q5PtKO3hn78ccf5c477xQA8uSTT8qlS5cc1u/YsUPatWsn8fHxUlFRoWkbnXnllVeUNvfv31/sdrtX2xHpda5o1Z82s9vt0rVrVwEg+/fv9/k41W5P5tMrq2rHrWqzHgjjZvKeUWNcEd+v/WrGLlr36WQevTOqdnyrxRjbFd60tBarZlHv6zJzaC1WzaEzvlz3T58+Ld26dXNoo7tXmzZtpLKy0qt2kLGsnlG97n+yr/z/QikDvLepTlBONH711VcSGxvrEObbb79d+vfvL0lJSbJs2TJpaGgwtY2caDTf+vXrpWfPnpKUlCSvvvqqLFiwQHr37i09evSQDz/80Ok29fX1yl9jNL+ufQ+PHz8ub7/9tjz00ENy/fXXS0ZGhmzbts2rNuXk5EibNm0c6k9MTJSePXtKnz595JNPPtH1+EhbemWs2aVLl2T27NkSEREh8fHxMmnSJMnMzJQxY8ZIZGSkjB8/3uMNNzU5KSsrk7lz58pjjz0mNpvNoc39+/eX3/72t1JQUODdfxaFND3OFS37UxGRbdu2CQDp2bOnX8eodnuyBj2yqnbcqjbrgTBuJt/oOf5Qe+33d+yidZ9O5tJ7jKz29yAtxtjO8Kal9Vgxi3pfl5lD67FiDpv5c91vbGyUpKQkrycZAci4ceP8+88jQ1g5o1ps7wz7SkfBnAHe29SOTUQEQai2thbFxcU4duwYIiIiEBMTg+TkZCQlJcFms5ndPBw/fhybN29GSkoKkpOTzW5OyGpsbMSePXtw6NAhiAh69eqFvn37ok2bNm63Kysrw5kzZ9C/f39UVVUhJiYGAFBeXo7XXnsNSUlJ6N27N4YMGYKoqCif2vT9999j69atqKyshN1uR2xsLO655x63X5qt9fGRdrTOmDM1NTX45ptvUFJSgsbGRnTp0gWpqam4+eabdW0jkZb0OFe07E/Lyspw7NgxdOrUya/vY1K7PVmHHllVO25Vm3Wrj5vJd0aMP9TwZ+yiZZ9O5tM7o1qMb9WOsSkwWDGLvC6HHivmkKglq2eUGdcfM0CeBO1Eo9VxojHwffTRR1iyZAmKiorMbgoFKWaMyDs8VyhQMKsUCJhTsjpmlKyCWSQrYA7J6phRYgZCQ4TZDSAKROXl5ZgzZw42bNhgdlMoSDFjRN7huUKBglmlQMCcktUxo2QVzCJZAXNIVseMEjMQOsLMbgBRoNm9ezcef/xxrFy5EomJiWY3h4IQM0bkHZ4rFCiYVQoEzClZHTNKVsEskhUwh2R1zCgxA6GFn2gk8pHNZsPGjRvRuXNns5tCQYoZI/IOzxUKFMwqBQLmlKyOGSWrYBbJCphDsjpmlJiB0MLvaDQJv6ORiIiIiIiIiIiIiIiIAhkfnUpEREREREREREREREREPuNEIxERERERERERERERERH5jBONREREREREREREREREROQzTjQSERERERERERERERERkc840UhEREREREREREREREREPuNEIxERERERERERERERERH5jBONREREREREREREREREROQzTjQSERERERERERERERERkc840UhEREREREREREREREREPuNEIxERERERERERERERERH5jBONREREREREREREREREROQzTjQSERERERERERERERERkc840UhEREREREREREREREREPuNEIxERERERERERERERERH5jBONREREREQBQkTMbgIREWmA/TkRBQv2Z0REFGF2A8wye/ZsVFdXIzc31+ym/GiOSQAAIABJREFUkIlOnTqF/Px8HDx4ECKCO+64A2lpaUhISFBdd1NTEz777DN89tlnKC8vR4cOHdCvXz+kp6ejffv2XtWxf/9+fPrppzh06BDCwsKQlJSE1NRUpKSkeLX9li1bsG3bNhw5cgSxsbG4++67MWbMGERFRak5NPKBnhkDtMmZ2jaqzSkRoM+5curUKZw+fdrr8j169EBcXJxXZRsbG7F161Zs2LABx48fx0033YRZs2bhpz/9qdPy7I+Dh979ellZGUpLS52u+/7775GXl4d3333X6/q8yaqe5wqZQ++c7tixA+vXr0dpaSnatWuH5ORkPPnkk+jUqZPbNumRs8LCQpSVlWHixIle103m0zujWl93/cmZ1v056UPvLLaktr8ye3vSj945VFu/lv0ZcxiYrJ5RLa/7zKhzVs8A721agISg5cuXCwBJSEgwrQ3Hjh2T3Nxc2bt3r2ltCHULFiyQtm3bSlpamnz88cfyySefSHp6ukRGRsrcuXPFbrf7XXdlZaUMGjRIbr/9dlmxYoVs2rRJFi1aJB07dpSOHTvKBx984Hb78vJyGTNmjHTs2FHefPNN+eSTT+T999+XZ555RgDI6NGjpbKy0uX2JSUlMmzYMAHQ6nXrrbfK2rVr/T428p6eGRNRnzO1bVSbU6Jmep0rDz74oNN+0NUrPz/fY53V1dUyb948ufnmm6V79+7y17/+VS5evOiyPPvj4KJ3vy4iMnDgQLc5feutt7yqx5es6nGukHn0zGlVVZUMGTLEaS46d+4sRUVFLrfVOmdFRUXK+TJlyhS/j4mMp2dGtb7uqsmZVv056ceI67qI+v7K7O1JX3rnUIv6tejPmMPAZeWManndZ0Zds3IG1G7Pe5vaCbmJxqNHj0pUVBQnGkPcrFmzBIBMmDDBobOx2+0yceJEASBTp071q+6SkhLp2rWrxMTEyIkTJxzWlZWVSadOncRms8m//vUvp9tfvHhRkpOTJTo6WkpLS1ut/8c//iEAZOjQodLU1NRq/TfffCM333yzAJDExEQZPny4JCUlOVxsw8LCpLCw0K/jI+/omTER9TlT20a1OSVqpte5cvz4cQkLC/P6hna7du2ktrbWbZ2rVq2Sjh07CgB56qmnPJZnfxxc9O7XRUR27NjhNqfXXXedVFVVeazHl6zqca6QefTMaVVVldx1111y9913y+9//3vZsGGD/POf/5SHH35Yycf1118vFRUVrbbVMmfFxcUydOhQh/K8GRQ49MyoltddtTnTqj8n/RhxXVebI7O3J/3pnUMt6lfbnzGHgc3KGdXqus+MumflDKjdnvc2tRVSE42NjY2SkpIi7du350RjCPv000+VGxjl5eWt1p89e1ZuuOEGASDr1q3zuf7mmy1vvvmm0/UrV650eyPmueeeEwAye/Zsp9vb7Xblwrl+/XqHdU1NTXLPPffIvffe22ry6auvvpL4+HjlonnLLbdITU2Nz8dHnumdMRH1OVPbRjU5JWqm57kye/ZsueWWW2TZsmWyZ88eOXr0qNNX87kyevRol3U1NjbKCy+8IACkbdu28vbbb3vcP/vj4GJEvy4ikpaWJkOHDpUNGzY4fX399ddut/cnq1qeK2QuvXOanp4uL774otTX17daN23aNKVPmz9/fqv1WuXsyy+/lDVr1silS5fkb3/7G28GBRg9M6rldVeLnKntz0lfRlzX1ebI7O1Jf3rnUKv61fRnzGFgs3JGtbruM6PuWTkDWmzPe5vaCqmJxqysLBk+fLhkZGRwojGE9enTRwDI2LFjXZZ58sknBYD07NnTp7qbOzgAcuDAAadlLl++rEx2T58+vdX62NhYASBLly51uZ/x48cLAFmwYIHDz9euXSuJiYly6dIlp9tVVFQof+0DQDZv3uzD0ZG39MyYiDY5U9tGNTklaqbXuXLlyhXp1auXHDt2zGPZ5pvjq1evdllm8uTJyjn37rvvetUG9sfBRe9+XUTk8OHDEhYWJjt37vS3mT5nVetzhcylZ073798vEyZMcLm+pqZGIiMjBYCMGjXKYZ1eOfvf//7Hm0EBRs+M6nXd9SdnWvTnpC8jrustqe2vzN6e9KF3DrWoX8v+jDkMPFbOqB7XfWa0NStnQIvteW9TW2EIEbt27cLf//53rFixAmFhIXPYdI3//ve/KCkpAQCMGDHCZblHH30UAPDtt99i//79Xte/evVqAIDNZkOvXr2clrnuuuuQnJwMAFi2bBnOnDnjsL66uhoAsHPnTpf7qaqqAgBER0c7/HzVqlXIycnB9ddf73S7uLg4PP/888q/d+/e7e5wyA96ZwxQnzMt2qgmp0SAvufKyZMnsXDhQnTv3t1tObvdjoKCAkRGRmLkyJFOy/z5z3/G8uXLAQBjxozBM88841Ub2B8HDyP6dQD405/+hBEjRuD+++/3q53+ZFXLc4XMpXdOy8vLkZOT43J9VFQUbrvtNgBAx44dHdbplbM2bdp40XKyCr0zqtd115+cqe3PSV9GXddbUttfmb09aU/vHGpVv5b9GXMYWKyeUT2u+8yoI6tngPc2rSckZtxqa2vx9NNPY+nSpejatavZzSETffDBB8qyqwkaAEhKSlKW161b53X9hw4dAgB06NAB4eHhLsvdeeedAID6+nps3rzZYV3zTZp169ahtLS01bb19fXYt28fACA1NdVhXXR0NB555BG3bXzwwQeV5draWrdlyXd6ZwxQnzMt2qgmp0SAvudKUlISRo0a5bHcF198gYqKCgwbNszpoPH48eOYN28egKs3znNzc73aP8D+OJgY0a9XVlZi1apV+OKLL/Doo4/ijTfeQHFxMa5cueLV9v5mVatzhcynd06HDx+OmJgYl+vr6+tx8uRJAMATTzzRap/MGemdUatcd9X256Q/I67rRJ7onUMt6md/FtqsnlGrXPeDmdUzwHub1hMSE42zZs3CgAEDkJ6ebnZTyGTbtm1TlhMTE12Wa7nOl07y8OHDAIC6ujq35VrWv2fPHod1zTdnqqurMW7cONTU1Disz87Oxvnz55GRkYGUlBSHde+8847HNnbo0EFZvvvuuz2WJ9/onTFAfc60aKOanBIBxpwrnuTl5QEAxo4d63T93LlzUV9fDwCYMGFCq0/puMP+OHgYkdXs7GzU1dWhpqYGGzduxKuvvorBgwcjLi4OmZmZuHjxotvt1WTVG57OFTKf2X1qcXEx6urq8Oyzz7r9i2J3mLPgpndGrXLdVdufk/7M7i+JAP1zqEX97M9Cm9UzapXrfjCzegZ4b9OCzH52q94KCgokISFBqqurlZ89/fTT/I7GENW2bVvlS2I9iY6OFgASFhYmjY2NHsvb7XZp166d8jzv2tpal2Xffvttpdz48eMd1l28eFF69OihrE9OTla+2DgvL0/atGkjo0aNcvlFxp6sWbNGAIjNZmv1hcmknp4ZE9EmZ1q0Ue+cUvDT+1zxpKmpSbp06SLh4eFSVVXVav2ZM2fEZrMpGf/8889l79698vLLL8uoUaNk/Pjx8oc//EF27drldxvYHwcGI7KalpamfK+us1ePHj3kyJEjTrfVO6uezhWyBjP71AsXLki3bt1k5syZ0tDQ4Fcd/uTswIED/B6dAGL2dV/Ev+uurzlT05+TMczIotr+yuztSXt651CL+rXuz5jDwBIIGfXE1+s+M+rI6hngvU3rCepPNFZUVGDKlCl49913ceONN5rdHDLZxYsXlU+AefOX/s1l7HY7zp8/77G8zWZz+O6Z7du3uywbERGhLF++fNlhXXR0NDZt2qQ85nffvn1ITk7GE088galTpyI7OxsfffQRoqKiPLbJmR07dgC4+tfiCQkJftVBzumdMUB9zrRqo945peBmxLniSfMj+gYPHuy0DWvXroWIALj6XQ25ubkYNmwYioqKcPjwYXzwwQeYO3cuUlJS8MILL/j1CCH2x9ZnVFYLCgrwww8/4Ny5c1i3bh3Gjh2LyMhIZf2xY8cwYMAA5dGULemdVU/nCpnPzD71yy+/xAMPPIBz587hpptuQkNDg1/1MGfBzQrXfcCY666a/pz0Z5UsUmjTO4da1c/+LHQFSkY94e/b/rN6Bnhv05qCdqJRRDBp0iRMmjQJgwYNMrs5ZAGVlZXKcrt27TyWb1nm7NmzXu1j2LBhyvKHH37ospzdbleWY2NjW63v3r07tm/fjp49ewIAampqkJeXhzvuuANjxozxqi3ONDY24r333kN4eDgWLFjgdz3knBEZA9TlTMs26pVTCn5GnSvueHpEX2FhobLcqVMnjBs3DlVVVdi9ezcOHTqEgwcPIjExESKCJUuWYNq0aT7tn/1xYDA6q7GxsRg5ciTWrFmD8vJyvPzyywgLuzpcr6qqwjPPPNNqG72zysdZWp8ZferWrVuRkZGBAQMG4ODBg7h8+TKysrLQr18/nDhxwuf6mLPgZoXrvtHXXX/6c9KfFbJIpHcOta6f/VnoCbSMOsPft9WxegZ4b9OagnaiMScnB2fPnsXvfvc7s5tCFvHDDz8oyzabzWP58PBwZbm6utqrfbz00kto06YNAGD58uUOz4tuacuWLcpy586dnZZJSEjAvHnzHH62detW/OxnP8PevXu9as+1Vq1ahbNnzyIzMxPJycl+1UGuGZExQF3OtG6jHjml4GfUueKK3W5Hfn4+bDYb0tLSnJYpKytTlv/4xz+2uvmdlJSETZs2KZP4K1aswFdffeV1G9gfBwYzsxoTE4NFixahoKBAqXfbtm3YunWrQzk9s+rNuULmMzqntbW1OHDgAO6//348//zziIuLU9YdOHAAv/zlL5VP2XqDOQt+Zl/3AXOvu97256Q/K2SRSO8c6lk/+7PQEMgZbcbft9WxegZ4b9OagnKi8ZtvvkFmZibee+89h4/1U2hr+VHqlp/0cqWpqcnptu7Ex8dj8eLFCAsLQ0NDA9LT07FmzRrlcRNr165Famqqw8RQv379nNb1+uuvY8aMGdi4cSMyMzOVTrG8vBwDBw70uaP77rvvMGfOHDz00EOYP3++T9uSd4zIGKAuZ1q3UeucUmgw6lxxZfv27aioqMCAAQPQpUsXp2Va/oVc3759nZa57bbbMGnSJABXn6SwdOlSr/bP/jhwmJ1VAPjFL37h8IdzLf+IBNA3q96cK2Q+o3MaFRWFadOmYebMmcjJyUFZWRkWLlyojAG2b9+O999/3+v6mLPgZ3ZfapXrrqf+nPRndhaJAP1zaETO2Z8Ft0DPqFWu+4HM6hngvU1rCrqJxvr6emRkZCArKwt9+vQxuzlkIS0/OXjt9yI68+OPPzrd1pNp06YhLy8PMTExOHfuHMaNG4fo6Gh07twZf/nLX5CTk4M777wTwNW/qBgyZEirOqZPn46srCysWLECI0aMQFZWFj7//HPl5ktNTQ1GjhzpcHPRkxkzZqBr167Iz89XHnNB2jIqY4D/OdOyjXrklEKDkeeKM948oq/lHypFR0e7LDdu3Dhl+dChQ17tn/1x4DA7q81+85vf4KabbgIAnDp1ymGdnlnl4ywDg9k5DQ8Px+zZs7Fw4ULlZ+vXr/d6e+Ys+JmdUStdd93156Q/s7NIBOifQ6Nyzv4seAV6Rq103Q9UVs8A721aU9CdbYsWLUJZWRkiIyORm5vr9PXtt98CuBqUlj9v+bFbCj433HCD8uWt58+f9/hIp6qqKgBA27ZtlcGTt8aMGYPy8nJs2bIF7733Hj7//HOcP38excXF6Nq1q/J9So888kirm4K5ublYunQpUlNTHW64DBo0CDt37lQm0E+fPu31X+YsWrQIu3fvxqeffoobb7zRp2Mh7xmZMcC/nGnVRj1ySqHD6HOlJbvdjjVr1gCA2+ftd+jQQVluaGhwWe6uu+5Slr2ZvGF/HFjMzGpLUVFRyqcVW/6SBOiXVW/PFTKfVXI6c+ZM3HrrrQC8v+HInIUGMzNqteuuu/6c9GeV/pJCm945NCrn7M+CVyBn1GrX/UBl9Qzw3qY1Bd1EY2lpKS5cuICpU6diypQpTl9ffvklAODChQsOP28OHQWve+65BwBw5coVlJeXuyx37tw51NTUALjauXjzvOdrRUZGYvDgwXjqqacwdOhQxMTEAACys7OVG4GvvPJKq+1ef/11AI6fPGgWHx+PwsJCpa5///vfHp99/dFHHyE3NxeFhYUO36FD+jAyY4B/OdOijVrnlEKP0edKs+ZH9N17773o1q2by3Ldu3dXlt3lt23btspEfmNjo9t9sz8OTGZl9Vo/+clPALT+1KIeWQW8P1fIGqyQ04iICDz66KMA4PV3NDJnocOMjFr1uuuqPydjWKG/JNI7h0blnP1Z8ArEjFr1uh+orJ4B3tu0nqCbaExJScHTTz/t9nX77bcDuDp73vLnzTPhFLwGDx6sLB89etRluZbrRo0apdn+S0tLsWTJEgDAY489htTUVIf1Z8+eRUVFBQCgR48eTuvo3Lmz8gW1dXV1bo+jqKgIL774IjZt2qQMAElfZmcM8JwztW3UOqcUmsw6V7x9RN99992nLB85csRt2euuuw7A1e/Bc4X9ceCyQr8OXP0rSgBISkpy+LnWWW3Gx1kGFqvkNDY2FgC8njRkzkKH0Rm18nXXVX9OxrBKf0mhTe8cGpVz9mfBK9AyauXrfqCyegZ4b9N6gm6icfLkyVi9erXb17BhwwBc/UW45c/5zP3gl5GRoSyXlJS4LNdy3ciRIzXZd1NTEyZPnozLly8jLi4OK1asaFWm5V9GuPsy2379+inL9fX1Tsvs2rULkydPxoYNG1x2mACwe/dufPfdd94cAnnBzIwB3uVMbRu1zCmFLjPOFRFBfn4+AM83tR9//HFluflJCM40NDQoT0QYMGCA0zLsjwOb2f16s4MHD8Jms2H06NEOP9cyq818OVfIGqyS05MnTwK4+odOnjBnocXIjFr9uuuqPydjWKW/pNCmdw6Nyjn7s+AVSBm1+nU/UFk9A7y3aT1BN9FI5E6vXr2Uieb//Oc/Lstt2LABADBw4ECnf5G9d+9en78E9oUXXkBhYSHat2+PvLw8dOrUqVWZxMREtG/fHoD7TrL5kZjh4eHo3bt3q/X79+9HRkYGCgoKnK5vdu7cOcyZM4ffN6EhMzMGeJcztW3UKqcU2sw4V7Zv347y8nLcddddytMNXOnduzcGDhwIAMjPz3f5GMCTJ08qg9Lnn3++1Xr2x4HP7H4dAHbs2IEzZ87g2WefbfVpRK2y2pIv5wpZgxVyWl9fj+LiYnTr1g3p6ekeyzNnocWojFr9uuuuPydjWKG/JNI7h1rV7w77s+AWKBm1+nU/kFk9A7y3aUESgqZMmSIAJCEhwbQ2HDt2THJzc2Xv3r2mtSFU7du3TyIiIiQiIkIOHz7cav2RI0ckMjJSwsLC5Ouvv3ZY19DQIPfdd58AkMjISHnnnXc87q+urk4mTpwoAKRTp06yZ88et+WnT58uACQ+Pl6uXLnitExmZqYAkF//+tdO2x8XFycTJkyQJUuWOH0tXrxYXnvtNYmPj5e33nrL4zGQb4zOmIjvOVPTRhH1OSUSMf5cmTFjhgCQrKwsr9q3Z88eCQ8PFwCycuVKp2VeeeUVASDDhg1z2n72x8FBz6xmZ2dLenq6LFmyRC5fvtyq7sbGRunbt6/06tVLLly48P/Yu/uwqMr8f+DvAQEx/KICilpogo5m4W6WoqZGlD19c0MxldrMrfZrWVfWbuZmprtd1da2m4uZ6a75UN/+8ClT+2qmoZipKbU+4EMKSiJg6CaBKQjz+f3hj7MgzMOZ8zgz79d1cV2T55x77hPv+dz3Ofcw02L/tGb1SmpfK2QPRub0zJkzkpOTI1988YXb58/JyZGoqCjJzc31qb9ac7ZlyxYBIADk8ccf96sNMpfR474R466anOlRz8kcZs9BtdYrq48nYxidQy3tG1HPmMPAY+eMNmzXc9xnRpuzewZ4b9NeuNBoES40Wmvx4sUSFhYmw4YNk6qqKuXfq6urJT09XRwOhyxYsKDZcUeOHFEGHQASHR0tNTU1bp8nNzdX+vfvLwAkOztbSktLvfbt559/luuvv14AyLhx4+T8+fNNtu/YsUOio6MlKSlJysrKmmw7efKkdOvWrUkfPf1ERERIeXm51z6RemZlTMS/nGnpo4i2nBI1ZtZrxeVySZcuXQSA7N+/3+f+LViwQBwOh0RGRsrq1aubbNu5c6fExsZKt27dmr3uWI+Dj1FZ7dy5s7ItJSVFtmzZomw7fvy43HLLLZKZmSmnTp3y2D9/s3olf18rZA9G5bThAhuADBs2THbv3q1sq62tlbffflucTqds3rzZp37qkbOGxXMAMmjQIHG5XH61Q+YyKqNGjbtqcqZXPSdzmHm9prVeWX08GcfoHPrbvhH1jDkMTHbNqBHjPjPaMrtmQI/jeW9TX1xotAgXGq23du1a6dWrlzidTnnppZdkxowZ0qdPH0lOTpaPP/64xWNqa2uVd2M0/Fz5OywqKpJ58+bJ7bffLm3atJHs7GzZtm2bqr6dP39epk6dKq1atZKkpCSZOHGizJw5U0aNGiWRkZEyduzYZhO6uro6cTqdPg+yAGTMmDHq/qeRKkZlTESfnPnbxwb+5JSoJUa+Vhps27ZNAEivXr1U9+/TTz+V5ORkCQ8Pl/T0dJk+fbpkZ2dLbGysZGdny5kzZ5rsz3ocvIzI6pw5cyQiIqLJ9pSUFOnVq5f07dtX1q9f73P/1Ga1JVpeK2QPRuR0z549kpCQ0GR7z549ZdCgQeJ0OmXBggVy6dIln/vob85KSkpk2rRpcs8994jD4WjSn0GDBsnvf/97WbVqlao2yXx6Z1TvcdffnOlZz8kcRs5BtdYrq48n8xh9LeRP+3rVM+YwONgto3qO+8yob+yWAT2P571N/ThE3HyRCxmqqKgImzZtQlpaGlJTU63uTsiqq6tDfn4+Dh8+DBFB79690b9/f0RERHg8rqSkBKdOncKgQYNQUVGBuLg4AEBpaSlefvllOJ1O9OnTB7feeitiYmL87l9VVRUOHjyIgoIC1NXVoXPnzhgyZAg6dOjgd5tkLr0zBuifM3/72IA5JT0Y8Vq5cr/CwkJ07NjRr8/VFxHs2rULBQUFqK2txTXXXIOBAwciISFBdVsU2IzI6o8//oitW7eivLwcLpcLCQkJuPHGG5GcnKy6f1qzqvW1QvZgRE6rq6uRl5eHwsJCtGrVCnFxcUhNTYXT6YTD4VDVP+aMjB73raJnPSdzBGsWKbAYnUN/2mc9o8bsmFEyl90zwHub1uNCo0W40Bj4PvnkE8yePRu5ublWd4WCFDNG5Bu+VihQMKsUCJhTsjtmlOyCWSQ7YA7J7phRYgZCQyurO0AUiEpLS/HCCy9g3bp1VneFghQzRuQbvlYoUDCrFAiYU7I7ZpTsglkkO2AOye6YUWIGQkeY1R0gCjS7d+/Gvffei8WLFyMlJcXq7lAQYsaIfMPXCgUKZpUCAXNKdseMkl0wi2QHzCHZHTNKzEBo4V80EqnkcDiwYcMGdOrUyequUJBixoh8w9cKBQpmlQIBc0p2x4ySXTCLZAfMIdkdM0rMQGjhdzRahN/RSERERERERERERERERIGMH51KRERERERERERERERERKpxoZGIiIiIiIiIiIiIiIiIVONCIxERERERERERERERERGpxoVGIiIiIiIiIiIiIiIiIlKNC41EREREREREREREREREpBoXGomIiIiIiIiIiIiIiIhINS40EhEREREREREREREREZFqXGgkIiIiIiIiIiIiIiIiItW40EhEREREREREREREREREqnGhkYiIiIiIiIiIiIiIiIhU40IjEREREREREREREREREanGhUYiIiIiIiIiIiIiIiIiUo0LjURERERERERERERERESkGhcaiYiIiIiIiIiIiIiIiEg1LjQSERERERERERERERERkWpcaCQiIiIiIiIiIiIiIiIi1bjQSERERERERERERERERESqcaGRiIiIiIiIiIiIiIiIiFTjQiMRERERERERERERERERqcaFRiIiIiIiIiIiIiIiIiJSjQuNRERERERERERERERERKQaFxqJiIiIiIiIiIiIiIiISDUuNBIRERERERERERERERGRalxoJCIiIiIiIiIiIiIiIiLVuNBIRERERERERERERERERKpxoRGAiFjdBSIiIgphnItQoGBWyRfMCRERERERUehoZXUHzFBSUoLi4uIWt/34449Yvnw5lixZYnKvyA6+//57rFy5EocOHYKI4LrrrkNmZia6d++uue36+np8/vnn+Pzzz1FaWop27dphwIAByMrKQtu2bQ0/HgB27NiBtWvXori4GNHR0UhNTcW4cePQsWNHradHPjIyY4A+OblSXV0dtm7dinXr1qGoqAjt27fHlClT8Itf/KLF/Y0+RwoNRudo//79+Oyzz3D48GGEhYXB6XRiyJAhSEtL89inkydP+vwcycnJSExMbHEb5yLBw4is6pk1rWM/sxocjK6peueEc4/QY/TvUI/rIH/mDt5MnToVlZWVmD9/vt9tkL6MzuKWLVuwbds2HD16FAkJCejXrx9GjRqFmJgYn47XmmUjckz6M3Nc27x5M0pKSjBhwgSfj9GaQ96bCnxGZ1Tv9tXOLVkrvbN7BrTWGa3jNQGQEDB06FAB4Pbn9ddfN71PhYWFMn/+fNm7d6/pz02XzZgxQ6KioiQzM1M+/fRTWb9+vWRlZUlkZKRMmzZNXC6X322Xl5fLsGHDpGfPnrJo0SLZuHGjvPnmmxIfHy/x8fGybNkyQ4+vqKiQW2+9tcW8d+rUSXJzc/0+N/KdkRkT0Z6TK1VWVsqLL74oHTp0kB49esjf//53OXfunMdjjD5HCg1G5qi0tFRGjRol8fHx8tprr8n69evlo48+kocSL/b+AAAgAElEQVQfflgAyP333y/l5eUtHnvbbbd5nD9c+bNy5Uq3/bDjXITUMyqremRNr7GfWQ18ZozNeuWEc4/QZOTvUI9aqGXu4MnChQsFgHTv3t2PMyMjGJnFgoICycjIaDGLV199taxevdrj8VqzbFSOSX9mjWu5ubnK+D1p0iSfjtGaQ96bCg5GZ1TP9tXOLVkrfWPnDGitM1rHa/qPoF9o3LFjh8eL4NatW0tFRYXp/eJCo7WmTJkiAGT8+PFNipXL5ZIJEyYIAHnyySf9arugoEC6dOkicXFxcvz48SbbSkpKpGPHjuJwOOSf//ynIcdXVFTIDTfcIP369ZNXXnlF1q1bJ//4xz/kjjvuUHLfpk0bKSsr8+v8yDdGZkxEe06utHTpUomPjxcA8uCDD0p1dbXXY4w+RwoNRubo3LlzkpqaKrGxsVJcXNxs+3vvvScAJD09Xerr65tsKyoqkrCwMJ8XfqKjo92+buw6FyF1jMqqHlnTa+xnVgOfGWOzXjnh3CM0Gfk71KMWapk7eHLs2DGJiYnhQqONGJnFgwcPSocOHQSApKSkyIgRI8TpdDaplWFhYbJ58+YWj9eaZaNyTPozY1zLy8uT9PT0JvnzZaFRaw55byo4GJ1RPdtXO7dkrfSNnTOgtc5oHa+pqaBfaMzMzJT09HRZt25diz/ffPONJf3iQqN1PvvsM+VGXWlpabPtp0+flquuukoAyJo1a1S331DMXnvttRa3L1682GOh03p8VlaWPPfcc1JbW9ts2+TJk5VCOX36dJVnRr4yOmMi2nPSoK6uTp599lkBIFFRUTJv3jyfnt+Mc6TgZ3SOHnvsMQEgU6dObXG7y+VSJpFr165tsm3q1KnStWtXWbBggeTn58uxY8da/Gl4rd1///1u+2HXuQj5zsis6pE1vcZ+ZjWwmTU2a80J5x6hy+jfoR61UMvcwZ26ujpJS0uTtm3bcqHRJozMYn19vdx4441y0003NXtD6J49eyQpKUnJYteuXaWqqqpZG1qzbESOSX9mjGtff/21rFixQs6fPy/vvPOOqoVGrTnkvanAZ3RG9Wrf37kla6V3ds+Aljqjx3hNTQX1QuORI0ckLCxMdu7caXVXmuFCo3X69u0rAGT06NFu9xk3bpwAkF69eqlqu6FAApADBw60uM+FCxeUi8ynnnpK1+P3798v48ePd9u/qqoqiYyMFAAycuRIVedGvjMyYyLac9LYo48+qrS1ZMkSn/tg9DlSaDA6RwkJCQJA5s6d63afsWPHCgCZMWOG8m8XL16U3r17S2FhodfnaJi8fvDBBy1ut/NchHxnVFb1yJpeYz+zGvjMGJv1yAnnHqHLyN+hXrXQ37mDJ7NmzZIRI0ZIdnY2Fxptwsgsrl69WlJSUuT8+fMtbi8rK1P+egKAbNq0qcl2PbJsRI5Jf2aPa99++63PC41ac8h7U8HB6Izq1b6/c0vWSu/snAGtdUbreE3NhSGIvfXWW7jzzjsxcOBAq7tCNvHVV1+hoKAAAHDnnXe63e/uu+8GAHz33XfYv3+/z+1/8MEHAACHw4HevXu3uE/r1q2RmpoKAFiwYAFOnTql2/GlpaWYM2eO2/7FxMTg2muvBQDEx8f7elqkgtEZA7TnpMFf//pXLFy4EAAwatQoPPzwwz49vxnnSMHPjBxVVlYCAHbu3Ol2n4qKCgBAbGys8m8nTpzAG2+8gR49enhs3+VyYdWqVYiMjMR9993X4j6ciwQ+I7OqR9b0GvuZ1cBm1tisNSece4Quo3+HetVCf+cO7uzatQvvvvsuFi1ahLCwoL79EjCMzuLSpUsxZ84ctGnTpsXtiYmJeOKJJ5T/3r17d5PtemRZ7xyT/qwY1yIiInzeV2sOeW8q8BmdUb3a93duCbBWemP3DGitM1rHa2ouaGe65eXlWLp0Kb788kvcfffdePXVV5GXl4eLFy9a3TWy0LJly5TH7hZoAMDpdCqP16xZ43P7hw8fBgC0a9cO4eHhbve7/vrrAQC1tbXYtGmTbsePGDECcXFxbo+rra3FiRMnAAAPPPCAl7MhfxidMUB7TgCgqKgIL774IoDLA+78+fN9fn4zzpGCnxk5aphUrlmzBsXFxc2219bWYt++fQCAIUOGNHnOkSNHem3/yy+/RFlZGTIyMlq88OBcJDgYmVU9sqbH2M+sBj4zaqrWnHDuEdqM/h3qdR3k79yhJdXV1XjooYcwd+5cdOnSxdspkEmMzmJsbCzuuusuj/vcdtttyuPq6uom2/TIsp45JmPYfVzTmkPemwp8RmdUj/a1zC0B1kpv7J4BrXVG63hNzQXtQmNOTg5qampQVVWFDRs24KWXXsLw4cORmJiImTNn4ty5c1Z3kSywbds25XFKSorb/RpvU1Mkjxw5AgCoqanxuF/j9vPz83U73pu8vDzU1NTgkUce8fhuEfKf0RkD9MnJtGnTUFtbCwAYP368qncRmnGOFPzMyFHDZLKyshJjxoxBVVVVk+05OTk4c+YMsrOzkZaWpqptAFi+fDkAYPTo0S1u51wkONih5nnLmie+jP3MauAzI6dac8K5R2iz+nfo63WQnnOHKVOmYPDgwcjKytJ+AqQbo7P4/vvve92nXbt2yuN+/fr53DbgW5aNngOTdlbXRK203lvivSn7MzqjerSvZW4JsFZ6EwgZ8MRbnTF6vA5JVn92q1EyMzOV7ydr6Sc5OVmOHj1qWf/4HY3WiIqKUr5k1pvY2FgBIGFhYVJXV+d1f5fLJdHR0UrGqqur3e47b948Zb+xY8fqcrw3Z8+elW7duskzzzwjly5d8ukYUs/IjInok5NTp06Jw+FQtn3xxReyd+9eef7552XkyJEyduxY+fOf/yy7du2y5BwpNJiRo3PnzklycrKS9dTUVOVLvpcvXy4REREycuRIv77Uu76+Xjp37izh4eFSUVHR4j52n4uQb6yueb5kzR1fx35mNfCZkVMtOeHcg6z8Haq5DtJr7rBq1Srp3r27VFZWKv/20EMP8TsabcAO9WTFihUCQBwOh5IvX/iaZSPnwKQPK3J44MABn7+j0ROt95Z4byowGJ1Rre1rnVuKsFZ6Y/cMeKJXnfF3vA5VQfsXjatWrcJPP/2EH374AWvWrMHo0aMRGRmpbC8sLMTgwYOVP6Gl4Hfu3DnlL8B8eZdLwz4ulwtnzpzxur/D4WjyHUvbt293u2+rVq2UxxcuXNDleE++/vpr3HLLLfjhhx/Qvn17XLp0yesxpJ7RGQP0ycnq1ashIgAuf0/D/PnzkZGRgdzcXBw5cgTLli3DtGnTkJaWhmeffbbJR6KZcY4U/MzKUWxsLDZu3Kh8XNm+ffuQmpqKBx54AE8++SRycnLwySefICYmRvU5NHyU5fDhw92eA+cigc8ONc+XrLVEzdjPrAY2s3KqJSece4Q2K3+Haq+D9Jg7lJWVYdKkSViyZAn+67/+S1P/SV92qSc7duwAcPmTCrp37+7TMWqybOQcmLSzSw79ofXeEu9NBQajM6pH+1rmlg1YK90LhAy4o2ed8We8DmVBu9DYICEhAffddx9WrFiB0tJSPP/888qXsFdUVKj6klgKbOXl5crj6Ohor/s33uf06dM+PUdGRoby+OOPP3a7n8vlUh4nJCTodvyVtm7diuzsbAwePBiHDh3ChQsXMGvWLAwYMADHjx93fyLkFzMyBmjPyebNm5XHHTt2xJgxY1BRUYHdu3fj8OHDOHToEFJSUiAimD17NiZPnqzsb9Y5UnAzM0c9evTA9u3b0atXLwBAVVUVli9fjuuuuw6jRo1S1VZjaj7KknORwGWHmqf2Y1O1jP3MamAyO6f+5IRzj9Bmxe9QSy3UMncQEUycOBETJ07EsGHD/Oo7GccO9aSurg4ffvghwsPDMWPGDK/7+5tlo+bApJ0dcqiW1ntLvDcVWIzOqB7ta5lbNsZa2bJAyMCV9K4zasdrCoGFxsbi4uLw5ptvYtWqVQgPDwdw+fOAt27danHPyAw//fST8tjhcHjdvyEjwOXP6/bF7373O0RERAAAFi5c2OTzphvbsmWL8rhTp066Hd9YdXU1Dhw4gIEDB+KJJ55AYmKisu3AgQP49a9/rbz7h/RhRsYA7TkpKSlRHv/lL39pdvPa6XRi48aNyuLkokWLsGfPHgDmnSMFN7Nz1L17d+VL4hts3boVv/zlL7F3717V7blcLqxcuRIOhwOZmZmqjuVcJLBYXfPUZk3PsZ9ZDRxW5tTXnHDuEdrM/h3qUQv9nTvMmTMHp0+fxp/+9CfV/Sbj2aGeLF26FKdPn8bMmTORmprqcV+tWdZ7Dkz6sEMO1dCaQ96bCjxGZ1SP9rXMLa/EWtlcIGSgMSPqjJrxmv4/Kz6v1Q5effVV5TOYZ82aZfrz8zsazVdYWKj8znv27Ol1/+uvv17Z/+DBgz4/zzvvvCNhYWECQDp27CjLly+XyspKOX36tHz88ccyePBgufrqq5W2V69erevx7tTV1ckbb7wh4eHhyrEffvihz+dF3pmVMRFtOUlKSlL+/ciRI26fY+rUqcp+jzzyiOnnSMHL7BzNmjVL2rZtKxs2bJCZM2c2qYNt27aVf/3rX6ray8vLEwAyZMgQ1X1pzOq5CHlndc3TmjW9xn5m1d6szmkDTznh3CO0Wf079KcW+jN3KCgokHbt2smBAwdabJPf0Wg9q7N49uxZiY+Pl9tvv13q6+tVH682y3rPgUkfVuVQr+9o1Dq/5L0p+zM6o3q0r2VueSXWyuYCIQOeaK0zWsfrUBWyC41VVVXSvn17ASC/+c1vTH9+LjSar7q6WikuV199tdf9e/Tooex/9uxZVc+1cuVKiYuLU45v+Bk6dKjk5+fLXXfdJQAkPDxczp07p/vxnrz11ltKe2PHjlV1LHlmZsZE/M9JSkqKsm95ebnb9nfv3q3sl5aWZsk5UnAyM0eTJ08WALJixQrl37Zu3SqdO3dW2rzmmmukrKzM5zaffvppASB/+9vfVPXlSlbPRcg7q2ueXlnTOvYzq/ZmdU4beMoJ5x6hzS6/Q19roT9zh5qaGunXr5/Mnj3bbbtcaLSe1VnMzs6W1NRUqays1NSOL1k2Yg5M+rAqh3otNDbQOr/kvSn7MjqjerSvZW7ZGGtlywIhA77wt87oNV6HmpBdaBQRuf322wWAjBs3zvTn5kKjNWJiYgSAtG7dWlwul8d927ZtKwAkKirK674tqampkS1btsiHH34oX3zxhZw5c0ZERMrKyiQiIkIAyL333mvY8e5cunRJ+Uu3QYMGqT6ePDMzYyL+5eSmm25SBtqTJ0+6bfvixYvKfu3atbPsHCk4mZGj9957T4CW/xqsuLhY+vbtq2Tc18WT+vp65aLjxIkTPvfFHSvnIuQbq2qenlnTY+xnVu3NLmOzu5xw7kF2+B36Ugv9nTu88sorEhcXJ++++6689957Lf4MGDBAAEhcXFyTf+dNLHNZlcU33nhDevbsqcvNam9ZNmIOTPqyIod6LzRqnV/y3pS9GZ1Rre1rnVuKsFZ6Y/cM+MKfOqPneB1qQuo7Gq90zTXXAABiY2Mt7gmZ5cYbbwQAXLx4EaWlpW73++GHH1BVVQUAGDZsmE+fF32lyMhIDB8+HA8++CDS09MRFxcHAMjJycGlS5cAAH/4wx8MO96dVq1a4e677wYAfg6+AczMGOBfTnr06KE89vTZ6VFRUUp9rKurU/7d7HOk4GRGjv74xz8CAMaMGdNsW1JSEjZv3qy8Zv73f//Xp+8S2L59O8rKynDTTTehW7duPvfFHc5F7M+qmqdn1vQY+5lVe7PL2OwuJ5x7kB1+h77UQn/nDsXFxTh79iyefPJJTJo0qcWfr7/+GgBw9uzZJv9eUVGh2zmSd1Zk8ZNPPsH8+fOxefPmJt8b5S9vWTZiDkz6skNN1Err/JL3puzN6IxqbV/r3BJgrfTG7hnwhdo6o/d4HWpCeqHx5MmTAC5/QSyFhuHDhyuPjx075na/xttGjhyp2/MXFxdj9uzZAIB77rkHQ4YMMfX4Bg1fhqzHTXJqyuqMAd5zcvPNNyuPjx496rGt1q1bAwCuvfZa5d/scI4U+IzO0enTp1FWVgYASE5ObnGfTp06KV/6XlNT47EfDZYvXw4Azb5s3l+ci9ifVTVP76xpHfuZVXuzy9jsLiece5BdfoeeaqGWuUNaWhoeeughjz89e/YEAFx11VVN/j0mJkb38yT3zM5ibm4unnvuOWzcuFF5M4Ye3GXZqDkw6csuNVErrfNL3puyL6MzqrV9rXNL1krv7J4BX/laZ4war0NJSC80Hjp0CA6HA/fff7/VXSGTZGdnK48LCgrc7td423333afLc9fX1+PRRx/FhQsXkJiYiEWLFpl6fGMnTpwAcHkRivRlZcYA33Jy7733Ko8b3lndkkuXLinvsB48eLDy71afIwUHo3PU+N2GLpfL7X4DBgxQHtfW1npsU0SwcuVKAPot/nAuYn9W1DwjsqZ17GdW7c0uY7O7nHDuQXb5HXqqhVrmDo8++ig++OADjz8ZGRkALt/wavzvnTp10uPUyEdmZnHXrl149NFHsW7dOrc3sgFg9+7d+Pe//62qbXdZNmIOTPqzS03USuv8kvem7MvojGptX+vckrXSO7tnwFe+1Bkjx+uQYtmHtlrsq6++EgAyceJES56f39FonYyMDK/fbzhy5EgBIEOHDm1x+7/+9S/Vn9X89NNPCwBp27atbNu2TdWxehzfoKamRq6++mrp1q2bnD9/3u92yD2rMibie06GDh0qAKRXr15uP9/8u+++Uz6P/l//+leTbXqcI5GRr5X6+nrlc/xfe+01t+1/8cUXAkDCw8Plxx9/9Njfbdu2CQC54YYbPO7nK6vnIuQ7s+u63lnTOvYzq4HByvmHiPeccO5BVmfUWy00Yu7Q2KRJkwSAdO/e3a/+k37MyOK+ffukR48e8u2333rsy+nTpyU9PV3Vd055yrLROSb9mF0T9f6ORq3zS96bsj+jM6q1fS1zS9ZK39g9A974UmeMHK9DTVAuNObk5EhWVpbMnj1bLly40Gx7XV2d9O/fX3r37i1nz561oIdcaLTSvn37pFWrVtKqVSs5cuRIs+1Hjx6VyMhICQsLk2+++abJtkuXLsnNN98sACQyMlLef/99r89XU1MjEyZMEADSsWNHyc/PV9VfNcefOXNGcnJy5IsvvnC7T05OjkRFRUlubq6qfpDvzM6YiPqc5efnS3h4uACQxYsXt7jPH/7wBwEgGRkZup4jUQOjXytPPfWUAJCkpCS5ePFii32YOXOmAJDf/va3XvvbsJA/a9Ysr/sGwlyEfGd2XVeTNa1jP7MaPIzMqR454dyDjMyoXtdBes8dGuNCo30YPa4fPXpUEhMTZfz48TJ79uwWf95++215+eWXJSkpSV5//XXlWD2ybGSOST9mzy+3bNmiLLg8/vjjHvfVmkPemwoORmdU69xO69yStdI7O2dAjzqjZbym5oJyobFz587K4JmSkiJbtmxRth0/flxuueUWyczMlFOnTlnWRy40Wmvx4sUSFhYmw4YNk6qqKuXfq6urJT09XRwOhyxYsKDZcUeOHFGyBUCio6OlpqbG7fPk5uZK//79BYBkZ2dLaWmpqn6qPb5hAAQgw4YNk927dyvbamtr5e233xan0ymbN29W1Q9Sz6yMififswULFojD4ZDIyEhZvXp1k207d+6U2NhY6datm9v2/D1HosaMfK38/PPPcv311wsAGTduXLN3sO3YsUOio6MlKSnJ6zuBXS6XdOnSRQDI/v37vZ5XIMxFSB2z6rrarGkd+5nV4GJUTvXKCeceZFRG9boO0nPucCUuNNqLUVk8efKkdOvWrck+nn4iIiKkvLxcOV6PLBuZY9KXmfcNGhZcAMigQYM8/lWO1hzy3lTwMDqjWud2WuaWrJW+sWsGtNYZreM1NReUC41z5syRiIiIJmFISUmRXr16Sd++fWX9+vVWd5ELjTawdu1a6dWrlzidTnnppZdkxowZ0qdPH0lOTpaPP/64xWNqa2uVd2M0/Fz5OywqKpJ58+bJ7bffLm3atJHs7GxVH3Wq5fg9e/ZIQkJCk/717NlTBg0aJE6nUxYsWCCXLl3yuS+kjVEZE9GeswaffvqpJCcnS3h4uKSnp8v06dMlOztbYmNjJTs7W86cOaP7ORJdycjXyvnz52Xq1KnSqlUrSUpKkokTJ8rMmTNl1KhREhkZKWPHjvVpAaXhoyx79erl0zkFwlyE1DMyqw3UZk3r2M+sBh8jcqpnTjj3ICMyqud1kF5zhytxodF+9M5iXV2dOJ1On29aApAxY8Y0aV+vLBuVY9KfkfPLkpISmTZtmtxzzz3icDia7D9o0CD5/e9/L6tWrWp2nNYc8t5UcDH6Gkjr3E7L3JK10jd2zICWOqPHeE3NOUREEIR+/PFHbN26FeXl5XC5XEhISMCNN97o8Qs9zVRUVIRNmzYhLS0NqampVncnZNXV1SE/Px+HDx+GiKB3797o378/IiIiPB5XUlKCU6dOYdCgQaioqEBcXBwAoLS0FC+//DKcTif69OmDW2+9FTExMT73R+vxAFBdXY28vDwUFhaiVatWiIuLQ2pqKpxOJxwOh6q2SDu9Mwbok5PGRAS7du1CQUEBamtrcc0112DgwIFISEgw9ByJGjPitdJYVVUVDh48iIKCAtTV1aFz584YMmQIOnTo4FP/SkpKUFhYiI4dO6JPnz4+HWP3uQj5x+is+pM1rWM/sxp8jMipnjnh3IOMyKje10Fa5w4UGIwe1/2hZ5aZ48AQjDnkvangYnRGtc7ttM4tWSu9s2MGWGfsJWgXGu2OC42B75NPPsHs2bORm5trdVcoSDFjRL7ha4UCBbNKgYA5JbtjRskumEWyA+aQ7I4ZJWYgNLSyugNEgai0tBQvvPAC1q1bZ3VXKEgxY0S+4WuFAgWzSoGAOSW7Y0bJLphFsgPmkOyOGSVmIHSEWd0BokCze/du3HvvvVi8eDFSUlKs7g4FIWaMyDd8rVCgYFYpEDCnZHfMKNkFs0h2wByS3TGjxAyEFv5FI5FKDocDGzZsQKdOnazuCgUpZozIN3ytUKBgVikQMKdkd8wo2QWzSHbAHJLdMaPEDIQWfkejRfgdjURERERERERERERERBTI+NGpRERERERERERERERERKQaFxqJiIiIiIiIiIiIiIiISDUuNBIRERERERERERERERGRalxoJCIiIiIiIiIiIiIiIiLVuNBIRERERERERERERERERKpxoZGIiIiIiIiIiIiIiIiIVONCIxERERERERERERERERGpxoVGIiIiIiIiIiIiIiIiIlKNC41EREREREREREREREREpBoXGomIiIiIiIiIiIiIiIhINS40EhEREREREREREREREZFqXGgkIiIiIiIiIiIiIiIiItW40EhEREREREREREREREREqnGhkYiIiIiIiIiIiIiIiIhU40IjERERERERBQ0RsboLZHN6ZIQ5IyK6jPWQ7I4ZJTJeK6s7YIW6ujps3boV69atQ1FREdq3b48pU6bgF7/4hdVdI5N9//33WLlyJQ4dOgQRwXXXXYfMzEx0795dc9v19fX4/PPP8fnnn6O0tBTt2rXDgAEDkJWVhbZt2xp+PADs378fn332GQ4fPoywsDA4nU4MGTIEaWlpWk+PfGRkxgB75GTHjh1Yu3YtiouLER0djdTUVIwbNw4dO3bUcmoUYuxcjwHtOWc9Dh5G13UjsjJ16lRUVlZi/vz5HvfT47VC9mBETr///nucPHnS5/2Tk5ORmJjodb/NmzejpKQEEyZM8LntkpISFBcXt7jtxx9/xPLly7FkyRKf2yPzGV1L9ciIETnztR6TeYzOopY5pFHjMnNoP0bncMuWLdi2bRuOHj2KhIQE9OvXD6NGjUJMTIxPx+tdD3lfNvAYndHGrJgb8r6Wd0ZnQGv7Vl5H0/8nIaSyslJefPFF6dChg/To0UP+/ve/y7lz5yzpS2FhocyfP1/27t1ryfOTyIwZMyQqKkoyMzPl008/lfXr10tWVpZERkbKtGnTxOVy+d12eXm5DBs2THr27CmLFi2SjRs3yptvvinx8fESHx8vy5YtM/T40tJSGTVqlMTHx8trr70m69evl48++kgefvhhASD333+/lJeX+31+5BsjMyZifU4qKirk1ltvFQDNfjp16iS5ubmazo9Ch53rsdacsx4HFyOzalRWFi5cKACke/fuHvfT+loh+zAqp7fddluLtdDdz8qVKz22l5ubK0OHDhUAMmnSJFV9aTjO3c/rr7/u1zmSOYyeI4vokxG9c+ZrPSbzGJlFrXNIo8Zl5tB+jMxhQUGBZGRktJjDq6++WlavXu1TO3rVQzvdlyXfmTFui1gzN+R9Ld8YnQEt7Vt9HU3/ETILjUuXLpX4+HgBIA8++KBUV1db2h8uNFprypQpAkDGjx/fpFi5XC6ZMGGCAJAnn3zSr7YLCgqkS5cuEhcXJ8ePH2+yraSkRDp27CgOh0P++c9/GnL8uXPnJDU1VWJjY6W4uLjZ9vfee08ASHp6utTX1/t1juSdkRkTsT4nFRUVcsMNN0i/fv3klVdekXXr1sk//vEPueOOO5RJWZs2baSsrMzvc6TQYOd6rDXnrMfBxcisGpWVY8eOSUxMjNcLJK2vFbIPo3JaVFQkYWFhPi8yRkdHu73eysvLk/T09Cb7q7mZtGPHDo/P3bp1a6moqFB9jmQOo+fIIvpkRO+c+VqPyTxGZlHrHNKocZk5tB8jc3jw4EHp0KGDAJCUlBQZMWKEOJ3OJrUsLCxMNm/e7LEdveqh3e7Lkm/MGLetmhvyvpZvjM6Alvatvo6mpoJ+obGurk6effZZASBRUVEyb948q7skIlxotNJnn32m3AApLS1ttv306dNy1dZOcSkAACAASURBVFVXCQBZs2aN6vYbBqTXXnutxe2LFy/2OFhpPf6xxx4TADJ16tQWj3e5XMrkcu3atSrOjHxldMZErM9JVlaWPPfcc1JbW9ts2+TJk5VJ2fTp01WeGYUSu9djrTlnPQ4eRmfViKzU1dVJWlqatG3b1usFktbXCtmDkTmdOnWqdO3aVRYsWCD5+fly7NixFn8asnL//fe32M7XX38tK1askPPnz8s777zj182kzMxMSU9Pl3Xr1rX4880336g6NzKPGXNkEX0yomfO1NRjMofRWdQ6hzRiXGYO7cfIHNbX18uNN94oN910U7PF6j179khSUpKSw65du0pVVZXbtrTWQ7velyXvzBi3rZwb8r6Wd0ZnQGv7Vl9HU1NBv9D46KOPKoVhyZIlVndHwYVG6/Tt21cAyOjRo93uM27cOAEgvXr1UtV2Q4EEIAcOHGhxnwsXLijF6qmnntL1eBGRhIQEASBz585128+xY8cKAJkxY4aKsyNfGZkxEetzsn//fhk/frzb46qqqiQyMlIAyMiRI308KwpFdq7HeuSc9Th4GF3XjcjKrFmzZMSIEZKdne3xAkmPMYXswaicXrx4UXr37i2FhYVe9224KfPBBx943ffbb79VfTPpyJEjEhYWJjt37vRpf7IXo2upiD4Z0TtnvtZjMo+RWdQ6hzRqXGYO7cfIHK5evVpSUlLk/PnzLW4vKytT/toRgGzatKnF/fSoh3a9L0vemTFuN2bm3JD3tXxjdAa0tm/ldTQ1F4Yg9te//hULFy4EAIwaNQoPP/ywxT0iq3311VcoKCgAANx5551u97v77rsBAN999x3279/vc/sffPABAMDhcKB3794t7tO6dWukpqYCABYsWIBTp07pdjwAVFZWAgB27tzptp8VFRUAgNjYWK/nROoYnTHA+pyUlpZizpw5bo+LiYnBtddeCwCIj4/3dCoUwuxej/XIOetxcDCjruudlV27duHdd9/FokWLEBbmebqvx5hC1jMypydOnMAbb7yBHj16eNzP5XJh1apViIyMxH333ee13YiICJ+ev7G33noLd955JwYOHKj6WLKWGbUU0CcjeuZMTT0mcxidRa1zSCPGZebQfozO4dKlSzFnzhy0adOmxe2JiYl44oknlP/evXt3i/tprYe8Lxu4zBq3GzNzbsj7Wt4ZnQE92rfyOpqaC9r/Y0VFRXjxxRcBXC4I8+fPt7hHZAfLli1THrubtAOA0+lUHq9Zs8bn9g8fPgwAaNeuHcLDw93ud/311wMAamtrsWnTJt2OB6AMhGvWrEFxcXGzY2tra7Fv3z4AwJAhQ7yeE6ljdMYA63MyYsQIxMXFuX3e2tpanDhxAgDwwAMPeDkbClV2r8d65Jz1ODiYUdf1zEp1dTUeeughzJ07F126dPH63HqMKWQ9I3PqdDoxcuRIr/t9+eWXKCsrQ0ZGhiFvnigvL8fSpUvx5Zdf4u6778arr76KvLw8XLx4UffnIv2ZUUv1yIieOVNbj8kcRmdR6xxS73GZObQno3MYGxuLu+66y+M+t912m/K4urq62Xat9ZD3ZQObGeO2Vloyyvta3hmdAT3at/I6mpoL2oXGadOmoba2FgAwfvz4kH33ATW1bds25XFKSorb/RpvU1Mkjxw5AgCoqanxuF/j9vPz83U7HvjPAFhZWYkxY8agqqqqyfacnBycOXMG2dnZSEtL8/g8pJ7RGQPsn5O8vDzU1NTgkUce8fiuJAptdq/H3viSc9bj4GBGXdczK1OmTMHgwYORlZXl03Mb/Vohc5iRU2+WL18OABg9erSu7TbIyclBTU0NqqqqsGHDBrz00ksYPnw4EhMTMXPmTJw7d86Q5yV9mJFRPTKiZ87U1mMyh9X10tscUu9xmTm0J6Nz+P7773vdp127dsrjfv36NduutR7yvmxgs7pW+sLIuSHvaxmfAT3at/I6mlpg9We3GuHUqVPicDiUz3X+4osvZO/evfL888/LyJEjZezYsfLnP/9Zdu3aZVkf+R2N1oiKilK+ZNab2NhYASBhYWFSV1fndX+XyyXR0dFK7qqrq93uO2/ePGW/sWPH6nJ8g3PnzklycrKyPTU1Vfny7+XLl0tERISMHDnS45d9k/+MzJiI/XNy9uxZ6datmzzzzDNy6dIlVcdSaLFzPfbG15yzHgcHo+u6iH5ZWbVqlXTv3l0qKyuVf3vooYfcfreE0a8VMo8ZOfWkvr5eOnfuLOHh4VJRUeHTMQcOHFD1PTyZmZnKd5K19JOcnCxHjx7VeipkEDMyqkdG9MqZ2npM5rGyXnqbQ+o9LjOH9mX1uC0ismLFCgEgDodDmXc2pqUeBsJ9WfLMiozaZW7I+1qXGZ0BPdq36jqaWhaUf9G4evVqiAiAy5/vPH/+fGRkZCA3NxdHjhzBsmXLMG3aNKSlpeHZZ5/lx+2EiHPnzinvCvTlnVQN+7hcLpw5c8br/g6Ho8l312zfvt3tvq1atVIeX7hwQZfjG8TGxmLjxo3Kn3nv27cPqampeOCBB/Dkk08iJycHn3zyCWJiYryeE6ljdMYAe+fk66+/xi233IIffvgB7du3x6VLl3w+lkKL3euxJ2pyznoc+Myo64A+WSkrK8OkSZOwZMkS/Nd//ZdPz2vka4XMY1ZOPWn42NThw4cb9hcLq1atwk8//YQffvgBa9aswejRoxEZGalsLywsxODBg5WPuSL7MCujemREjzb8qcdkDivrpS9zSD3HZebQvuwwbgPAjh07AFz+JILu3bs3266lHvK+bGCzS0a9MWJuyPtalxmdAb3at+o6mloWlAuNmzdvVh537NgRY8aMQUVFBXbv3o3Dhw/j0KFDSElJgYhg9uzZmDx5soW9JbOUl5crj6Ojo73u33if06dP+/QcGRkZyuOPP/7Y7X4ul0t5nJCQoNvxDXr06IHt27ejV69eAICqqiosX74c1113HUaNGuXlLMhfZmQMsF9Otm7diuzsbAwePBiHDh3ChQsXMGvWLAwYMADHjx/3uR0KHYFQj6/kb85ZjwObWXUd0JYVEcHEiRMxceJEDBs2TNXz6v1aIfOZmVN3jP7Y1MYSEhJw3333YcWKFSgtLcXzzz+PsLDLl7UVFRV4+OGHDe8DqWN2RvXIiL9taKnHZDwr6qXaOaQe4zJzaG92GLfr6urw4YcfIjw8HDNmzPC4rz/1kPdlA5sdMqqGHuM+72s1ZXQG9Gzfqutoai4oFxpLSkqUx3/5y1+aXfA6nU5s3LhRmYwtWrQIe/bsMbWPZL6ffvpJeexwOLzu3/iL1ysrK316jt/97neIiIgAACxcuLDJ5003tmXLFuVxp06ddDu+se7duytfvN1g69at+OUvf4m9e/d6PRdSz4yMAfbKSXV1NQ4cOICBAwfiiSeeQGJiorLtwIED+PWvf628k5GoQSDU48a05pz1OHCZVdcb+JuVOXPm4PTp0/jTn/6k+jn1fK2QNczO6ZVcLhdWrlwJh8OBzMxMze2pERcXhzfffBOrVq1Szmvbtm3YunWrqf0gz6zMqB4ZUdOGlnpMxjM7i/7MIfUYl5lDe7N63AaApUuX4vTp05g5cyZSU1N9Ps7Xesj7soHNDhn1lz/jPu9rNWd0BvRu34rraGouKBcaG6+K9+/fv8V9rr32WkycOBHA5dXruXPnmtI3sk7jP8Vu/O4/d+rr61s81pOkpCS8/fbbCAsLw6VLl5CVlYUVK1Yof8q/evVqDBkypMnFwoABA3Q7vrE//vGPePrpp7FhwwbMnDlTKcqlpaUYOnQob24bwIyMAfbKSUxMDCZPnoxnnnkGc+bMQUlJCd544w2lne3bt+Ojjz7y+dwoNARCPW5Ma85ZjwOXWXW9gT9ZOXjwIGbOnIkPP/ywyUcF+UrP1wpZw+ycXmn79u0oKyvD4MGD0blzZ83t+eNXv/pVkxsEjW/Ak/WsziigT0a8taG1HpPxzM6iP3NIreMyc2h/VtfEf//733jhhRdw++23Y/r06X614a0e8r5sYLM6o3pQM+7zvlZzRmdA7/atuI6mFljxxZBGS0lJUb4EtLy83O1+u3fvVvZLS0szsYcihYWFMn/+fNm7d6+pzxvKqqurld/31Vdf7XX/Hj16KPufPXtW1XOtXLlS4uLimn0R8dChQyU/P1/uuusuASDh4eFy7tw53Y+fPHmyAJAVK1Yo/7Z161bp3Lmz0tY111wjZWVlqs6LPDMzYyL2zslbb72ltDF27FjVx1NwC6R67IkvOWc9DmxmZtWfrNTU1Ei/fv1k9uzZbtv19UvsjXytkLHMnn9c6emnnxYA8re//U3VcQcOHFD6MWnSJM39qKqqkvbt2wsA+c1vfqO5PdKP1RltoEdG3LWhZz0m49gli77MIf0Zl5nDwGB1DrOzsyU1NVUqKys1teOppgbCfVlyz6qM2m1uGMr3tYzOgJ7tW30dTf/xn2+PDiLt2rVTHnv60tYbbrhBeXz48GFD+0TWu+qqqxATE4Pq6mqcOXMGIuLxz7MrKioAAFFRUWjfvr2q5xo1ahT++7//Gzt27EBJSQm6dOmC1NRUxMXFoby8XPm8+rvuuguxsbG6Hj9//nzMnTsXQ4YMafLxFMOGDcPOnTtxzz33oKCgACdPnsT06dOxcOFCVedG7pmZMcDeOXnmmWcwe/ZslJSU4Pvvv1d9bhTcAqkee+It56zHgc+srPqblTfffBMlJSWIjIzE/PnzW2z7u+++A3D5uyoa7zN+/PgmX3Zv5GuFjGX2/KMxl8uFFStWAIDl3zsbExOD/v37Y9OmTfj5558t7Qs1ZWVGG9MjI+7a0LMek3HskkVfrpX8GZeZw8BgZQ7ffPNN7N69G3l5eZp/355qKu/LBja71EqttI77oXxfy+gM6NW+Ha6jqRGLFjgN9cADDygr1gcOHPC4b2xsrACQmJgYk3p3Gf+i0RrDhg1TslFSUuJ2v9OnTyv73XHHHbr24Q9/+IPS9pdffqn78Q3v2HD3rozy8nLlnZFRUVH8qwSd2SFjIvbIyeOPP853JpJbdnitaK3HIp5zznocHMzIqr9Zeeyxx5r9pYOvP8eOHfO5f3q8VshYVtXUvLw8ASA33XST6mP1fte6iMjEiRMFgPzP//yPLu2Rfuww7ovok5GW2jCrHpN2dsmilmsld+Mycxg4rMjh6tWrpUePHvL9999raqcxdzU1EO7LkmdWZNSOc8NQvq9ldAb0aN/u19GhJij/ovHmm2/GsmXLAABHjx5F37593e7bunVrVFZW4tprrzWre2Sh4cOHIy8vDwBw7NgxdO3atcX9jh07pjweOXKkbs9fXFyM2bNnAwDuueceDBkyRNfjT58+jbKyMgBAcnJyi2106tQJL774In73u9+hpqYGx44dc/uZ+aSe1RkD7JOThi9279atm9pToBBg9WtFaz1u4C7nrMfBw+isaslKWloaLl686LH9Xbt24ejRo7jqqquQmZmp/HtMTIxP/dPrtULGsqqmLl++HACavIPYSidPngQAOJ1Oi3tCV7J63G+gR0ZaasOMekz6sEsW/b1W8jQuM4eBw+wc5ubm4rnnnsPGjRtxzTXX+N3OldzVVN6XDXx2qZVaaR33Q/m+ltEZ0Nq+3a+jQ5LVK51GOHjwoLLK/Ic//MHtfrW1tRIWFmbJu175F43WOHTokJKNuXPnut1vwYIFyn4nTpzQ5bnr6uokIyNDAEhiYqKcPn1a9+OPHDmi9PuTTz5x29a2bduU/b766ivV50LuWZkxEXvlJDs7WwDIkiVLVB9LwS+Q63Fj7nLOehw8jM6q0VmZNGmSAP59t4SerxUylhU11eVySZcuXQSAfPfdd6qPN+Jd6127dhWHwyFFRUW6tEf6sXqO3ECPjPjbhpZ6TPqxSxb9uVbSY1xmDu3BzBzu3LlTrr32Wjl48KDH/b7++mvV36/nrh4Gwn1Z8syKWmnHuWEo39cyOgNa27fzdXSoCvN5RTKA9OnTB0OHDgUArFy5EiLS4n4nTpyAy+UCADzxxBOm9Y+s07t3b2RkZAAA/u///s/tfuvWrQMADB06tMV3rezduxfl5eWqnvvZZ5/F5s2b0bZtWyxfvhwdO3bU/fiUlBS0bdsWAFBQUOC2rYbPyA8PD0efPn1U9YM8szJjgH1yUltbi7y8PHTr1g1ZWVmqjqXQEMj1uIGnnLMeBw+js2rnrOj1WiHjWVFTt2/fjtLSUtxwww3o2bOnH73W144dO3Dq1Ck88sgj/KsIG7J6jgzokxHmLPDZIYv+XitxXA4eZuVw//79yM7OxqpVqzzOH3/44Qe88MILqr5fz1M95H3ZwGeHWqmV1jE71O9rGZ0Bre3b+To6ZFm90mmU/Px8CQ8PFwCyePHiFvdp+Fz7jIwMk3vHv2i00r59+6RVq1bSqlUrOXLkSLPtR48elcjISAkLC5NvvvmmybZLly7JzTffLAAkMjJS3n//fa/PV1NTIxMmTBAA0rFjR8nPz1fVX7XHP/XUUwJAkpKS5OLFiy3uM3PmTAEgv/3tb1X1hXxjdsZEzM3JmTNnJCcnR7744gu37efk5EhUVJTk5ub61H8KTXaux3rknPU4eBidVSOz4s87MbXOXcgaZtfUp59+WgDIrFmz/Orvli1blHcXP/744x73zcnJkaysLJk9e7ZcuHCh2fa6ujrp37+/9O7dW/VfY5B5jMyoHhkxOmd8Z7x9GJlFI66V9ByXmUP7MHrcPnr0qCQmJsr48eNl9uzZLf68/fbb8vLLL0tSUpK8/vrryrF61EO735cl78yeW5o5N+R9Ld8YnQEt7YvY7zo61AXtQqPI5T+tdTgcEhkZKatXr26ybefOnRIbGyvdunWT0tJS0/vGhUZrLV68WMLCwmTYsGFSVVWl/Ht1dbWkp6eLw+GQBQsWNDuu8Z9lA5Do6Gipqalx+zy5ubnSv39/ASDZ2dmqs+bP8T///LNcf/31AkDGjRsn58+fb7J9x44dEh0dLUlJSVJWVqaqP+Q7szImYn5OGgZpADJs2DDZvXu3sq22tlbefvttcTqdsnnzZq/9ILJrPdYj56zHwcXIrBqZFbUXSFrnLmQts2pq449N3b9/v199bbi5CEAGDRokLpfL7b6dO3dW9k1JSZEtW7Yo244fPy633HKLZGZmyqlTp/zqC5nHqIzqkRGjc8YbVvZiVBb1vlbSe1xmDu3FqByePHlSunXr1mQfTz8RERFSXl6uHK9XPbTzfVnyjZn3tsycG/K+lu+MzoC/7YvY6zqagnyhUUTk008/leTkZAkPD5f09HSZPn26ZGdnS2xsrGRnZ8uZM2cs6RcXGq23du1a6dWrlzidTnnppZdkxowZ0qdPH0lOTpaPP/64xWNqa2uVd2M0/Fz5OywqKpJ58+bJ7bffLm3atJHs7GzZtm2bz/3SeryIyPnz52Xq1KnSqlUrSUpKkokTJ8rMmTNl1KhREhkZKWPHjuWNGBMYlTERa3OyZ88eSUhIaNLHnj17yqBBg8TpdMqCBQvk0qVLqvpCoc2O9VivnLMeBxcj67pRWfHlAkmPMYXsw8icNmj4rpNevXqp6ltJSYlMmzZN7rnnHnE4HE2eb9CgQfL73/9eVq1a1ey4OXPmSERERJP9U1JSpFevXtK3b19Zv369qn6QtYzIqB4ZMTpnvGFlP0ZkUY85pJHjMnNoP3rnsK6uTpxOp8+LjABkzJgxTdrXsx7a9b4s+c7IuaVVc0Pe11LH6OsLf9pvYOV1NDXlEHHzQdlBRESwa9cuFBQUoLa2Ftdccw0GDhyIhIQEy/pUVFSETZs2IS0tDampqZb1I9TV1dUhPz8fhw8fhoigd+/e6N+/PyIiIjweV1JSglOnTmHQoEGoqKhAXFwcAKC0tBQvv/wynE4n+vTpg1tvvRUxMTE+90fr8VeqqqrCwYMHUVBQgLq6OnTu3BlDhgxBhw4d/G6T1NE7Y4A9clJdXY28vDwUFhaiVatWiIuLQ2pqKpxOJxwOh999odBlt3oM6Jtz1uPgYURdb8zsrOg9ppA9GJ3TkpISFBYWomPHjqZ918mPP/6IrVu3ory8HC6XCwkJCbjxxhuRnJxsyvOTvozIqB4ZYc5CjxFZ1DKH5Lgcmowet/2hZz20431ZUicYM8r7WuoYnQF/22/Aey7WC4mFRjviQmPg++STTzB79mzk5uZa3RUKUswYkW/4WqFAwaxSIGBOye6YUbILZpHsgDkku2NGiRkIDa2s7gBRICotLcULL7yAdevWWd0VClLMGJFv+FqhQMGsUiBgTsnumFGyC2aR7IA5JLtjRokZCB1hVneAKNDs3r0b9957LxYvXoyUlBSru0NBiBkj8g1fKxQomFUKBMwp2R0zSnbBLJIdMIdkd8woMQOhhX/RSKSSw+HAhg0b0KlTJ6u7QkGKGSPyDV8rFCiYVQoEzCnZHTNKdsEskh0wh2R3zCgxA6GF39FoEX5HIxEREREREREREREREQUyfnQqEREREREREREREREREanGhUYiIiIiIiIiIiIiIiIiUo0LjURERERERERERERERESkGhcaiYiIiIiIiIiIiIiIiEg1LjQSERERERERERERERERkWpcaCQiIiIiIiIiIiIiIiIi1bjQSERERERERERERERERESqcaGRiIiIiIiIiIiIiIiIiFTjQiMRERERERERERERERERqcaFRiIiIiIiIiIiIiIiIiJSjQuNRERERERERERERERERKQaFxqJiIiIiIiIiIiIiIiISDUuNBIRERERERERERERERGRalxoJCIiIiIiIiIiIiIiIiLVuNBIRERERERERERkMhGx9HgiIiIiPbSyugNG+f7773Hy5Emf909OTkZiYqKBPSI7+v7777Fy5UocOnQIIoLrrrsOmZmZ6N69u+a26+vr8fnnn+Pzzz9HaWkp2rVrhwEDBiArKwtt27a1/fGkDyMzBtgjJzt27MDatWtRXFyM6OhopKamYty4cejYsaPW06MQYsd6rOdcwuhaQOaxY1bd2bx5M0pKSjBhwgSfj9m/fz8+++wzHD58GGFhYXA6nRgyZAjS0tJUPz9Zx+iaozUnW7ZswbZt23D06FEkJCSgX79+GDVqFGJiYjyeE6/vgofZ42JdXR22bt2KdevWoaioCO3bt8eUKVPwi1/8osX97TDHJnMYncWSkhIUFxe3uO3HH3/E8uXLsWTJEsOO5xw0MFjxe5o6dSoqKysxf/58U/vnz/yUrGd0Ru00N2RGW2ZmnfL1d8B7NjYjQeq2224TAD7/rFy50tT+FRYWyvz582Xv3r2mPi/9x4wZMyQqKkoyMzPl008/lfXr10tWVpZERkbKtGnTxOVy+d12eXm5DBs2THr27CmLFi2SjRs3yptvvinx8fESHx8vy5Yts/XxpA8jMyZifU4qKirk1ltvbbGmdurUSXJzczWdH4UOu9ZjveYSRtcCMo9ds3ql3NxcGTp0qACQSZMm+XRMaWmpjBo1SuLj4+W1116T9evXy0cffSQPP/ywAJD7779fysvL/T09MpGROdWak4KCAsnIyGixhl599dWyevVqt8fa/fqOfGfmuFhZWSkvvviidOjQQXr06CF///vf5dy5cx6PsXqOTeYxI4sN47G7n9dff92w4zkHDQxW/J4WLlwoAKR79+6m9c+f+SnZg5EZtdPckBl1z6w6pfZ3wHs29hKUC41FRUUSFhbmc8iio6Olurra1D5yodFaU6ZMEQAyfvz4JsXC5XLJhAkTBIA8+eSTfrVdUFAgXbp0kbi4ODl+/HiTbSUlJdKxY0dxOBzyz3/+05bHkz6MzJiI9TmpqKiQG264Qfr16yevvPKKrFu3Tv7xj3/IHXfcodTWNm3aSFlZmd/nSKHBrvVYr7mE0bWAzGPXrDaWl5cn6enpTbLpywXauXPnJDU1VWJjY6W4uLjZ9vfee08ASHp6utTX16s6NzKXkTnVmpODBw9Khw4dBICkpKTIiBEjxOl0NslrWFiYbN68udmxgXB9R74xc1xcunSpxMfHCwB58MEHfcqE1XNsMo8ZWdyxY4fHWtW6dWupqKgw5HjOQQODFb+nY8eOSUxMjE8LjXr0z9/5KdmDkRm1y9yQGfXMjDrlz++A92zsJygXGqdOnSpdu3aVBQsWSH5+vhw7dqzFn8WLFwtw+Z23ZuNCo3U+++wzpcCUlpY223769Gm56qqrBICsWbNGdfsNCy2vvfZai9sbcuduEcbq40k7ozMmYn1OsrKy5LnnnpPa2tpm2yZPnqwM5NOnT1d5ZhRK7FyP9ZhLmFELyBx2zmqDr7/+WlasWCHnz5+Xd955R9VF8mOPPSYAZOrUqS1ud7lcykX/2rVrfT8xMpXROdWSk/r6ernxxhvlpptuarb4smfPHklKSlIy27VrV6mqqmqyTyBc35F3Zo2LdXV18uyzzwoAiYqKknnz5vl8rNVzbDKHWVnMzMyU9PR0WbduXYs/33zzjSHHcw4aGKz4PdXV1UlaWpq0bdvW60KjHv3TMj8l6xmZUbvMDZlRz8yoU/7+DnjPxn6CbqHx4sWL0rt3byksLPS6b8PN8A8++MCEnjXFhUbr9O3bVwDI6NGj3e4zbtw4ASC9evVS1XZDgQIgBw4caHGfCxcuKJO6p556ylbHkz6MzJiI9TnZv3+/jB8/3m3/qqqqJDIyUgDIyJEjVZ4dhRK71mO95hJG1wIyj12z6s63336r6iI5ISFBAMjcuXPd7jN27FgBIDNmzPDaHlnD6JqjJSerV6+WlJQUOX/+fIvHlZWVKe9oByCbNm1StgXK9R15Z9a4+OijjypZWrJkic/HWT3HJvOYkcUjR45IWFiY7Ny50/TjOQcNDFb8nmbNmiUjRoyQ7OxsrwuNevdP7fyUrGdkRu04N2RGmzO7Tvn6O+A9G3sKQ5A5ceIE3njjDfTo0cPjfi6XC6tWhXe5MwAAIABJREFUrUJkZCTuu+8+k3pHVvvqq69QUFAAALjzzjvd7nf33XcDAL777jvs37/f5/Y/+OADAIDD4UDv3r1b3Kd169ZITU0FACxYsACnTp2yzfGkndEZA6zPSWlpKebMmeO2fzExMbj22msBAPHx8b6eFoUYO9djPeYSZtQCMoeds+pORESEz88PAJWVlQCAnTt3ut2noqICABAbG6uqbTKHGTVHS06WLl2KOXPmoE2bNi0el5iYiCeeeEL57927dyuPeX0XHMwaF//6179i4cKFAIBRo0bh4Ycf9vlYq+fYZA6zsvjWW2/hzjvvxMCBA/3qp7/Hcw4aGKz4Pe3atQvvvvsuFi1ahLAwz7eDjeif2vkpWcvojNpxbsiMNmVFnfL1d8B7NvYUdAuNTqcTI0eO9Lrfl19+ibKyMmRkZPCGSQhZtmyZ8tjdxR9wOUcN1qxZ43P7hw8fBgC0a9cO4eHhbve7/vrrAQC1tbXYtGmTbY4n7YzOGGB9TkaMGIG4uDi3x9XW1uLEiRMAgAceeMDL2VCosnM91mMuYUYtIHPYOat6aXhzyJo1a1BcXNxse21tLfbt2wcAGDJkiK7PTfowo+ZoyUlsbCzuuusuj+3fdtttyuPq6uomfeb1XeAzI6NFRUV48cUXAVx+s9v8+fNVHW/1HJvMYUYWy8vLsXTpUnz55Ze4++678eqrryIvLw8XL140/HjOQQOD2b+n6upqPPTQQ5g7dy66dOliu/6R/RidAc4N7c/OdYD3bOwp6BYafbV8+XIAwOjRoy3uCZlp27ZtyuOUlBS3+zXepqaIHDlyBABQU1Pjcb/G7efn59vmeNLO6IwB9s9JXl4eampq8Mgjj3h8VxCFNrvXY194mkuYUQvIHMGQVW8a3hRSWVmJMWPGoKqqqsn2nJwcnDlzBtnZ2UhLS9P1uUkfZtQcLTl5//33vbbfrl075XG/fv1U9Q3g9Z3dmZHRadOmoba2FgAwfvx41Z+sYfc5NunDjCzm5OSgpqYGVVVV2LBhA1566SUMHz4ciYmJmDlzJs6dO2fY8ZyDBgazf09TpkzB4MGDkZWVZcv+kf0YnQHODe0vGOoA79mYKyQXGl0uF1auXInw8HD86le/sro7ZKKGP4mOjo5G586d/x97dx4dVXn/D/w92QANDRgSFgUiCQyIxlYQAmGRxt2faCCypFSkaIsiR9GKFMRQPdUv1pY0FBUsAurxDwiLiBVRDAlSlhB7gLAJYQ1ZCCoxQcjCfH5/cHKbmJnJ3LnrTN6vc3LOyH2ee5/rfd/neWaeWTyWi46OVt7psGfPHly5cqXFfYsI6uvrAQA//fQTLl686LFsZGSk8vjcuXO2qE/6MDJjgP1z8v333+Pxxx/HM888g3fffdenOtQ62bk/9kVLcwmj+wIyT6Bn1RfPP/884uPjAVz9WqJhw4Ypn0zPzs7GnDlzMHr0aNWfDiLzmNHnGJ2TEydOALj6tZO33367qrp8fmd/Rme0pKQE2dnZyn+npqZi3759mDVrFh566CFMmDABCxYswO7du93Wt/scm/RjRn95+PBhtG/fvtm/V1ZW4pVXXsHAgQNx7NgxQ+pzDhoYzLxO69atw5YtW7z+/ImV7SN7skMGODe0lh0yoAVfszFfq1xobPjY7MiRI/n7Ya3IhQsXlHeX+nLdG8q4XC6cP3++xfIOh6PJd0Nv377dY9mwsDDl8aVLl2xRn7QzOmOAvXOye/duDBs2DOfOnUPHjh1RV1fXYh1qnezeH/vC21zCjL6AzBEMWfVFVFQUNm/erHyV1r59+5CYmIhx48bhqaeeQlZWFj7++OMmL46TfZjV5xidkx07dgC4+o7juLg4VXX5/M7ezMjo+vXrISIArv6+z5IlS5CSkoKcnBwcOXIEq1atwuzZs5GUlISZM2c2+wpKO8+xST9m9Zdr167Fjz/+iHPnzmHDhg0YO3YsIiIilO1FRUUYOnSo8mYNvepzDhoYzLxOpaWlmDZtGlauXIlf/OIXtmsf2ZNdMsC5oXXskgEt+JqN+VrlQiM/Ot06lZWVKY/btWvXYvnGZcrLy306RkpKivJ43bp1Hsu5XC7lcUxMjG3qkzZmZAywX05yc3ORnp6OoUOH4tChQ7h06RLmz5+PQYMGKe9AI2osEPrjlnibS5jVF5DxgiGrvurVqxe2b9+OPn36AACqqqqwevVq3HTTTRgzZozuxyP9mNnnGJWT+vp6fPjhhwgNDcW8efNU1+fzO3szI6NbtmxRHsfGxuKRRx5BRUUF8vPzcfjwYRw6dAgJCQkQEWRmZmL69OnN9mG3OTbpz+w5WkxMDB588EFkZ2ejpKQEL7zwAkJCrr4MV1FRgUcffVTX+pyDBgazrpOIYMqUKZgyZQpGjBhhu/aRfdkhA5wbWssOGdCKr9mYr9UtNDZ8bNbhcCA1NdXq5pCJfvzxR+Wxw+FosXxoaKjyuLKy0qdjPP/88wgPDwcALFu2rMn3PTe2detW5XHnzp1tU5+0MSNjgL1yUl1djcLCQgwePBhPPvkkunTpomwrLCzEb3/7W+Xd5UQNAqE/9qaluYRZfQEZL9CzqlZcXBzmzJnT5N9yc3Pxq1/9Cnv37jXkmKSd2X2OETl5//33UV5ejoyMDCQmJqqqy+d39mdGRouLi5XHf/3rX5u9qOR0OrF582ZlYW/58uXYs2dPkzJ2mmOTMayco0VHR+ONN97A2rVrlf1u27YNubm5utXnHDQwmHWdFi1ahPLycrzyyiu2bB/Zlx0ywLmhteyQAS34mo01Wt1C4/bt21FaWoqhQ4d6/f5dCj6NPwrd+F2knjT+zmVfP2bfo0cPLFy4ECEhIairq0NaWhqys7OVrz1Zv349kpOTmzzpHDRokG3qkzZmZAywV04iIyMxffp0PPPMM1i0aBGKi4uxYMECZRDevn07PvroI5/PjVqHQOiPvWlpLmFWX0DGC/SsqvXnP/8ZM2bMwKZNm5CRkaH05SUlJRg+fDgXG23K7D5H75x8//33ePHFF3HnnXdi7ty5qtvD53f2Z0ZGG78zfcCAAW7L3HjjjZgyZQqAq5/0Wbx4cZPtdppjkzHsMEd76KGHmiz8NF541lrfDudHLTPjOh08eBAZGRn48MMPm3ztrl3aR/ZmdQY4N7Se1RnQiq/ZWERamRkzZggA+fvf/25pO4qKimTJkiWyd+9eS9vRmlRXVwsAASA33HBDi+V79eqllP/uu+9UHWvNmjUSHR2t1G/4Gz58uBQUFMi9994rACQ0NFQuXLhgu/rkHzMzJmLvnLz55pvK/saPH6/63Ci4BVJ/7E5Lcwmz+wIyTqBmtbCwUKk/bdo0n44/ffp0ASDZ2dnKv+Xm5krXrl2VfXXv3l1KS0tVnRcZz8ycGpGT9PR0SUxMlMrKSlVtaWCX53fkmRkZTUhIUOqUlZV5LJefn6+US0pKclvGznNs0sYuc7Sqqirp2LGjAJDf/e53utW3y/mRd0Zfp5qaGrn11lslMzPTY5lJkyYJAImLizOtff7MT8kaVvclVs0NmdH/sSoDel0DvmZjjVa10HjlyhXlSfDJkyctbQsXGq0RGRkpAKRt27bicrm8lm3fvr0AkDZt2rRY1p2amhrZunWrfPjhh/LVV1/J+fPnRUSktLRUwsPDBYA88MADtq1P/jEzYyL2zUldXZ3ccMMNAkCGDBni17lRcAuk/rgxX+cSZvcFZJxAzKraJ2jvvPOOAJDk5ORm206dOiX9+/dX9ufPC6JkPDNyakROFixYIL179/Z7AdtOz+/IO6MzOnDgQCV/Z86c8Vju8uXLSrkOHTp4LGfXOTZpZ5c52p133ikAZMKECbrWt8v5kXdGXqdXX31VoqOj5a233pJ33nnH7d+gQYMEgERHRzf594aFHSPax0WcwGJVX2Ll3JAZbcqKDOhxDfiajXVa1UJjXl6eAJCBAwda3RQuNFpkxIgRSodVXFzssVx5eblS7q677tK1DX/605+UfX/99dcBV5+8s0PGROyRkyeeeEIAz+8Wp9bNDveKPzn3dS5hh/MjfdjhWqrNqtonaA1PxDy9872srEz5dE6bNm34CRwbMiOneudk/fr10qtXLzl9+rSqdjRmp+d35J3RGR03bpxSr7Cw0GvZqKgoASCRkZE+77+BHebYpI0dxnURkSlTpggA+cMf/qBrfbucH3ln5HV6/PHHlTpq/44dO2ZY+7iIE1is6Eusnhsyo01ZkQE9rgFfs7FOq/qNxtWrVwNAsx+Gp9Zj5MiRyuNjx455LNd42+jRo3U7/qlTp5CZmQkAuP/++5GcnBxQ9allVmcMsE9OYmJiAAA9e/b0qz4FN6vvFX9z7utcwurzI/1YfS2NHrvLy8tRWloKAIiPj3dbpnPnzpgzZw4AoKamxuv/B7KG0TnVOyc5OTl47rnnsHnzZnTv3t3ndvwcn98FDqMzevvttyuPjx496rVs27ZtAVz9zUY17DLHJm2sHtcbnDlzBgDgdDp1rW+X8yPvjLxOSUlJmDRpkte/3r17AwCuvfbaJv8eGRlpePsoMJidAc4N7SdQ+wG+ZmOdVrPQKCJYs2YNAHY2rVl6erry+MCBAx7LNd724IMP6nLsK1euYOrUqbh06RK6dOmC5cuXB1R98o2VGQPslZOTJ08CuPpCCtHPBWJ/rGYuYXVfQPoJxKyqUVlZqTx2uVweyw0aNEh5XFtbq3s7SBujc6pnTnbt2oWpU6di48aNHhctASA/Px/ff/+9x+18fhdYjM7oAw88oDzevXu3x3J1dXWoqKgAAAwdOtTn/dtpjk3a2GWOdujQITgcDjz88MO61rfL+ZF3Rl6nqVOn4oMPPvD6l5KSAuDqm4Mb/3vnzp0Nbx8FBjMzwLmhPQViP8DXbKzVahYat2/fjpKSEtxyyy3KO3eo9enbt68yofr3v//tsdzGjRsBAMOHD3f7aay9e/eirKxM1bFnzpyJLVu2oH379li9ejViY2MDqj75xsqMAfbJSW1tLfLy8tCzZ0+kpaX5tQ8KboHYH6uZS+h1fmS9QMyqGgkJCWjfvj0A70+w6urqAAChoaHo16+f7u0gbYzOqV452b9/P9LT07F27VqvOTp37hxefPFFdOzY0WMZPr8LLEZntF+/fhg+fDgAYM2aNRARt/s/efKkslj+5JNP+tx+u8yxSTurn68BwI4dO3D27Fk89thjqj9Z21J9zkEDgx1yaEb7KHCZlVHODe3L7v2UO3zNxmJWfm+rmWbMmCEAZP78+VY3RUT4G41W2rdvn4SFhUlYWJgcOXKk2fajR49KRESEhISEyDfffNNkW11dndx+++0CQCIiIuS9995r8Xg1NTUyefJkASCxsbFSUFCgqr1W1yf1zM6YiLk5OX/+vGRlZclXX33lsUxWVpa0adNGcnJyVLWDWpdA64/VziW0nB/ZS6BldevWrcrvSDzxxBMtln/66acFgPTo0UMuX77stkxGRoYAkN///veq2kLmMTqnWnNy9OhR6dKli0ycOFEyMzPd/i1cuFBefvll6dGjh7z++utez9duz++oZUZntKCgQEJDQwWArFixwm0bGn4jMSUlxac287lYcDIyi1lZWZKWliaZmZly6dKlZvuur6+XAQMGSN++feW7775rtl1rfa3nR+ax4nWDBtOmTRMAEhcXZ0j73FE7PyXrGZ1Ru80NmdHmzO6ntF4DvmZjrVax0OhyuaRbt24CQPbv3291c0SEC41WW7FihYSEhMiIESOkqqpK+ffq6moZNWqUOBwOWbp0abN6R44cafJD2e3atZOamhqPx8nJyZEBAwYIAElPT5eSkhJV7bS6PvnPrIyJmJ+ThhcRAciIESMkPz9f2VZbWysLFy4Up9MpW7ZsUdUOap0CpT/2dy7h7/mR/QRKVkX+90I6ABkyZIi4XC6v5X/66Se5+eabBYBMmDBBLl682GT7jh07pF27dtKjRw8pLS1V3R4yj5E51ZKTM2fOSM+ePZscw9tfeHi4lJWVeTxPOz6/I98Y3ZcuXbpUHA6HREREyPr165ts27lzp0RFRUnPnj196lv5XCy4GZXFrl27KtsSEhJk69atyrYTJ07IsGHDJDU1Vc6ePeu2XVrraz0/MpeZrxs05stCo5b2uaN2fkr2YFRG7Tg3ZEbdM7Of0nIN+JqN9VrFQuO2bdsEgPTp08fqpii40Gi9Tz75RPr06SNOp1NeeuklmTdvnvTr10/i4+Nl3bp1buvU1tYq78Zo+Pv5NTx+/Li8/fbbcuedd8o111wj6enpsm3bNp/bZXV90o9RGROxNid79uyRmJiYJm3s3bu3DBkyRJxOpyxdulTq6up8bguRXfvjxrTMJfw5P7InO2e1uLhYZs+eLffff784HI4mxxsyZIj88Y9/lLVr13qsf/HiRZk1a5aEhYVJjx49ZMqUKZKRkSFjxoyRiIgIGT9+fIsvapI9GDn/8Ccn9fX14nQ6fX4hCYA88sgjXs/Rjs/vyHdGZlRE5NNPP5X4+HgJDQ2VUaNGydy5cyU9PV2ioqIkPT1dzp8/77FtfC7WuhiRxUWLFkl4eHiT7QkJCdKnTx/p37+/fPbZZ17bpLW+1vMj8xndJ7rj60Kjv+1roHV+Svagd0btNDdkRn1jZD+l1zXgazbWc4h4+PGCIFJcXIyioiLExsba5jdljh8/ji+//BJJSUlITEy0ujmtVn19PQoKCnD48GGICPr27YsBAwYgPDzca73i4mKcPXsWQ4YMQUVFBaKjowEAJSUlePnll+F0OtGvXz/ccccdiIyM9Lk9Vtcn/emdMcAeOamurkZeXh6KiooQFhaG6OhoJCYmwul0wuFwqNoXEWC//tjdcbTMJfw9P7Ifu2dVq6qqKhw8eBAHDhxAfX09unbtiuTkZFx33XWWtYnUM2L+0ZjVObHj8ztSx+iMigh27dqFAwcOoLa2Ft27d8fgwYMRExPjcd92mGOT+YzI4g8//IDc3FyUlZXB5XIhJiYGt912G+Lj431qk9b6epwfmcvoPtGq9lHwsHtGOTc0XrBngP2cdq1iodGOuNAY+D7++GNkZmYiJyfH6qZQkGLGiHzDe4UCBbNKgYA5JbtjRskumEWyA+aQ7I4ZJWagdQizugFEgaikpAQvvvgiNm7caHVTKEgxY0S+4b1CgYJZpUDAnJLdMaNkF8wi2QFzSHbHjBIz0HqEWN0AokCTn5+PBx54ACtWrEBCQoLVzaEgxIwR+Yb3CgUKZpUCAXNKdseMkl0wi2QHzCHZHTNKzEDrwk80EqnkcDiwadMmdO7c2eqmUJBixoh8w3uFAgWzSoGAOSW7Y0bJLphFsgPmkOyOGSVmoHXhbzRahL/RSERERERERERERERERIGMX51KRERERERERERERERERKpxoZGIiIiIiIiIiIiIiIiIVONCIxERERERERERERERERGpxoVGIiIiIiIiIiIiIiIiIlKNC41EREREREREREREREREpBoXGomIiIiIiIiIiIiIiIhINS40EhEREREREREREREREZFqXGgkIiIiIiIiIiIiIiIiItW40EhEREREREREREREREREqnGhkYiIiIiIiIiIiIiIiIhU40IjEREREREREREREREREanGhUYiIiIiIiIiIiIiIiIiUo0LjURERERERERERERERESkGhcaiYiIiIiIiIiIiIiIiEg1LjQSEREREbUSImJ1E4iIiIjIRjg/JCIircKsboAZ9u/fj88//xyHDx9GSEgInE4nkpOTkZSUZHXTyEa2bNmC4uJiTJ48Wbd9nj59GmvWrMGhQ4cgIrjpppuQmpqKuLi4gKhP2hl9Da5cuYIvvvgCX3zxBUpKStChQwcMGjQIaWlpaN++vWH1T58+jTNnzvjczvj4eHTp0sXn8tT6GHmvaL1PAP3nEvX19cjNzcXGjRtx/PhxdOzYEc8++yx++ctf+rU/Mo/ds1pcXIxTp0653fbDDz9g9erVWLlypcf6nDcHB7vnlHNcMvoa6tGXaWmjHvcJmcPs/kTtHNCfLPO5WuAxOoda54fuzJo1C5WVlViyZInb7cxhcLFi7tVSxrS2jxlVx+gMbN26Fdu2bcPRo0cRExODW2+9FWPGjEFkZKRP9bXO/Xbs2IFPPvkEp06dQrt27ZCYmIgJEyYgNjZWy2m1LhLESkpKZMyYMdKpUyd57bXX5LPPPpOPPvpIHn30UQEgDz/8sJSVlVnStqKiIlmyZIns3bvXkuPT/+Tk5Mjw4cMFgEybNk23/c6bN0/atGkjqamp8umnn8pnn30maWlpEhERIbNnzxaXy2Xr+qSd0degrKxMRowYIb1795bly5fL5s2b5Y033pBOnTpJp06dZNWqVYbV//Wvfy0AfP5bs2aNpnOl4GbkvaL1PtF7LlFZWSlz5syR6667Tnr16iX/+Mc/5MKFC36fH5nLzllt0DCn8fT3+uuvu61n53kzqWP3nHKOS0ZeQ736Mi1t1Ks/J+OZ2Z+onQNqyTKfqwUWM3Lo7/zQk2XLlgkAiYuL81iGOQweVsy9fMmY1vYxo74zMgMHDhyQlJQUt//Pb7jhBlm/fr3X+lrnfhUVFXLHHXe4PX7nzp0lJyfH73NrbYJ2ofHChQuSmJgoUVFRcurUqWbb33nnHQEgo0aNkitXrpjePi40Wi8vL09GjRrVpAPRa6Hx2WefFQAyceLEJp2ty+WSyZMnCwB56qmnbFuftDP6Ghw4cEC6desm0dHRcuLEiSbbiouLJTY2VhwOh/zrX//Svf7x48clJCTE58lYu3btpLq62u9zpeBm5L2i9T7Rey7x/vvvS6dOnQSA/OY3v+F9EWDsnNUGO3bs8Noft23bVioqKprVs/u8mXxn95xyjktGXkO9+jItbdSrPyfjmdmfqJ0Daskyn6sFFjNy6O/80JNjx45JZGSk10Ug5jB4WDH38iVjWtvHjPrOyAwcPHhQrrvuOgEgCQkJcvfdd4vT6Wzy/z4kJES2bNnitr7WuV9FRYXccsstcuutt8qrr74qGzdulHfffVfuuusu5fjXXHONlJaW+nV+rU3QLjQ+/vjjAkBmzZrldrvL5VKC+8knn5jcOi40Wm337t2SnZ0tFy9elH/+85+6LjR+/vnnyiBUUlLSbHt5eblce+21AkA2bNhgu/qknRnXoGHQe+2119xuX7FihdcBUUv9WbNmyfXXXy9Lly6VgoICOXbsmNu/hn08/PDDfp0jBT+j7xWt94lec4n6+nqZOXOmAJA2bdrI22+/rfpcyFp2z2qD1NRUGTVqlGzcuNHt3zfffOO2nt3nzeQbu+eUc1wy+hrq0ZdpbaNe/TkZy6z+xN85oJYs87la4DArh/7OD92pr6+XpKQkad++vddFIOYwOFgx9/I1Y1rbx4z6xsgMXLlyRW677TYZOHBgszdn7dmzR3r06KG8Xn/99ddLVVVVs31onfulpaXJc889J7W1tc22TZ8+XTn+3LlzVZ1baxW0C40xMTECQBYvXuyxzPjx4wWAzJs3z8SWXcWFRvv473//q+tCY//+/QWAjB071mOZCRMmCADp06eP7eqTdkZfg4aBHoAUFha6LXPp0iVlYvb000/rVv/y5cvSt29fKSoqarGdDYPyBx98oOLsqDUx8l7Rep+I6DeXmDp1qtKWlStXqjoPsge7Z1VE5MiRIxISEiI7d+5UdXwR+8+byTd2zynnuGT0NdSjL9PSRr36czKeWf2Jv3NAf7PM52qBxYwcapkfujN//ny5++67JT093eMiEHMYPKyYe/mSMa3tY0Z9Z2QG1q9fLwkJCXLx4kW320tLS5VPOwKQL7/8slkZLXO//fv3y8SJEz3Wq6qqkoiICAEgo0eP9vGsWrcQBKnKykoAwM6dOz2WqaioAABERUWZ0iayp/DwcN329Z///AcHDhwAANxzzz0ey913330AgG+//Rb79++3TX3Szoxr8MEHHwAAHA4H+vbt67ZM27ZtkZiYCABYunQpzp49q0v9kydPYsGCBejVq5fXNrpcLqxduxYRERF48MEHVZwdtRZG3yta7xNAn7nE3/72NyxbtgwAMGbMGDz66KM+nwPZQyBkFQDefPNN3HPPPRg8eLDPx27AeXPgs3tOOcclM66h1r5Maxv16s/JWGb1J1rmgP5mmc/VAodZOdQyP/y5Xbt24a233sLy5csREuL55WTmMDhYMffyNWNa28eM+sboDLz//vtYtGgRrrnmGrfbu3TpgieffFL57/z8/GZltMz9SkpKsGjRIo/1IiMjceONNwIAOnXq5LEc/U/QLjQ2BGHDhg04depUs+21tbXYt28fACA5OdnUtlHwWrVqlfLY05NLAHA6ncrjDRs22KY+aWfGNTh8+DAAoEOHDggNDfVY7uabbwZwtb/78ssvdanvdDoxevToFtv49ddfo7S0FCkpKXxRmtwy+l7Rep8A2ucSx48fx5w5cwBcnZguWbLE5/aTfQRCVsvKyvD+++/j66+/xn333Ye//OUvyMvLw+XLl31qA+fNgc/uOeUcl8y4hlr7Mq1t1KM/J+OZkUWtc0B/s8znaoHDjBxqnR82Vl1djUmTJmHx4sXo1q2b17LMYXAwe+6lJmNa28eM+sboDERFReHee+/1WubXv/618ri6urrZdi1zv7vvvhvR0dEej11bW4uTJ08CAMaNG+e1nXRV0C40NgSgsrISjzzyCKqqqppsz8rKwvnz55Geno6kpCQrmkhBaNu2bcrjhIQEj+Uab2vcCVtdn7Qz4xocOXIEAFBTU+O1XONjFBQU6FbfF6tXrwYAjB07VlU9aj2Mvlf0yLnWucTs2bNRW1sLAJg4cSLfBRegAiGrWVlZqKmpQVVVFTZt2oSXXnoJI0eORJcuXZCRkYELFy543TfnzYHP7jnlHJfMuIZa+zKtbTRjjk3amZFFrXNAo8dlPleznhk51DqT6+nnAAAgAElEQVQ/bOzZZ5/F0KFDkZaWpqoN3jCH9mb23EttxsxoX2vPqNH/j997770Wy3To0EF5fOuttzbbbuR4mZeXh5qaGjz22GNeP9FJjVj93a1GuXDhgsTHxyvf45uYmKj8sOjq1aslPDxcRo8e7faHRM3A32i0j8LCQt1+o7FNmzbKj+S2JCoqSgBISEiI1NfX26I+aWf0NXC5XNKuXTsls9XV1R7Lvv3220q58ePH61LfF1euXJGuXbtKaGioVFRU+FyPWhcj7xW9cq5lLnH27FlxOBxK3a+++kr27t0rL7zwgowePVrGjx8v//d//ye7du1q8XzIWoGQ1dTUVOU3v9z9xcfHy9GjRz3u2+7zZmqZ3XPKOS6ZcQ219mVa2mjGHJv0YXQW9ZgDGjku87maPZjRJ2qdHzZYu3atxMXFSWVlpfJvkyZNavH387xhDu3PzLmXPxkzun3MqD3m39nZ2QJAHA6HMg42ZtR4+d1330nPnj3lmWeekbq6Oh3OpHUI2k80RkVFYfPmzcrHrfft24fExESMGzcOTz31FLKysvDxxx8jMjLS4pZSsLhw4YLy7lVf3rHYUMblcuH8+fOW1yftzLgGDoejyffIb9++3WPZsLAw5fGlS5d0qe+Lhq+XGDlyJD/BRW4Zfa/olXMtc4n169dDRABc/S3gJUuWICUlBTk5OThy5AhWrVqF2bNnIykpCTNnzvTrK4zIeIGS1bVr1+LHH3/EuXPnsGHDBowdOxYRERHK9qKiIgwdOlT56pef47w5sNk9p5zjklnXUEtfprWNZsyxSTszsqjHHNDIcZnP1axnVp+odX4IAKWlpZg2bRpWrlyJX/ziFz4fuyXMob2ZOffyJ2NmtK+1Z9Qu8+8dO3YAuPqp0ri4uGbbjRgvd+/ejWHDhuHcuXPo2LEj6urqdDmX1iBoFxoBoFevXti+fTv69OkDAKiqqsLq1atx0003YcyYMRa3joJNWVmZ8rhdu3Ytlm9cpry83PL6pJ1Z1yAlJUV5vG7dOo/lXC6X8jgmJka3+i1p7V8vQS0z417RK+f+ziW2bNmiPI6NjcUjjzyCiooK5Ofn4/Dhwzh06BASEhIgIsjMzMT06dN9Oi8yVyBlteHfH3zwQWRnZ6OkpAQvvPACQkKuTvcrKirw6KOPetw/582By+455RyXzLyG/vZlerTR6Dk2aWdGFvWaAxo1LvO5mvXMHtf8nR+KCKZMmYIpU6ZgxIgRqo/rDXNob2Zl1N+MmdG+1p5RO8y/6+vr8eGHHyI0NBTz5s3zWE6v8TI3Nxfp6ekYOnQoDh06hEuXLmH+/PkYNGgQTpw4ofl8WoOgXmgEgLi4OOVHuBvk5ubiV7/6Ffbu3WtRqygY/fjjj8pjh8PRYvnQ0FDlcWVlpeX1STuzrsHzzz+P8PBwAMCyZcuafG96Y1u3blUed+7cWbf63rhcLqxZswYOhwOpqak+1aHWx4x7Rc+c+zOXKC4uVh7/9a9/bfYExel0YvPmzcoLjMuXL8eePXu8nxSZLtCy2lh0dDTeeOMNrF27VmnXtm3bkJub67EO582Bye455RyXzL6G/vRlerTRyDk26cOMLOo5B9R7XOZzNXuwclxTMz9ctGgRysvL8corr2g65s8xh/ZnVkb9zZjR7WNGre2nGrz//vsoLy9HRkYGEhMTvZbVOl5WV1ejsLAQgwcPxpNPPokuXboo2woLC/Hb3/5W+bYC8izoFxr//Oc/Y8aMGdi0aRMyMjKU4JeUlGD48OF80YR00/ij5I3fperJlStXmtS1uj5pZ9Y16NGjBxYuXIiQkBDU1dUhLS0N2dnZyteirF+/HsnJyU1e3Bg0aJBu9b3Zvn07SktLMXToUHTt2tXnc6LWxYx7Rc+c+zOXaPwOwAEDBrjd74033ogpU6YAuPpuzsWLF/t0bmSeQMuqOw899FCTJ++NX+D+Oc6bA5Pdc8o5Lpl9Df3py/Roo9H9OWlnRhb1nAPqPS7zuZo92GFca2l+ePDgQWRkZODDDz9s8nWremAO7c+MjGrJmNHtY0at76e+//57vPjii7jzzjsxd+7cFstrHS8jIyMxffp0PPPMM1i0aBGKi4uxYMECZT/bt2/HRx99pPm8gp5lvw5pgunTpwsAyc7OVv4tNzdXunbtqvxIaPfu3aW0tNT0thUVFcmSJUtk7969ph+bmiosLFTyMG3aNL/3U11dreznhhtuaLF8r169lPLfffed5fVJO7OvwZo1ayQ6OrrZj7oPHz5cCgoK5N577xUAEhoaKhcuXNC9vjszZswQAPL3v/9d9flQ62HmvaI15/7OJRISEpTtZWVlHtuXn5+vlEtKSlJ1bmS8QMqqN1VVVdKxY0cBIL/73e/clrHzvJm8s3tOOcclM6+hv32Znm00sj8nbczIol5zQCPGZT5Xswe7jGue5oc1NTVy6623SmZmpse6kyZNEgASFxen+rjMof0ZnVGtGTO6fcyo9f1Uenq6JCYmSmVlZYtljXwe++abbyr7GD9+vOr6rU3QLjS+8847AkCSk5ObbTt16pT0799fCYqnF1yMxIVG+9BroVFEJDIyUgBI27ZtxeVyeS3bvn17ASBt2rRRylpdn7Qz+xrU1NTI1q1b5cMPP5SvvvpKzp8/LyIipaWlEh4eLgDkgQceMKx+Y1euXFEG8pMnT/p1PtR6mHmv+JtzLXOJgQMHKtvOnDnjsW2XL19WynXo0EH1uZHxAiGrvrjzzjsFgEyYMKHZNrvPm6llds8p57hkxjXU2pfp2UYj+3PSxugs6jEHNGJc5nM1e7HLuOZufvjqq69KdHS0vPXWW/LOO++4/Rs0aJAAkOjo6Cb/3tKiAHMYOIzMqB4ZM6p9zOj/WNVPLViwQHr37u3TwqDRz2Pr6urkhhtuEAAyZMgQ1fVbm6BdaGzoFDy9O6KsrEx5l2GbNm1MfychFxrtQ8+FxhEjRij7Ki4u9liuvLxcKXfXXXfZpj5pZ5dr8Kc//UnZ/9dff21K/by8PAEgAwcOVH08an3scK+0lHMtc4lx48Yp+y4sLPTajqioKAEgkZGR2k6IDBEIWfXFlClTBID84Q9/aLbN7vNmapndc8o5LplxDbX2ZWa0UY/+nLQx+jrrMQc0YlzmczV7scu45m5++PjjjyvHVPt37Ngxr8djDgOHkRnVI2NGtY8Z/R8r+qn169dLr1695PTp0z6VN+N57BNPPCEAv4HKF0H5G43l5eUoLS0FAMTHx7st07lzZ+VHQmtqanDs2DHT2kfBa+TIkcpjb5lqvG306NG2qU/a2eEanDp1CpmZmQCA+++/H8nJyabUX716NQBg7Nixqo5HrZPV90pLOdc6l7j99tuVx0ePHvXalrZt2wK4+ns9ZD92z6qvzpw5AwBwOp1N/p3z5uBg95xyjktGX0M9+jKj26hXf07aGH2dtc4BjRqX+VzNXuwyrrmbHyYlJWHSpEle/3r37g0AuPbaa5v8e2RkpNfjMYeBw8iM6pExo9rHjP6P2f1UTk4OnnvuOWzevBndu3dvsbxZz2NjYmIAAD179lRdt7UJyoXGyspK5bG3Hyxt/MPrtbW1hraJWof09HTl8YEDBzyWa7ztwQcftE190s7qa3DlyhVMnToVly5dQpcuXbB8+XJT6osI1qxZA4ATMvKNlfeKLznXOpd44IEHlMe7d+/2WL+urg4VFRUAgKFDh/p2AmQqu2fVV4cOHYLD4cDDDz/c5N85bw4Ods8p57hk9DXUoy8zso169uekjdFZ1DoHNGJc5nM1+7HLuOZufjh16lR88MEHXv9SUlIAXH0BvvG/d+7c2eOxmMPAYmRG9ciYEe1jRpsys5/atWsXpk6dio0bN3pcNASA/Px8fP/99wDMex578uRJAFffJEbeBeVCY0JCAtq3bw/A+41QV1cHAAgNDUW/fv1MaRsFh71796KsrKzZv/ft21cZDP/97397rL9x40YAwPDhw5u8I8Lq+qSdXtfAU8ZaMnPmTGzZsgXt27fH6tWrERsba0r97du3o6SkBLfccovyzjMib6y8V3zJuda5RL9+/TB8+HAAwJo1ayAibuufPHlSmRQ/+eSTqs6DzGH3rPpix44dOHv2LB577LFmn5zlvDk42D2nnOOS0RnVoy8zMmd69eekndFZ1DoHNGJc5nM1+7H6dQPA+/zQCMxhYLFDRs1oX2PMaFNmZWD//v1IT0/H2rVrvY5n586dw4svvoiOHTsCMOd5bG1tLfLy8tCzZ0+kpaWpqtsqWfm9rUZ6+umnBYD06NFDLl++7LZMRkaGAJDf//73JreOv9FoJ1u3blW+S/qJJ57wWraurk5uv/12ASARERHy3nvvNSuzb98+CQsLk7CwMDly5Eiz7UePHpWIiAgJCQmRb775xnb1STst18CXjLlTU1MjkydPFgASGxsrBQUFqtqstf6MGTMEgMyfP19VPWrdzL5X1OZc61yioKBAQkNDBYCsWLHCbf2G32pKSUlpsf1kHTtnNSsrS9LS0iQzM1MuXbrUbHt9fb0MGDBA+vbtK999953bfdh93ky+sXNOtbZPj/pkPaMzqkdfpnfOtM6xyRhGZ1HrHFDvcZnP1ezJyBzqMT/0Ztq0aQJA4uLifK7DHAYeK17bauBLxvQes5nR5ozOwNGjR6VLly4yceJEyczMdPu3cOFCefnll6VHjx7y+uuvN6mvZbw8f/68ZGVlyVdffeXx/LOysqRNmzaSk5PjsQz9T9AuNP70009y8803CwCZMGGCXLx4scn2HTt2SLt27aRHjx5SWlpqevu40GgfDRN8ADJkyBBxuVweyx45cqTJjxC3a9dOampqmpVbsWKFhISEyIgRI6Sqqkr59+rqahk1apQ4HA5ZunSpx+NYXZ+08/ca+JqxxnJycmTAgAECQNLT06WkpERVW7XWd7lc0q1bNwEg+/fvV1WXyKx7xZ+c6zGXWLp0qTgcDomIiJD169c32bZz506JioqSnj17qr7vyHx2zWrXrl2VfSckJMjWrVuVbSdOnJBhw4ZJamqqnD171uM+7D5vJt/ZNada26dXfbKekRnVqy/TK2da59hkLKP7Sy1zQD3HZT5XszejcqjH/NAbtQuNzGHgMvO1rcZ8zZheYzYz6plRGThz5oz07NmzSRlvf+Hh4VJWVtbkGFrGy4YFSAAyYsQIyc/PV7bV1tbKwoULxel0ypYtWzT9/2tNgnahUUTk4sWLMmvWLAkLC5MePXrIlClTJCMjQ8aMGSMREREyfvx4vwdVrbjQaK3i4mKZPXu23H///eJwOJp0XEOGDJE//vGPsnbt2mb1amtrlXdjNPx5uoaffPKJ9OnTR5xOp7z00ksyb9486devn8THx8u6detabKPV9Uk7f66Brxk7fvy4vP3223LnnXfKNddcI+np6bJt2zaf26a1fmPbtm0TANKnTx+/6hMZda/okXM95hKffvqpxMfHS2hoqIwaNUrmzp0r6enpEhUVJenp6XL+/HlVbSLr2DGrixYtkvDw8Cb7T0hIkD59+kj//v3ls88+82k/dp43kzp2zKnW9ulZn6xn5BxZr77M35zpOccm4xmZRRFtc0C9ssznavZnRA71mh96onahkTkMbEb3le6oyZgec0Nm1Du9M1BfXy9Op9PnRUYA8sgjj7g9jr/j5Z49eyQmJqbJMXr37i1DhgwRp9MpS5culbq6Ov3+J7YCDhEPXxgfRKqqqnDw4EEcOHAA9fX16Nq1K5KTk3HddddZ1qbjx4/jyy+/RFJSEhITEy1rB/mnuLgYZ8+exZAhQ1BRUYHo6Gi35err61FQUIDDhw9DRNC3b18MGDAA4eHhPh3H6vqknb/XwFvGSkpK8PLLL8PpdKJfv3644447EBkZ6XObtNZ319aioiLExsbyd7vIb3rfK3rnXOtcQkSwa9cuHDhwALW1tejevTsGDx6MmJgYv9tE1rBjVn/44Qfk5uairKwMLpcLMTExuO222xAfH6/6/Ow4byb17JhTPdqnV32ynhFz5Mb06MvUtlHv+4TMYXQWtc4BtWaZz9UCgxE51HN+qBVzGPiM7iutal/jdjKj3tk9A/6Ml9XV1cjLy0NRURHCwsIQHR2NxMREOJ1OOBwOQ9oZzFrFQqMdcaEx8H388cfIzMxETk6O1U2hIMWMEfmG9woFCmaVAgFzSnbHjJJdMItkB8wh2R0zSsxA6xBmdQOIAlFJSQlefPFFbNy40eqmUJBixoh8w3uFAgWzSoGAOSW7Y0bJLphFsgPmkOyOGSVmoPUIsboBRIEmPz8fDzzwAFasWIGEhASrm0NBiBkj8g3vFQoUzCoFAuaU7I4ZJbtgFskOmEOyO2aUmIHWhZ9oJFLJ4XBg06ZN6Ny5s9VNoSDFjBH5hvcKBQpmlQIBc0p2x4ySXTCLZAfMIdkdM0rMQOvC32i0CH+jkYiIiIiIiIiIiIiIiAIZvzqViIiIiIiIiIiIiIiIiFTjQiMRERERERERERERERERqcaFRiIiIiIiIiIiIiIiIiJSjQuNRERERERERERERERERKQaFxqJiIiIiIiIiIiIiIiISDUuNBIRERERERERERERERGRalxoJCIiIiIiIiIiIiIiIiLVuNBIRERERERERERERERERKpxoZGIiIiIiIiIiIiIiIiIVONCIxERERERERERERERERGpxoVGIiIiIiIiIiIiIiIiIlKNC41EREREREREREREREREpBoXGomIiIiIiIiIiIiIiIhINS40EhEREREREREREREREZFqXGgkIiIiIiKioCEiVjeBiIiIiHTCuR2R/YVZ3QCjXblyBV988QW++OILlJSUoEOHDhg0aBDS0tLQvn17q5tHREHu9OnTWLNmDQ4dOgQRwU033YTU1FTExcXpsn+tfZzV9YkaGHmv2DXns2bNQmVlJZYsWeL3Psh8dszq6dOncebMGZ+PEx8fjy5duuh2fLIfO+a0JWr6xOLiYpw6dcrtth9++AGrV6/GypUr/W4LGc/oOfL+/fvx+eef4/DhwwgJCYHT6URycjKSkpJM3cfPcey3HyOyaKdxeceOHfjkk09w6tQptGvXDomJiZgwYQJiY2N9bh8Zz+g+8efq6+uRm5uLjRs34vjx4+jYsSOeffZZ/PKXv2zSJj1y7O/xyV6MzqgRczutYy7H7KbM7qcA/6/Bli1bUFxcjMmTJ/tch+OlDiSIlZWVyYgRI6R3796yfPly2bx5s7zxxhvSqVMn6dSpk6xatcqythUVFcmSJUtk7969lrWBiIw1b948adOmjaSmpsqnn34qn332maSlpUlERITMnj1bXC6Xpv1r7eOsrk/UwMh7xa45X7ZsmQCQuLg4v+qTNeya1V//+tcCwOe/NWvW6Hp8she75tQbtX3i8OHDvWb89ddf96sdZA4jM1pSUiJjxoyRTp06yWuvvSafffaZfPTRR/Loo48KAHn44YelrKzM8H24w7HffozKoh3G5YqKCrnjjjvcHq9z586Sk5Pj17mR/ox+3aCxyspKmTNnjlx33XXSq1cv+cc//iEXLlxwW1aPHGs5PtmHGRnVe26ndczlmN2Umf1UA3+uQU5OjpKladOm+VSH46V+gnah8cCBA9KtWzeJjo6WEydONNlWXFwssbGx4nA45F//+pcl7eNCI1Fwe/bZZwWATJw4scmA63K5ZPLkyQJAnnrqKb/3r7WPs7o+UQMj7xW75vzYsWMSGRnJJy4Bxq5ZPX78uISEhPj8IlC7du2kurpat+OTvdg1p96o7RN37NjhNeNt27aViooKVW0g8xiZ0QsXLkhiYqJERUXJqVOnmm1/5513BICMGjVKrly5Ytg+3OHYbz9GZdEO43JFRYXccsstcuutt8qrr74qGzdulHfffVfuuusu5bjXXHONlJaWqj4/0pfRrxs09v7770unTp0EgPzmN79plrvG9MixluOTfZiRUb3ndlrHXI7ZTZnZTzVQew3y8vJk1KhRTXLjy0Ijx0t9Be1CY0MgXnvtNbfbV6xYYWlYuNBIFLw+//xzZbJdUlLSbHt5eblce+21AkA2bNjg1zG09nFW1ycSMf5esWPO6+vrJSkpSdq3b88nLgHEzlmdNWuWXH/99bJ06VIpKCiQY8eOuf1r2MfDDz+s6/HJPuycU0/86RNTU1Nl1KhRsnHjRrd/33zzjarzIvMYndHHH39cAMisWbPcbne5XOJ0OgWAfPLJJ4bt4+c49tuPkVm0w7iclpYmzz33nNTW1jbbNn36dOXF07lz56o6N9KXGa8biFztg2bOnCkApE2bNvL222+3WEePHGs5PtmDWRnVc26ndczlmN2UWRloTO012L17t2RnZ8vFixfln//8p6qFRo6X+grKhcaGmwCAFBYWui1z6dIlJbBPP/20yS3kQiNRMOvfv78AkLFjx3osM2HCBAEgffr0Ub1/rX2c1fWJGhh5r9g15/Pnz5e7775b0tPT+cQlgNg1q5cvX5a+fftKUVFRi8dpeKL0wQcf6HZ8she75tQbtX3ikSNHJCQkRHbu3Kmq/WQPRs+RY2JiBIAsXrzYY5nx48cLAJk3b55h+/g5jv32Y1QW7TAu79+/XyZOnOjxuFVVVRIRESEAZPTo0T6cFRnF6D6xwdSpU5VMrVy5ssXyeuRYy/HJPszIqN5zO61jLsfspszqpxrTcg3++9//+rzQyPFSfyEIQh988AEAwOFwoG/fvm7LtG3bFomJiQCApUuX4uzZs6a1j4iC13/+8x8cOHAAAHDPPfd4LHffffcBAL799lvs379f1TG09nFW1ycCjL9X7JjzXbt24a233sLy5csREhKUU7CgZOesnjx5EgsWLECvXr28HsPlcmHt2rWIiIjAgw8+qNvxyT7snFNP/OkT33zzTdxzzz0YPHiwz20nezBjjlxZWQkA2Llzp8cyFRUVAICoqCjD9tEYx377MTKLdhiXS0pKsGjRIo/HjoyMxI033ggA6NSpU8snRYYwo08EgL/97W9YtmwZAGDMmDF49NFHW6yjR461HJ/swayM6jm30zrmcsxuyqwMNKb1GoSHh/tcluOl/oLyrjl8+DAAoEOHDggNDfVY7uabbwYA1NbW4ssvvzSlbUQU3FatWqU89vTEEACcTqfyeMOGDaqOobWPs7o+EWD8vWK3nFdXV2PSpElYvHgxunXr5vN5kPXsnFWn04nRo0e3eIyvv/4apaWlSElJafbCOPv04GDnnLrjT59YVlaG999/H19//TXuu+8+/OUvf0FeXh4uX77s83mQdcyYIze8GLRhwwacOnWq2fba2lrs27cPAJCcnGzYPhpw7LcnI7Noh3H57rvvRnR0tMd6tbW1OHnyJABg3LhxLbaVjGFGn3j8+HHMmTMHwNUXyZcsWeJTPT1yrOX4ZA9mZFTPuZ3WMZdjdnNmZKAxs68Bx0v9BeVC45EjRwAANTU1XsslJCQojwsKCgxtExG1Dtu2bVMeN+5jfq7xNrUDsdY+zur6RIDx94rdcv7ss89i6NChSEtL87o/sh+7Z9UXq1evBgCMHTvWkuOT8QItp/70iVlZWaipqUFVVRU2bdqEl156CSNHjkSXLl2QkZGBCxcu+LwvMp8Zc+SGF4EqKyvxyCOPoKqqqsn2rKwsnD9/Hunp6UhKSjJsHw049tuTGVlsiZXjcl5eHmpqavDYY495/YQKGcuMHM6ePRu1tbUAgIkTJ+r+iRxvOTbj+GQsMzKq59xO65jLMbs5s8dLu10DjpfqBd1Co4igvr4eAPDTTz/h4sWLHstGRkYqj8+dO2d424go+DV8rUC7du3QtWtXj+Wio6OVd/3t2bMHV65c8Wn/Wvs4q+sTNTDyXrFbztetW4ctW7Z4/VoOsi87Z9UXLpcLa9asQWhoKB566CHTj0/mCKSc+tsnHj58GO3bt2/275WVlXjllVcwcOBAHDt2TNU+yTxGz5EB4Pnnn0d8fDwAID8/H8OGDVPeiZ6dnY05c+Zg9OjRXj9Vo8c+AI79dmZGFr2xclz+/vvv8fjjj+OZZ57Bu+++60frSS9G57CkpATZ2dnKf6empmLfvn2YNWsWHnroIUyYMAELFizA7t27/Wq/txybcXwynhl9pV5zO61jLsds98wcL+12DThe+ifoFhodDkeT7xHfvn27x7JhYWHK40uXLhnaLiIKfhcuXFDeeerLu/UayrhcLpw/f96nY2jt46yuTwQYf6/YKeelpaWYNm0aVq5ciV/84hcttp3sxe5Z9UXD11qNHDmy2TmwTw8OgZRTLX3i2rVr8eOPP+LcuXPYsGEDxo4di4iICGV7UVERhg4dqiwKkX2YMUcGrv5m4ubNm5Wv29q3bx8SExMxbtw4PPXUU8jKysLHH3/cZIHGiH1w7Lcvs7LojVXj8u7duzFs2DCcO3cOHTt2RF1dnR+tJz2YkcP169dDRABc/c2yJUuWICUlBTk5OThy5AhWrVqF2bNnIykpCTNnzlT9VZXecmzG8clYZvWVeszttI65HLPdM3O8tNs14Hjpv6BbaASAlJQU5fG6des8lnO5XMrjmJgYQ9tERMGvrKxMedyuXbsWyzcuU15e7vNxtPZxVtcnMuNesUPORQRTpkzBlClTMGLECJ/aTfYSCFltSUtfa8U+PfAFSk716hNjYmLw4IMPIjs7GyUlJXjhhRcQEnL1aW1FRQUeffRRv/dNxjBrjgwAvXr1wvbt29GnTx8AQFVVFVavXo2bbroJY8aMMXwfHPvtzcwsemL2uJybm4v09HQMHToUhw4dwqVLlzB//nwMGjQIJ06cUNt80oEZOdyyZYvyODY2Fo888ggqKiqQn5+Pw4cP49ChQ0hISICIIDMzE9OnT1dxBi3n2Ojjk7HM7iv9ndtpHXM5ZntmVgbsdA04XmoXlAuNzz//PMLDwwEAy5Yta/Kdwo1t3bpVedy5c2czmn0kGT4AACAASURBVEZEQezHH39UHjscjhbLh4aGKo8rKyt9Po7WPs7q+kRm3Ct2yPmiRYtQXl6OV155xac2k/0EQla9afhaK4fDgdTUVNOPT+YIlJwa0SdGR0fjjTfewNq1a5Xz2rZtG3Jzc3U7Bmln1hy5QVxcHObMmdPk33Jzc/GrX/0Ke/fuNXQfHPvtzews/pzZ43J1dTUKCwsxePBgPPnkk+jSpYuyrbCwEL/97W+VT52ReczIYXFxsfL4r3/9a7MFQafTic2bNyuL1MuXL8eePXt82rcvOTby+GQ8K/tKNXM7rWMux2zPzMqAXa4Bx0t9BOVCY48ePbBw4UKEhISgrq4OaWlpyM7OVj6OvX79eiQnJzeZsA0aNMjCFhNRMGj8dQKN32HqSePvLVfzw+ha+zir6xOZca9YnfODBw8iIyMDH374YZOvf6HAEghZ9Wb79u0oLS3F0KFDPf6uBvv0wBcIOTW6T3zooYeavEDR+AV4sp5Zc+QGf/7znzFjxgxs2rQJGRkZyotfJSUlGD58uE+Ljf7sg2O//ZmdxZ8ze1yOjIzE9OnT8cwzz2DRokUoLi7GggULlDxv374dH330kebzInXMyGHjTyMNGDDAbZkbb7wRU6ZMAXD1U0WLFy/2ad++5NjI45PxrO4rgZbndlrHXI7Z3pmRATtdA46XOpEgtmbNGomOjhYATf6GDx8uBQUFcu+99woACQ0NlQsXLpjatqKiIlmyZIns3bvX1OMSkXGqq6uVfuaGG25osXyvXr2U8t99953q42nt46yuT62XmfeKFTmvqamRW2+9VTIzMz22a9KkSQJA4uLiVJ0PmSuQsurOjBkzBID8/e9/t+T4ZA6759SsPrGqqko6duwoAOR3v/ud3/sh/ZmZ0enTpwsAyc7OVv4tNzdXunbtquyze/fuUlpaqus+OPYHBrOfr/2cXcblN998U9nf+PHj/T0d8pMZOUxISFDqlJWVeSyXn5+vlEtKSvJp377k2Mjjk/Gs7isbeJrbaR1zOWa3zOgMGHUNCgsLlXZMmzbN53qecLxU53+/Hh2ExowZg//3//4fduzYgeLiYnTr1g2JiYmIjo5GWVmZ8p3h9957L6KioixuLREFumuvvRaRkZGorq7G+fPnISJev2KgoqICANCmTRt07NhR9fG09nFW16fWy8x7xYqcv/HGGyguLkZERASWLFnitl3ffvstgKu/+9S4zMSJE23xA+h0VSBl9edcLheys7OVfZt9fDKP3XNqVp8YGRmJAQMG4Msvv8RPP/2k6rzIWGZldMmSJVi8eDGSk5ObfE3fiBEjsHPnTtx///04cOAAzpw5g7lz52LZsmW67YNjf2Aw+/laY3Yal5955hlkZmaiuLgYp0+fVn8ypIkZOezQoYPyuK6uzmO5W265RXl8+PDhFvfra46NOj6Zw8q+sjFPczutY25WVhbH7BYYnYFAmTdxvFTJsiVOi/3pT39SVqS//vpr04/PTzQSBacRI0YofUtxcbHHcuXl5Uq5u+66S/d2aO3jrK5Pwc8O94pROX/88cebvfvc179jx47peYqkg0DNal5engCQgQMHWnJ8Mpedc2pmnzhlyhQBIH/4wx90PTfSzoyMNnzi0NO748vKypRPiLVp08btp8D83QfH/sBhVX9pt3H5iSee4KfILGR0DseNG6fUKyws9Fo2KipKAEhkZGSL+/U1x0Ydn8xjh7mliPu5ndYxl2O2b4zMgFHXQO9PNIpwvFQjqD/R6MmpU6eQmZkJALj//vuRnJxscYuIKFiMHDkSeXl5AIBjx47h+uuvd1vu2LFjyuPRo0fr2gatfZzV9al1sPpeMTLnSUlJuHz5stf6u3btwtGjR3HttdciNTVV+ffIyEhV7SDjBWpWV69eDQBNPpFj5vHJXHbOqZl94pkzZwAATqdTVT0yntEZLS8vR2lpKQAgPj7ebZnOnTtjzpw5eP7551FTU4Njx441+e0wLfvg2B84rOov7TYux8TEAAB69uypqT3kH6NzePvtt2PVqlUAgKNHj6J///4ey7Zt2xaVlZW48cYbW9yvrzk26vhkHqvnlg3cze20jrkcs31jZAYC6RpwvFTB6pVOs9XX10tKSooAkC5dukh5ebkl7eAnGomC06FDh5R3zyxevNhjuaVLlyrlTp48qdvxtfZxVten1sPKe8UOOZ82bZoArfc3HwJJIGbV5XJJt27dBIB8++23ph+fzBeIOW1Mrz7x+uuvF4fDIcePH9e0H9Kf0Rk9cuSIUu/jjz/2WG7btm1Kuf/85z+678Mbjv32YEV/acdxOT09XQDIypUr/d4H+c/oHB48eFCp96c//cljudraWgkJCWn2iTF31OTYiOOTuax+bauBv3M7rWMux2zrM+DPNTDiE40cL30X4vcKZYCaOXMmtmzZgvbt22P16tWIjY21uklEFET69u2LlJQUAMC///1vj+U2btwIABg+fLjHd8Xs3bsXZWVlqo6vtY+zuj61HnrdK4F4n1BgCcSsbt++HSUlJbjlllvQu3dvVcfU4/hkvkDMqd527NiBs2fP4rHHHuOnImzI6IwmJCSgffv2AIADBw543H/Db4WFhoaiX79+uu+D7M+K/tJu43JtbS3y8vLQs2dPpKWl+d0e8p/ROezXrx+GDx8OAFizZg1ExO3+T548CZfLBQB48sknvbZZTY6NOD6Zy8q5ZQPO7axlhwxYjeOlSlavdJqlpqZGJk+eLAAkNjZWCgoKLG0PP9FIFLz27dsnYWFhEhYWJkeOHGm2/ejRoxIRESEhISHyzTffNNteV1cnt99+uwCQiIgIee+991o8ptY+zur61DppuVcC8T5pjO+QDCyBltUZM2YIAJk/f76qenodn6wRaDltrKU+MSsrS9LS0iQzM1MuXbrUbHt9fb0MGDBA+vbtK999953f7SBjGZ3Rp59+WgBIjx495PLly27bkJGRIQDk97//vdvteuzDE4799mF2f2nmuHz+/HnJysqSr776ymOZrKwsadOmjeTk5PjVHtKH0TksKCiQ0NBQASArVqxw24aG3/tMSUlpsb1qc6z38cl8RmbU6LkdP9GoD7PHy8b8uQZbt25VPtH4xBNPeC3L8VJ/rWKhMScnRwYMGCAAJD09XUpKSqxuEhcaiYLcihUrJCQkREaMGCFVVVXKv1dXV8uoUaPE4XDI0qVL3dZt/LVNAKRdu3ZSU1Pj8Vha+zir61Pr5u+9Emj3yc/xiUvgCZSsNv5aq/3796uqq8fxyVqBktOfa6lP7Nq1q9K2hIQE2bp1q7LtxIkTMmzYMElNTZWzZ89qagcZz8iM/vTTT3LzzTcLAJkwYYJcvHixyfYdO3ZIu3btpEePHlJaWuq2fXrswxOO/fZiVn9p9rjcsBAOQEaMGCH5+fnKttraWlm4cKE4nU7ZsmWL6raQ/ozO4dKlS8XhcEhERISsX7++ybadO3dKVFSU9OzZs8Vc+ZtjvY5P1jEqo0bP7bjQqB+zxsuf8+caNLx5AYAMGTJEXC6Xx7IcL/UXtAuNx48fl7ffflvuvPNOueaaayQ9PV22bdtmdbMUXGgkCn6ffPKJ9OnTR5xOp7z00ksyb9486devn8THx8u6des81qutrVXe9dPw9/O+QmsfZ3V9osb8uVcC4T7xhk9cApNds9pYw2+H9enTx+c67NODSyDk9Oda6hMXLVok4eHhTdqXkJAgffr0kf79+8tnn32mSzvIHEZlVETk4sWLMmvWLAkLC5MePXrIlClTJCMjQ8aMGSMREREyfvz4Fl+01GMf7nDstx8js9jA7HF5z549EhMT06R9vXv3liFDhojT6ZSlS5dKXV2dz20h4xmdw08//VTi4+MlNDRURo0aJXPnzpX09HSJioqS9PR0OX/+fItt9CfHeh6frGVERo2e23GhUV9mjJc/5+s1KC4ultmzZ8v9998vDoejyfGGDBkif/zjH2Xt2rXN6nG81J9DxMMXZQewkpISvPzyy3A6nejXrx/uuOMOREZGWt2sJo4fP44vv/wSSUlJSExMtLo5RGSQ+vp6FBQU4PDhwxAR9O3bFwMGDEB4eHiLdYuLi3H27FkMGTIEFRUViI6OBqC9j7O6PpE7/t4rdr1PKHjZLavujlNUVITY2FiffjuMWQ9Ods+pP3744Qfk5uairKwMLpcLMTExuO222xAfH29qO0gfemf056qqqnDw4EEcOHAA9fX16Nq1K5KTk3Hdddf53EY99kH2Z3QWrRiXq6urkZeXh6KiIoSFhSE6OhqJiYlwOp1wOByq9kXmMDqHIoJdu3bhwIEDqK2tRffu3TF48GDExMT41D61Odb7+GQ9IzLKuV1gMbqfsgLHS30F5UJjIOBCIxH54uOPP0ZmZiZycnKsbgqRbfE+oUDBrFIgYE7J7phRsgtmkeyAOSS7Y0aJGWgdwqxuABERuVdSUoIXX3wRGzdutLopRLbF+4QCBbNKgYA5JbtjRskumEWyA+aQ7I4ZJWag9QixugFERNRcfn4+HnjgAaxYsQIJCQlWN4fIlnifUKBgVikQMKdkd8wo2QWzSHbAHJLdMaPEDLQu/EQjEZENORwObNq0CZ07d7a6KUS2xfuEAgWzSoGAOSW7Y0bJLphFsgPmkOyOGSVmoHXhbzRahL/RSERERERERERERERERIGMX51KRERERERERERERERERKpxoZGIiIiIiIiIiIiIiIiIVONCIxERERERERERERERERGpxoVGIiIiIiIiIiIiIiIiIlKNC41EREREREREREREREREpBoXGomIiIiIiIiIiIiIiIhINS40EhEREREREREREREREZFqXGgkIiIiIiIiIiIiIiIiItW40EhEREREREREREREREREqnGhkYiIiIiIiIiIiIiIiIhU40IjEREREREREREREREREanGhUYiIiIiIiIiIiIiIiIiUo0LjURERERERERERERERESkGhcaiYiIiIiIiIiIiIiIiEg1LjQSERERERERERERERERkWpcaCQiIiIiIiIiIiIiIiIi1bjQSERERERERERERERERESqcaGRiIiIiIiIiIiIiIiIiFTjQiMRERERERERERERERERqcaFRiIiIiIiIiIiIiIiIiJSjQuNRERERERERERERERERKQaFxqJiIiIiIiIiIiIiIiISDUuNBIRERERERERERERERGRalxoJCIiIiIiIiIiIiIiIiLVuNBIRERERERERERERERERKpxoZGIiIiIiIiIiIiIiIhsR0SsbgK1IMzqBqi1ZcsWFBcXY/LkyT7XOX36NNasWYNDhw5BRHDTTTchNTUVcXFxxjWUiMgNf/qwlmjt46yuTwQYm6MrV67giy++wBdffIGSkhJ0+P/s3Xt0VNXdPvBnEhIIJg2QCwE0IAkEREMriIEIiMH7CxIIAqkvSNEWRX71UoGiGLSr+kJbTUOphrcIgq9/kIsIWBDBhFsBIXZxCRchXEMuBJWYICQk8/39wcppQuY+55w5Z/J81pq1hjl7n9mH88zes8+ezHTqhCFDhiAtLQ1hYWGa1T937hzOnz/vcjvj4uIQExPjcnnyDX/ManPs0/2DEXOqVZ+oxXsr0p7WfY0a/eHu3buxfv16nD17FiEhIUhMTMTkyZMRHR2tS33Sh9ZZPHToEL744gscO3YMAQEBSEhIQHJyMpKSkhy2Sa3+kuO6OWhxntTMkSc5vrktzKG56X0OGxoasG3bNmzYsAGnTp1C586d8eKLL+LnP/+5avU5X3eP1hkoLS3F2bNnbW774YcfkJOTg48++sitfc6ZMwfV1dXIzs52WrawsBA7duzAiRMnEBUVhYEDB2L8+PEIDQ116znbNDGJgoICGT58uACQmTNnulxvwYIF0r59e0lNTZXPP/9cNm7cKGlpaRIcHCzz5s0Tq9WqYavtKykpkezsbDlw4IBPnp+I9OVpH+aMt32cr+sTiWibo4qKChkxYoT06dNHVqxYIZs3b5bFixdLZGSkREZGypo1azSr/8ADDwgAl295eXkeHyfpw1+zqsfxkX6MmlO1+0St3luR9rTua7ztD6uqquT++++3mcuuXbtKQUGBpvVJP1pmsaysTMaPHy+RkZHy9ttvy8aNG+WTTz6RqVOnCgAZN26cVFRU2KyrVn/Jcd0ctDpPauTImxxrfXykHz3PYXV1tcyfP1+6dOkivXv3lr/+9a9y+fJlTepzvu46PTLQ9L7e3u2dd95xa3/Lly8XANKrVy+H5YqLiyUlJcXmc956662ydu1abw6rTTH8QuP27dtl1KhRLU6yqxPJF198UQDIlClTWgTearXKtGnTBIA8//zzWjXdIS40ErUN3vRhznjbx/m6PpGItjkqLi6W7t27S0REhJw+fbrFttLSUomOjhaLxSL/+Mc/VK9/6tQpCQgIcHnSEhISIrW1tR4dJ+nDX7Oqx/GRfoyaUzX7RC3fW5H2tO5rvO0Pq6qq5K677pKBAwfKH/7wB9mwYYP87//+rzz44INK3jp27Cjl5eWa1Cf9aJnFy5cvS2JiooSHh8vZs2dbbf/ggw8EgIwaNUoaGxtbbFOrv+S4bg5anSc1cuRNjrU+PtKPnudw1apVEhkZKQDkl7/8pdvzY3fqc77uOj0ysHv3bof//x06dJCqqiqX93fy5EkJDQ11utB45MgR6dKliwCQ+Ph4eeihhyQhIaHFcwcEBMjWrVu9Or62wtALjV9//bXk5ubKlStX5G9/+5tbE8kvvvhC6QjKyspaba+srJRbbrlFAMi6deu0aL5DXGgk8n/e9GHOeNvH+bo+kYj2OWq6qPf222/b3L5y5UqHF/y8qT9nzhzp0aOHLFu2TIqKiuTkyZM2b037GDdunNvHR/rx56yKsE/3F0bOqVp9opbvrUh7evQ13vaHaWlp8vLLL0t9fX2rbbNmzVIy99prr9ncv7f1SR9aZ/GZZ54RADJnzhyb261Wq3Ihc/369S22qdFfclw3By3Pkxo58ibHWh8f6UOvc9jQ0CAvvfSSAJD27dvL+++/r3l9ztddo1cGUlNTZdSoUbJhwwabt2+++cblfTU0NEhSUpKEhYU5XGhsbGyUu+++WwYPHtzqw2n79++X2NhY5X1bjx49pKamxuPjaysMvdDY3L///W+3JpIDBgwQADJhwgS7ZSZPniwApG/fvmo21SVcaCRqW9ztw5zxto/zdX0iEW1z1PSGGIAcPnzYZpmrV68qbz5feOEF1epfu3ZN+vXrJyUlJU7b2XTRcfXq1W4cHenNX7PahH26fzBqTrXqE9V+b0Xa07qv8bY/PHTokEyZMsXu/mtqaiQ4OFgAyNixY1tt97Y+6UfrLEZFRQkAWbp0qd0ykyZNEgCyYMEC5TG1+kuO6+ag1XlSK0ee5rgJc2h+ep3DGTNmKOP3Rx99pHl9ztddp0cGjh8/LgEBAbJnzx5Pm9nCwoUL5aGHHpL09HSHC41r166V+Ph4uXLlis3t5eXlyl87ApAtW7ao0j5/FgCTCAoKcrnsv/71LxQXFwMAHn74YbvlHn30UQDAt99+i0OHDnnXQCIiB9zpw5zxto/zdX0iQPscrV69GgBgsVjQr18/m2U6dOiAxMREAMCyZctw4cIFVeqfOXMGixYtQu/evR220Wq1Ij8/H8HBwRgzZozLx0b68uesAuzT/YWRc6pVn6jmeyvSnh59jbf9YVlZGZYsWWJ3/6Ghobj99tsBAJGRka22e1uf9KFHFqurqwEAe/bssVumqqoKABAeHq48pkZ/yXHdHLQ8T2qNu57mGGAO/YFe5/Avf/kLli9fDgAYP348pk6dqnl9ztddo1cG/vznP+Phhx/Gvffe61lDm9m7dy/+/ve/Y8WKFQgIcLzstWrVKixZsgQdO3a0uT0mJgbPPfec8u99+/Z53T5/Z5qFRnesWbNGuW9vggEACQkJyv1169Zp2iYiIrV428f5uj4RoH2Ojh07BgDo1KkTAgMD7Za78847AQD19fXYsmWLKvUTEhIwduxYp23cuXMnysvLkZKS0mpyTsbhz1kF2Kf7CyPnlH0iAfr0Nd72hw899BAiIiLs1quvr8eZM2cAAE8++WSr7d7WJ33okcWmBeV169bh7NmzrbbX19fj4MGDAIDk5OQWz+ltf8lx3Ry0PE9qjbue5hhgDv2BHufw1KlTmD9/PoAbH8DJzs7WpT7fm7pGjwxUVFRg1apV2LlzJx599FH88Y9/xPbt23Ht2jW321tbW4unnnoKS5cuRffu3Z2WDw8PxyOPPOKwzAMPPNBi/+SYXy407tixQ7kfHx9vt1zzbRzQiMgsvO3jfF2fCNA+R8ePHwcA1NXVOSzXfP9FRUWq1XdFTk4OAGDChAlu1SN9+XtW2af7B6Pn1BXsE/2bHn2N1jndvn076urq8PTTTzv8ZL9W9UkdemSxaSG5uroaEydORE1NTYvtWVlZuHTpEtLT05GUlOTWvgHH/SXHdXMwwnlyNu56k2MjHB95R49zOG/ePNTX1wMApkyZ4vZf+3tb35m2/t5UjwxkZWWhrq4ONTU12LRpE15//XWMHDkSMTExyMjIwOXLl13e14svvohhw4YhLS3NpfIffvih0zKdOnVS7g8cONDltrRZvv7uVlcdPnzY5d/gaN++vfJDpc6Eh4cLAAkICJCGhga1musUf6ORqG1xpw9zxts+ztf1iUS0zZHVapWQkBDlNVdbW2u37Pvvv6+UmzRpkir1XdHY2CjdunWTwMBAqaqqcrke6c/fs8o+3T8YOaeu8KRPVPO9FWlP675G65x+99130rNnT/ntb38r169fd6mOmvVJPXqMe5cvX5a4uDglZ4mJiXL69GkREcnJyZGgoCAZO3as1NTUuN1+Z/0lx3Vz8PV5cmXc9SbHvj4+8p7W5/DChQtisViUfH311Vdy4MABefXVV2Xs2LEyadIk+Z//+R/Zu3evJvWd4Xxdn9dxamqq8tvZtm5xcXFy4sQJp/vJz8+XXr16SXV1tfLYU0895fA3Gl2Rm5srAMRisSj9H9nnd3/RePnyZeUTjK58kqGpjNVqxaVLlzRtGxGRt7zt43xdnwjQfqy2WCwtfm9h165ddsu2a9dOuX/16lVV6rui6WtYRo4cyd9pMjB/zyr7dP9g9Jy6gn2if9Ojr9Eyp19//TXuu+8+XLx4EZ07d8b169ddapNa9Uk9eo174eHh2Lx5s/LVbQcPHkRiYiKefPJJPP/888jKysJnn32G0NBQt4/BUX/Jcd0cjHCeXBl3Pc2xEY6PvKPHOVy7di1EBMCN393Ozs5GSkoKCgoKcPz4caxZswbz5s1DUlISXnrppVZfpeltfWfa+ntTvV7H+fn5+PHHH3Hx4kWsW7cOEyZMQHBwsLK9pKQEw4YNU7563pby8nLMnDkTH330EX72s5+5/Nyu2L17N4Abf9Xaq1cvVfftj/xuobGiokK5HxIS4rR88zKVlZWatImISC3e9nG+rk8E6DNWp6SkKPc//fRTu+WsVqtyPyoqSrX6zrT1r2ExC3/PKvt0/2CGnDrDPtG/6dXXqJ3Tbdu2IT09HcOGDcPRo0dx9epVLFy4EEOGDMHp06edtsfb+qQ+Pce93r17Y9euXejbty8AoKamBjk5Objjjjswfvx4t/bVnKP+kuO6ORjhPLk67nqSYyMcH3lHj3O4detW5X50dDQmTpyIqqoq7Nu3D8eOHcPRo0cRHx8PEUFmZiZmzZqlan1n2vp7U71fx1FRURgzZgxyc3NRVlaGV199FQEBN5atqqqqMHXqVJv1RATTp0/H9OnTMWLECLef15GGhgZ8/PHHCAwMxIIFC1Tdt7/yu4XGH3/8UblvsViclm/+I/HV1dWatImISC3e9nG+rk8E6DNWv/LKKwgKCgIALF++vMXvCzRXWFio3O/atatq9R2xWq3Iy8uDxWJBamqqS3XIN/w9q+zT/YMZcuoI+0T/p1dfo2ZOa2trcfjwYdx777147rnnEBMTo2w7fPgw/vu//1v5Swot6pM29B73evXqhfnz57d4bNu2bfjFL36BAwcOuL0/Z/0lx3Vz8PV5cnfcdTfHvj4+8p4e57C0tFS5/6c//anVgl5CQgI2b96sfCBoxYoV2L9/v2r1HeF7U9++jiMiIrB48WLk5+cr+92xYwe2bdvWquySJUtQWVmJt956y6vntGXVqlWorKxERkYGEhMTVd+/P/K7hcbmf87b/JOK9jQ2NtqsS0RkRN72cb6uTwToM1bHxsbivffeQ0BAAK5fv460tDTk5uYqX8uxdu1aJCcnt7gIOWTIENXqO7Jr1y6Ul5dj2LBh6Natm0t1yDf8Pavs0/2DGXLqCPtE/6dXX6NmTkNDQzFr1iz89re/xZIlS1BaWopFixYpF7x27dqFTz75xG5bvK1P2tB73HvzzTcxe/ZsbNq0CRkZGcr5Lysrw/Dhw91ebHTWX3JcNwdfnyd3x113c+zr4yPv6XEOm//F3KBBg2yWuf322zF9+nQAN/5ybenSparVd4TvTY3xOn7iiSdaLCA2/6AYABw5cgQZGRn4+OOPW3zdqhq+//57zJ07F6NHj8Zrr72m6r79md8tNDb/RKIrv7fw008/2axLRGRE3vZxvq5PBOg3Vs+aNQs5OTmIiIjAxYsXMXHiRISHh6Nr16549913sWTJEtx5550AbnwC7/7771e1vj1t/WtYzMTfs8o+3T+YJaf2sE/0f3r2NVrlNDAwEHPmzMGiRYuUx9avX+9yu7ytT+rQM4svvPACFi5ciBUrVuDhhx/GwoUL8dVXXykXrWtqajBmzJgWF8udcdZfclw3B1+fJ3fGXU9y7OvjI+/pcQ6bLwyFh4fbLTdx4kTl/rFjx1Sr7wjfmxrndfz//t//Q+fOnQEA586dUx6vr69Heno6Fi5ciAEDBqj2fE1mz56N7t27Iy8vT/kK0LOb/gAAIABJREFUV3KBmMThw4cFgACQmTNnOiwbGhoqAKRDhw5itVodlg0LCxMA0r59e6dl1VRSUiLZ2dly4MAB3Z6TiHzHnT7MGW/7OF/XJxLRN0d1dXVSWFgoH3/8sXz11Vdy6dIlEREpLy+XoKAgASCPP/64ZvWba2xslG7dugkAOXPmjNvHQvrz96yyT/cPZsppc970iWq+tyLt6d3XqJnT5q5fvy633nqrAJChQ4fqXp+8p0cWP/jgAwEgycnJrbadPXtWBgwYoPRfv/rVr1zap6v9Jcd1c/DVeXJn3PUmx8yh+Wl9DgcPHqzk5/z583bLXbt2TSnXqVMn1erbw/n6fxjldTx69GgBIJMnT1Ye+8Mf/iARERHy97//XT744AObtyFDhggAiYiIaPF4dXW1w+dbtGiR9OnTR8rLy1U9jrbALxcaR4wYoZQtLS21W66yslIp9+CDD6rdZIe40EjUtqh5MczbPs7X9YlEjJGj3//+98q+d+7cqUv97du3CwAZPHiw289HvuHvWTXC8ZH3jHAe9e4TudBoLkbIqIj3/amIyLPPPisAJCkpySf1yTt6ZLHpInVmZqbN7RUVFRIREaFclL18+bLTfbraXxrltUaO+eo8uTPuepNj5tD8tD6HTz75pFLv8OHDDsuGh4cLAAkNDVWtvj2cr/+HUV7H06dPFwDym9/8RnnsmWeeUZ7T3dvJkyftPtfatWuld+/ecu7cOdWPoy3wy7/9HDlypHL/5MmTdss13zZ27FhN20REpBZv+zhf1ycCfJ+js2fPIjMzEwDw2GOPITk5WZf6/BoW8/H3rPr6+Egdvj6P7BPJGV9nFPC+P20SFRUFAOjZs6dP6pN3tM5iZWUlysvLAQBxcXE2y3Tt2hXz588HANTV1TlsRxNX+0sjvNbIOV+dJ1dz5G2OmUPz0/oc3nPPPcr9EydOOCzboUMHADd+c1Gt+vbwvel/GOV1fP78eQBAQkKC8lhSUhKeeuoph7c+ffoAAG655ZYWj4eGhtp8noKCArz88svYvHkzbrvtNtWPoy3wy4XG9PR05X5xcbHdcs23jRkzRtM2ERGpxds+ztf1iQDf5qixsREzZszA1atXERMTgxUrVuhSX0SQl5cHgBMXM/H3rLJP9w9mzCn7xLbF132Nt/1pc2fOnAFwY7HSF/XJO1pnsbq6WrlvtVrtlhsyZIhyv76+3uE+3ekvff1aI9f44jy5kyNvc8wcmp/W5/Dxxx9X7n/99dd2y12/fh1VVVUAgGHDhqlW3xa+N23JKK/jo0ePwmKxYNy4ccpjM2bMwOrVqx3eUlJSANz4gFfzx239huTevXsxY8YMbNiwwe6HKwBg3759+P7771U/Rn/hlwuN/fr1U8L0z3/+0265DRs2AACGDx/OTxMSkeEcOHCgxY+qN/G2j/N1fSJAvRzZe5048tJLL2Hr1q0ICwtDTk4OoqOjdam/a9culJWV4a677lI+XUfG5+9ZZZ/uH8yYU/aJbYsvMwp43582qa+vx/bt29GzZ0+kpaXpXp+8p3UW4+PjERYWBsDxhdnr168DAAIDA9G/f3+HbXanv+S4bg6+6BPdyZG3OWYOzU/rjPbv3x/Dhw8HAOTl5UFEbO7/zJkzymL3c889p1p9W/jetCVfv3cDgN27d+PChQt4+umnXfqLVE8cOnQI6enpyM/PdzgeX7x4EXPnzkXnzp01aYdf8OHXtrqlsLBQ+S7dZ5991mn5gwcPSrt27aRdu3Zy/PjxVttPnDghwcHBEhAQIN98840WTXaIv9FI1La404ddv35d7rnnHgEgwcHB8uGHH7Yq420f5+v6RCLe5ciV18nN6urqZNq0aQJAoqOjpaioyK32elt/9uzZAkAWLlzoVj3yPX/PKvt0/2C2nHrbJ7o7PyTf0zujIu7l9NKlS5KVlSVfffWV3TJZWVnSvn17KSgoUL0+6UfrLL7wwgsCQGJjY+XatWs225CRkSEA5Ne//rXT9rrbX3JcNwe9+0R3c+RtjplD89M6o0VFRRIYGCgAZOXKlTbb0PTbyikpKarXvxnn661pmYGsrCxJS0uTzMxMuXr1aqt9NzQ0yKBBg6Rfv37y3Xffud32mTNnCgDp1auX3TInTpyQmJgYmTJlimRmZtq8vffee/LGG29IbGysvPPOO263oy0xzUJj8x9tHzp0qFitVqd1Vq5cKQEBATJixAipqalRHq+trZVRo0aJxWKRZcuWadlsu7jQSNS2uNOHHT9+vMUPFYeEhEhdXV2rct72cb6uTyTieY5cfZ00KSgokEGDBgkASU9Pl7KyMrfa6W19q9Uq3bt3FwBy6NAht+qSMfh7Vtmn+wez5FSNPtGT+SH5nl4ZFXE/p00XzAHIiBEjZN++fcq2+vp6ee+99yQhIUG2bt2qSX3Sl5ZZ/Omnn+TOO+8UADJ58mS5cuVKi+27d++WkJAQiY2NlfLycoft9LS/5LhuDnr1iZ7kSI0cM4fmp3VGly1bJhaLRYKDg2Xt2rUttu3Zs0fCw8OlZ8+edsdwb+s34XzdPq0y0K1bN2VbfHy8FBYWKttOnz4t9913n6SmpsqFCxc8arezhcbz589Lz549W7TR0S0oKEgqKio8aktbYeiFxtLSUpk3b5489thjYrFYWpzcoUOHyu9+9zvJz893uI/169dL3759JSEhQV5//XVZsGCB9O/fX+Li4uTTTz/V6Uha40Ijkf/ztA+rr69XPvXTdLPXV3jbx/m6PpGIZzly5XVy6tQpef/992X06NHSsWNHSU9Plx07drjcLm/rN7djxw4BIH379vWoPhmDv2eVfbp/MGpOm/O0T1Rjfki+p1VGRbzL6f79+yUqKqrFc/Tp00eGDh0qCQkJsmzZMrl+/bpm9Ul/WmbxypUrMmfOHGnXrp3ExsbK9OnTJSMjQ8aPHy/BwcEyadIkly6eevMekuO6OWiZwyae5kiNHDOH5qd1Rj///HOJi4uTwMBAGTVqlLz22muSnp4u4eHhkp6eLpcuXXLYPm/ri3C+7owWGViyZIkEBQW12B4fHy99+/aVAQMGyMaNG71qs6OFxoaGBklISHB5kRGATJw40av2tAUWETtfYuxHGhoaUFRUhGPHjkFE0K9fPwwaNAhBQUE+a9OpU6ewZcsWJCUlITEx0WftICLjKi0txYULFzB06FBUVVUhIiLCZjlv+zhf1ycCPM+RvddJWVkZ3njjDSQkJKB///64//77ERoa6nJ7vK1vq50lJSWIjo52+js8ZGz+nlX26f7BaDm19TzsE9s2tTMKqJPT2tpabN++HSUlJWjXrh0iIiKQmJiIhIQEWCwWzeuT/rTIYnM1NTU4cuQIiouL0dDQgG7duiE5ORldunRxqX3e9pcc181B6xx6myNvc8wcmp/WGRUR7N27F8XFxaivr8dtt92Ge++9F1FRUS61z9v6fG/qnBYZ+OGHH7Bt2zZUVFTAarUiKioKd999N+Li4rQ+HNJAm1hoNCIuNBKRKz777DNkZmaioKDA100hMiy+TsgsmFUyA+aUjI4ZJaNgFskImEMyOmaUmIG2oZ2vG0BERLaVlZVh7ty52LBhg6+bQmRYfJ2QWTCrZAbMKRkdM0pGwSySETCHZHTMKDEDbUeArxtARESt7du3D48//jhWrlyJ+Ph4XzeHyJD4OiGzYFbJDJhTMjpmlIyCWSQjYA7J6JhRYgbaFv5FIxGRAVksFmzatAldu3b1dVOIDIuvEzILZpXMgDklo2NGySiYRTIC5pCMjhklZqBt4W80+gh/o5GIiIiIiIiIiIiIiIjMjF+dSkRERERERERERERERERu40IjEREREREREREREREREbmNC41ERERERERERERERERE5DYuNBIRERERERERERERERGR27jQSERERERERERERERERERu40IjEREREREREREREREREbmNC41ERERERERERERERERE5DYuNBIRERERERERERERERGR27jQSERERERERERERERERERu40IjEREREREREREREREREbmNC41ERERERERERERERERE5DYuNBIRERERERERERERERGR27jQSERERERERERERERERERu40IjEREREREREREREREREbmNC41EREREROQSEfF1E4icYk6JiIj0w3GXiIyO/ZT22vm6Ae7aunUrSktLMW3aNJ/UJyIiIvWdO3cOeXl5OHr0KEQEd9xxB1JTU9GrVy+v993Y2Igvv/wSX375JcrKytCpUycMGTIEaWlpCAsLM3x9MhZ/zioAlJaW4uzZsza3/fDDD8jJycFHH33k1nGR/oycUwA4dOgQvvjiCxw7dgwBAQFISEhAcnIykpKSXKrPnJqf0TNqS0NDA7Zt24YNGzbg1KlT6Ny5M1588UX8/Oc/t1m+sLAQO3bswIkTJxAVFYWBAwdi/PjxCA0N9bgNpD6jZ1HNHPF6mHFpmUPAN+PuuXPncP78eZfbGBcXh5iYGJfLk760yKiWGXF3zPb2NdIWaN1P3czdc+jN/IDXbFQiJlFQUCDDhw8XADJz5kzd66utpKREsrOz5cCBA75uChERkU8tWLBA2rdvL6mpqfL555/Lxo0bJS0tTYKDg2XevHlitVo93ndFRYWMGDFC+vTpIytWrJDNmzfL4sWLJTIyUiIjI2XNmjWGrk/G4s9ZbdL0ftne7Z133vH4GEkfRs5pWVmZjB8/XiIjI+Xtt9+WjRs3yieffCJTp04VADJu3DipqKhw2g7m1NyMnFFbqqurZf78+dKlSxfp3bu3/PWvf5XLly/bLV9cXCwpKSk2s3nrrbfK2rVrPT4+UpeRs6hmjox2PYxa0jKHvhx3H3jgAYd1br7l5eV5fJykLa0yqkVG3B2z1XqN+Dst+6mbuXsOm3g6P+A1G/UYfqFx+/btMmrUqBbBcOeNkbf1tcKFRiIiIpEXX3xRAMiUKVNavDm1Wq0ybdo0ASDPP/+8R/suLi6W7t27S0REhJw+fbrFttLSUomOjhaLxSL/+Mc/DFmfjMWfs9pk9+7dDidnHTp0kKqqKo+OkfRh5JxevnxZEhMTJTw8XM6ePdtq+wcffCAAZNSoUdLY2Gi3HcypuRk5o7asWrVKIiMjBYD88pe/lNraWofljxw5Il26dBEAEh8fLw899JAkJCS0yGhAQIBs3brVk0MkFRk5i2rlyKjXw+g/tMyhL8fdU6dOSUBAgMsLSCEhIU77V/INrTKqRUbcHbPVeo34Oy37qZu5ew6beDo/4DUbdRl6ofHrr7+W3NxcuXLlivztb39z+42Rt/W1xIVGIiJq67744gtl0lBWVtZqe2Vlpdxyyy0CQNatW+f2/h988EEBIG+//bbN7StXrhQA0rFjRykvLzdcfTIOf89qk9TUVBk1apRs2LDB5u2bb75x+9hIP0bP6TPPPCMAZM6cOTbrW61W5UL6+vXr7baDOTUvo2e0uYaGBnnppZcEgLRv317ef/99p8/f2Ngod999twwePLjVxar9+/dLbGysck2iR48eUlNT4/KxkbqMnEW1cmTk62F0g9Y59OW4O2fOHOnRo4csW7ZMioqK5OTJkzZvTa+FcePGuX18pD0tM6pmRjwZs0XUe434M637qSaensMmns4PeM1GXYZeaGzu3//+t1dvjLytrzYuNBIRUVs3YMAAASATJkywW2by5MkCQPr27evWvpveEAOQw4cP2yxz9epVCQsLEwDywgsvGKo+GYs/Z7XJ8ePHJSAgQPbs2eNW+8k4jJxTEZGoqCgBIEuXLrX7PJMmTRIAsmDBApvbmVNzM3pGm5sxY4ayv48++silNqxdu1bi4+PlypUrNreXl5crf6UGQLZs2eLSfkl9Rs6iFjky2vUwukHLHIr4bty9du2a9OvXT0pKSpyWnTVrlgCQ1atXu7x/0o9WGVU7I56M2SLqvEb8ndb9VBNPz6GI5/MDXrNRXwBMIigoyKf1iYiISD3/+te/UFxcDAB4+OGH7ZZ79NFHAQDffvstDh065PL+V69eDQCwWCzo16+fzTIdOnRAYmIiAGDZsmW4cOGCYeqTcfh7Vpv8+c9/xsMPP4x7773X5baTcRg9pwBQXV0NANizZ4/d56mqqgIAhIeH29zOnJqXGTLa5C9/+QuWL18OABg/fjymTp3qUhtWrVqFJUuWoGPHjja3x8TE4LnnnlP+vW/fPpf2S+oyeha1yBGvhxmP1jkEfDfunjlzBosWLULv3r0dlrNarcjPz0dwcDDGjBnj8v5JH1pmVM2MeDpmA+q8RvyZHv0U4N05BDyfH/CajfpMs9BIRERE/mPNmjXKfXtv6gAgISFBub9u3TqX93/s2DEAQKdOnRAYGGi33J133gkAqK+vx5YtWwxTn4zD37MKABUVFVi1ahV27tyJRx99FH/84x+xfft2XLt2zeXjIN8yek4B4Pbbb1ee9+zZs63q1tfX4+DBgwCA5OTkVtuZU3MzQ0YB4NSpU5g/fz4AIDIyEtnZ2S63ITw8HI888ojDMg888IByv7a21uV9k3qMnkXmqG3QOoeA78bdhIQEjB071mn7du7cifLycqSkpLTJRRyj0zKjamXEmzEb8P414u/06Ke8PYfezA94zUZ9XGgkIiIi3e3YsUO5Hx8fb7dc823uvGk9fvw4AKCurs5hueb7LyoqMkx9Mg5/zyoAZGVloa6uDjU1Ndi0aRNef/11jBw5EjExMcjIyMDly5ddOxjyGaPnFACefPJJADc+PT5x4kTU1NS02J6VlYVLly4hPT0dSUlJrfbNnJqbGTIKAPPmzUN9fT0AYMqUKYiMjHS5DR9++KHTMp06dVLuDxw40OV9k3qMnkXmqG3QOoeA8cfdnJwcAMCECRO82g9pQ4+MOuMsI96M2YD3rxF/p0cGvD2H3vRTvGajPi40EhERke6avoIjJCQE3bp1s1suIiJC+fTi/v370djY6HTfIoKGhgYAwE8//YQrV67YLRsaGqrcv3jxoiHqk7H4c1abHDt2DGFhYa3qVFdX46233sLgwYNx8uRJp8dDvmPknDZ55ZVXEBcXB+DGV/3dd999OHPmDAAgNzcX8+fPx9ixY+1+kpk5NTczZLSsrAy5ubnKv1NTU3Hw4EHMmTMHTzzxBCZPnoxFixbh66+/dtome06fPg3gxtd03XPPPR7vhzxnhiw6wxyZn5Y5bGLkcddqtSIvLw+BgYF44oknPNoHaUuPjDriLCNqjNnevkb8ndYZUOMcetpP8ZqNNrjQSERERLq6fPmy8qkxVz6x1lTGarXi0qVLTstbLJYWv/ewa9cuu2XbtWun3L969aoh6pNx+HtWm+Tn5+PHH3/ExYsXsW7dOkyYMAHBwcHK9pKSEgwbNkyZeJOxGD2nTcLDw7F582Z0794dAHDw4EEkJibiySefxPPPP4+srCx89tlnLSbzzTGn5mWWjK5duxYiAuDGb9plZ2cjJSUFBQUFOH78ONasWYN58+YhKSkJL730kkdf27t7924AN/46o1evXm7XJ++YJYvOMEfmpnUOmxh53G36SsyRI0e6/RdMpD29MuqIs4yoMWZ7+xrxZ3pkQI1z6Gk/xWs22uBCIxEREemqoqJCuR8SEuK0fPMylZWVLj1HSkqKcv/TTz+1W85qtSr3o6KiDFOfjKEtZLW5qKgojBkzBrm5uSgrK8Orr76KgIAb04WqqipMnTrVwZGQr5ghp0169+6NXbt2oW/fvgCAmpoa5OTk4I477sD48eNdagtzaj5myejWrVuV+9HR0Zg4cSKqqqqwb98+HDt2DEePHkV8fDxEBJmZmZg1a5ZLbWvS0NCAjz/+GIGBgViwYIFbdUkdZsmiI8yR+emRwyZGHXf5tanGpmdG7XGWEbXGbDVeI/5Ijwyo+b7Lk36K12zUx4VGIiIi0tWPP/6o3LdYLE7LN/9h7urqapee45VXXkFQUBAAYPny5S1+X6C5wsJC5X7Xrl0NU5+MoS1k1Z6IiAgsXrwY+fn5ynHt2LED27Ztc1qX9GWGnDbXq1cvzJ8/v8Vj27Ztwy9+8QscOHDApfY0YU7NwSwZLS0tVe7/6U9/anVxMyEhAZs3b1YuMq1YsQL79+93qX0AsGrVKlRWViIjIwOJiYku1yP1mCWLjjBH5qdHDpsz2rjb9JWYFosFqampbj0/6UPvjN7MlYyoOWar+RrxF3pkQKv3Xa72U7xmoz4uNBIREZGumn/1RvNPh9nT/Dv+Xf1qndjYWLz33nsICAjA9evXkZaWhtzcXOVrNdauXYvk5OQWbyaHDBlimPpkDG0hq8488cQTeOutt5R/N59okTGYIafNvfnmm5g9ezY2bdqEjIwM5QJAWVkZhg8f7tEFHebU2MyS0eaf3h80aJDN57n99tsxffp0ADd+32fp0qUute/777/H3LlzMXr0aLz22msu1SH1mSWL9jBH/kGPHDZntHF3165dKC8vx7Bhwxz+7hv5jt4ZvZkrGVFzzNbiNWJ2emRAy/ddgPN+itdsNCAmcfjwYQEgAGTmzJm611dbSUmJZGdny4EDB3zdFCIiIl3V1tYqY/Ktt97qtHzv3r2V8t99951bz5WXlycRERFK/abb8OHDpaioSB555BEBIIGBgXL58mXD1SffaktZdaSmpkY6d+4sAORXv/qVW3VJe2bK6axZswSA5ObmKo9t27ZNunXrpuzrtttuk/LycrfaJcKcGplZMhofH6+Ur6iosPsc+/btU8olJSW51K709HRJTEyU6upqt46H1GWWLNrjaY6Mdj2srdMzh0Ycd2fPni0A5N1333X7OUkfembUFlcyotaYreVrxMz0yICW77uauNJP8ZqNerjQ6CNcaCQiorYsNDRUAEiHDh3EarU6LBsWFiYApH379k7L2lJXVyeFhYXy8ccfy1dffSWXLl0SEZHy8nIJCgoSAPL4448btj75VlvKqiOjR48WADJ58mSP6pO2zJDTDz74QABIcnJyq21nz56VAQMGKPM1TxcKmVPjMkNGBw8erGTw/Pnzdvd/7do1pVynTp2ctmfRokXSp0+fNneR0qjMkEVbvMmR0a6HkT45NOK429jYqCzgnDlzxqPnJH3o2Vc252pG1Biz9XiNmJnWGdDqfdfNXOmneM1GHe1AREREpLO7774b27dvx7Vr11BWVoYePXrYLHfx4kXU1NQAAEaMGOHS7wPcLDg4GCNHjmz1eFZWFq5fvw4A+P3vf2/Y+uRbbSmrjtx2220AgPDwcI/qk7bMkNM333wTADBx4sRW22JjY7F161YMGDAA3333Hf7v//4P7777rtt5Y06NywwZ7d27t/LbP9XV1bj11ltt7r99+/YIDw9HdXU1GhoaHLbls88+Q3Z2NgoLCxETE+PuoZAGzJDFmzFH/kePHBpx3G36SszBgwejZ8+ebj0X6UvPvrI5VzOixpitx2vEzLTOgBbvu2xxpZ/iNRt18DcaiYiISHfN38SdPHnSbrnm28aOHava8589exaZmZkAgMceewzJycmmqk/6aetZbXL+/HkAQEJCgkf1SVtGz2llZSXKy8sBAHFxcTb30bVrV8yfPx8AUFdX5/A47GFOjcvoGQWAe+65R7l/4sQJh/vr0KEDgBu/HWRPQUEBXn75ZWzevFm5yEW+Z4YsNscc+Setc2jUcTcnJwcAMGHCBLefi/Tlq77S1Yx4O2br9RoxM60zoPb7Lns8nR/wmo37uNBIREREuktPT1fuFxcX2y3XfNuYMWNUee7GxkbMmDEDV69eRUxMDFasWGGq+qSvtpzV5o4ePQqLxYJx48Z5vA/SjtFzWl1drdy3Wq129zVkyBDlfn19vdttYU6Ny+gZBYDHH39cuf/111/b3d/169dRVVUFABg2bJjNMnv37sWMGTOwYcMGuxcwAWDfvn34/vvvXTkMUokZstiEOfJfWufQiOOuiCAvLw8AFxrNwBd9pTsZ8XbM1us1YmZaZ0DN912OeDI/4DUbz3ChkYiIiHTXr18/pKSkAAD++c9/2i23YcMGAMDw4cNtfnXKgQMHUFFR4dZzv/TSS9i6dSvCwsKQk5OD6OhoU9UnfbXlrDbZvXs3Lly4gKefftqjT5GS9oye0/j4eISFhQFwfKGi6auJAgMD0b9/f7fawZwam9EzCgD9+/fH8OHDAQB5eXkQEZvlzpw5o1yUfO6551ptP3ToENLT05Gfn+8wxxcvXsTcuXPRuXNnt46HvGOGLALMkb/TOodGHHd37dqFsrIy3HXXXejTp49bz0X680Vf6U5GvB2z9XiNmJ3WGVDrfZcjns4PeM3GQz79hUg3FBYWKj/8+eyzz+peX20lJSWSnZ0tBw4c8HVTiIiIfOLgwYPSrl07adeunRw/frzV9hMnTkhwcLAEBATIN99802Lb9evX5Z577hEAEhwcLB9++KHT56urq5Np06YJAImOjpaioiK32uvr+uQ7/pzVrKwsSUtLk8zMTLl69Wqr7Q0NDTJo0CDp16+ffPfdd261g/Rl9Jy+8MILAkBiY2Pl2rVrNstkZGQIAPn1r3/d4nHm1D8YPaMiIkVFRRIYGCgAZOXKlTbL/P73vxcAkpKSYvMYYmJiZMqUKZKZmWnz9t5778kbb7whsbGx8s477zhtE6nP6FlUO0dGux5GN2idQ6ONu7NnzxYAsnDhQpfKk+/p3Ve6mxFvx2xvXiNthdYZ8OYcatFP8ZqNd0yz0NgUKgAydOhQsVqtutZXGxcaiYiIRFauXCkBAQEyYsQIqampUR6vra2VUaNGicVikWXLlrWqd/z4cWVcByAhISFSV1dn93kKCgpk0KBBAkDS09OlrKzMrXb6uj75nr9mtVu3bkrb4uPjpbCwUNl2+vRpue+++yQ1NVUuXLjgVjvIN4yc059++knuvPNOASCTJ0+WK1eutNi+e/duCQkJkdjYWCkvL2+xjTn1H0bOaJNly5bCs/bYAAAgAElEQVSJxWKR4OBgWbt2bYtte/bskfDwcOnZs2erfZ4/f1569uzZop2ObkFBQVJRUeFyu0hdRs2iFjky2vUw+g8tc2ikcddqtUr37t0FgBw6dMilOmQMevWVnmbE0zFbxLvXSFuidQY8PYdq91O8ZuM9Qy80lpaWyrx58+Sxxx4Ti8XSIpxDhw6V3/3ud5Kfn69ZfS1xoZGIiOiG9evXS9++fSUhIUFef/11WbBggfTv31/i4uLk008/tVmnvr5e+XRc0+3mMfXUqVPy/vvvy+jRo6Vjx46Snp4uO3bscLldvq5PxuOPWV2yZIkEBQW1aF98fLz07dtXBgwYIBs3bnS5HWQMRs2piMiVK1dkzpw50q5dO4mNjZXp06dLRkaGjB8/XoKDg2XSpEk2LwYwp/7FyBlt8vnnn0tcXJwEBgbKqFGj5LXXXpP09HQJDw+X9PR0uXTpUovyDQ0NkpCQ4PLiEACZOHGiR20j9Rgti2rmyMjXw6glrXIoYpxxd8eOHQJA+vbt61Y9MgYtM9rEm4y4O2Y35+lrpK3ROgOenEM1+iles1GXRcTOF+CSpk6dOoUtW7YgKSkJiYmJvm4OERGRTzU0NKCoqAjHjh2DiKBfv34YNGgQgoKCHNYrLS3FhQsXMHToUFRVVSEiIgIAUFZWhjfeeAMJCQno378/7r//foSGhrrcHl/XJ+Pyt6wCwA8//IBt27ahoqICVqsVUVFRuPvuuxEXF+fWfsg4jJbTm9XU1ODIkSMoLi5GQ0MDunXrhuTkZHTp0sVuHebUvxg9owAgIti7dy+Ki4tRX1+P2267Dffeey+ioqK82i8ZixmySP5P7RzezNfjbmlpKUpKShAdHd3mfufOX2idUW8z4u2Y7clrpK3ROgOenENv+imO1+rjQqOPcKGRiIhIHZ999hkyMzNRUFDg66YQOcSskhkwp2R0zCgZBbNIRsAcktExo8QMtA3tfN0AIiIiIk+VlZVh7ty52LBhg6+bQuQQs0pmwJyS0TGjZBTMIhkBc0hGx4wSM9B2BPi6AURERESe2LdvHx5//HGsXLkS8fHxvm4OkV3MKpkBc0pGx4ySUTCLZATMIRkdM0rMQNvCv2gkIiIiU7JYLNi0aRO6du3q66YQOcSskhkwp2R0zCgZBbNIRsAcktExo8QMtC38jUYf4W80EhERERERERERERERkZnxq1OJiIiIiIiIiIiIiIiIyG1caCQiIiIiIiIiIiIiIiIit3GhkYiIiIiIiIiIiIiIiIjcxoVGIiIiIiIiIiIiIiIiInIbFxqJiIiIiIiIiIiIiIiIyG1caCQiIiIiIiIiIiIiIiIit3GhkYiIiIiIiIiIiIiIiIjcxoVGIiIiIiIiIiIiIiIiInIbFxqJiIiIiIiIiIiIiIiIyG1caCQiIiIiIiIiIiIiIiIit3GhkYiIiIiIiIiIiIiIiIjcxoVGIiIiIiIiIiIiIiIiInIbFxqJiIiIiIiIiIiIiIiIyG1caCQiIiIiIiIiIiIiIiIit3GhkYiIiIiIiIiIyGRExNdNICLye+xrzY/nUHvtfN0Ad23duhWlpaWYNm2ay3UKCwuxY8cOnDhxAlFRURg4cCDGjx+P0NBQDVtKREREnvBkrHfm3LlzyMvLw9GjRyEiuOOOO5CamopevXqZoj4Zh5bnsrGxEV9++SW+/PJLlJWVoVOnThgyZAjS0tIQFhameX0AOHToEL744gscO3YMAQEBSEhIQHJyMpKSkrw9PNKRv+eU8zvzM3JGm3jbH3LsNwejZ7G0tBRnz561ue2HH35ATk4OPvroI7faNWfOHFRXVyM7O9uteqQdo+ewOW/nalrM9Uh7Wo9pWsxB3OnrtOhr/Y0WGTh37hzOnz/vcvm4uDjExMTY3ObtOeQ8WAViEgUFBTJ8+HABIDNnznSpTnFxsaSkpAiAVrdbb71V1q5dq3Gr7SspKZHs7Gw5cOCAz9pARERkJJ6M9a5YsGCBtG/fXlJTU+Xzzz+XjRs3SlpamgQHB8u8efPEarUauj4Zh5bnsqKiQkaMGCF9+vSRFStWyObNm2Xx4sUSGRkpkZGRsmbNGk3rl5WVyfjx4yUyMlLefvtt2bhxo3zyyScydepUASDjxo2TiooKj4+P9OPPOTXy/I5cZ+SMiqjTH3LsNwejZ1FElPfG9m7vvPOOW+1avny5AJBevXp5clikATPkUMT7uZpWcz3SnpYZ1WoO4m5fp3Zf62+0ysADDzzg8P/95lteXp7dfXl6DjkPVo/hFxq3b98uo0aNahEMVwakI0eOSJcuXQSAxMfHy0MPPSQJCQkt9hMQECBbt27V4Sha40IjERHRDZ6O9a548cUXBYBMmTKlxZtfq9Uq06ZNEwDy/PPPG7Y+GYeW57K4uFi6d+8uERERcvr06RbbSktLJTo6WiwWi/zjH//QpP7ly5clMTFRwsPD5ezZs622f/DBBwJARo0aJY2NjR4dI+nDn3Nq9PkducbIGRVRpz/k2G8ORs+iiMju3bsdXjTt0KGDVFVVudyukydPSmhoKBcaDcQMOfR2rqblXI+0p2VGtZqDuNvXqd3X+hutMnDq1CkJCAhweZExJCREamtrbe7L03PIebC6DL3Q+PXXX0tubq5cuXJF/va3v7k8IDU2Nsrdd98tgwcPbjWY7t+/X2JjY5V99ejRQ2pqajQ8Ctu40EhEROT5WO+KL774QnlDWlZW1mp7ZWWl3HLLLQJA1q1bZ7j6ZBxan8sHH3xQAMjbb79tc/vKlSsFgHTs2FHKy8tVr//MM88IAJkzZ47N+larVVnQWb9+vRtHRnry55yaYX5Hzhk9oyLe94cc+83BDFkUEUlNTZVRo0bJhg0bbN6++eYbl9vU0NAgSUlJEhYWxoVGgzBDDr2dq2k51yPtaZ1RLeYgnvR1ava1/kbLDMyZM0d69Oghy5Ytk6KiIjl58qTNW1NfNW7cOLv78vQcch6sLkMvNDb373//2+UBae3atRIfHy9Xrlyxub28vFz5NCwA2bJlixZNdogLjURERC25M9a7YsCAAQJAJkyYYLfM5MmTBYD07dvXcPXJOLQ8l02TNwBy+PBhm2WuXr2qTJZfeOEFVeuLiERFRQkAWbp0qd12Tpo0SQDIggUL3Dg60pM/59QM8ztyzsgZbeJtf8ix3xzMkMXjx49LQECA7Nmzx63nt2fhwoXy0EMPSXp6OhcaDcIMOWzO27ma2nM90p7WY5oWcxB3+zq1+1p/o1UGrl27Jv369ZOSkhKnZWfNmiUAZPXq1Ta3e3MOOQ9WVwBMIigoyOWyq1atwpIlS9CxY0eb22NiYvDcc88p/963b5/X7SMiIiLvuDPWO/Ovf/0LxcXFAICHH37YbrlHH30UAPDtt9/i0KFDhqlPxqH1uVy9ejUAwGKxoF+/fjbLdOjQAYmJiQCAZcuW4cKFC6rVB4Dq6moAwJ49e+y2s6qqCgAQHh7u9JhIf/6eU87vzM/oGW3iTX/Isd8czJLFP//5z3j44Ydx7733uvzc9uzduxd///vfsWLFCgQEmOYyoF8zSw6b83aupuZcj7Snx5im9hzEk75Ozb7W32iZgTNnzmDRokXo3bu3w3JWqxX5+fkIDg7GmDFjbJbx5hxyHqwuv3yHER4ejkceecRhmQceeEC5X1tbq3WTiIiISEdr1qxR7tubXANAQkKCcn/dunWGqU/GofW5PHbsGACgU6dOCAwMtFvuzjvvBADU19djy5YtqtUHgNtvv11p99mzZ1vVra+vx8GDBwEAycnJTo+J9OfvOeX8zvyMntEm3vSHHPvNwQxZrKiowKpVq7Bz5048+uij+OMf/4jt27fj2rVrLrejSW1tLZ566iksXboU3bt3d7s+acMMOaS2TY8xTc05iCd9nZp9rT/SMgMJCQkYO3as03I7d+5EeXk5UlJSbC70eXsOOQ9Wl18uNH744YdOy3Tq1Em5P3DgQC2bQ0RERDrbsWOHcj8+Pt5uuebbmr8p9nV9Mg6tz+Xx48cBAHV1dQ7LNd9/UVGRavUB4MknnwRw4xOdEydORE1NTYvtWVlZuHTpEtLT05GUlOTwecg3/D2nnN+Zn9Ez2sSb/pBjvzmYIYtZWVmoq6tDTU0NNm3ahNdffx0jR45ETEwMMjIycPnyZZfb8+KLL2LYsGFIS0tzuQ5pzww5pLZNjzFNzTmIJ32dmn2tPzLC+5qcnBwAwIQJE2xu9/Ycch6sLr9caHTF6dOnAdz4GoF77rnHx60hIiIiNTV9xUdISAi6detmt1xERITyybj9+/ejsbHREPXJOLQ8lyKChoYGAMBPP/2EK1eu2C0bGhqq3L948aIq9Zu88soriIuLA3DjKyfvu+8+nDlzBgCQm5uL+fPnY+zYscjOznZ6TOQbbSGnznB+Z2xGzmhz3vSHHPvNwQxZPHbsGMLCwlrVqa6uxltvvYXBgwfj5MmTTtvz6aefYuvWrViyZInTsqQvM+SQ2jY9xjS15iCe9nVq9bX+ytfva6xWK/Ly8hAYGIgnnnjCZhlvzyHnwepqswuNu3fvBnBjRbxXr16+bQwRERGp5vLly8qndyMjI52WbypjtVpx6dIln9cn49D6XFoslha/S7Fr1y67Zdu1a6fcv3r1qir1m4SHh2Pz5s3K1wwdPHgQiYmJePLJJ/H8888jKysLn332WYuLUWQcbSWnznB+Z1xGz2hznvaHHPvNwSxZzM/Px48//oiLFy9i3bp1mDBhAoKDg5XtJSUlGDZsmHIx1Jby8nLMnDkTH330EX72s585bTvpxyw5pLZLrzFNjTmIN32dGn2tvzLC+5qmr00dOXKk3TZ4ew45D1ZXm1xobGhowMcff4zAwEAsWLDA180hIiIiFVVUVCj3Q0JCnJZvXqaystLn9ck49DiXKSkpyv1PP/3Ubjmr1arcj4qKUq1+k969e2PXrl3o27cvAKCmpgY5OTm44447MH78eCdHQb7UlnJqD+d3xmaGjDbnSX/Isd8czJbFqKgojBkzBrm5uSgrK8Orr76KgIAbl/GqqqowdepUm/VEBNOnT8f06dMxYsQIl9pN+jFbDqnt0XNM82YOolZf52lf68+M8L7G2demNufNOeQ8WD1tcqFx1apVqKysREZGBhITE33dHCIiIlLRjz/+qNy3WCxOywcGBir3q6urfV6fjEOPc/nKK68gKCgIALB8+fIWv4XRXGFhoXK/a9euqtVvrlevXpg/f36Lx7Zt24Zf/OIXOHDggNNjId9oazm1hfM7YzNDRm/mbn/Isd8czJjFJhEREVi8eDHy8/OVdu3YsQPbtm1rVXbJkiWorKzEW2+95VKbSV9mziG1DXqPaZ7OQbTo69zpa/2Zr9/XNH1tqsViQWpqqlt1PTmHnAero80tNH7//feYO3cuRo8ejddee83XzSEiIiKVNf9ajeaf0rWn+W8IREZG+rw+GYce5zI2NhbvvfceAgICcP36daSlpSE3N1f5Cpi1a9ciOTm5xQWiIUOGqFa/uTfffBOzZ8/Gpk2bkJGRoUzMysrKMHz4cE6yDKqt5fRmnN8ZnxkyejN3+0OO/eZgxize7IknnmhxUb35QhEAHDlyBBkZGfj4449bfH0cGYc/5JD8m95jmidzEK37Omd9rb/z9fuaXbt2oby8HMOGDXP4+5COuHMOOQ9WiZjE4cOHBYAAkJkzZ3q8n/T0dElMTJTq6moVW+e+kpISyc7OlgMHDvi0HUREREah1lhfW1ur7OfWW291Wr53795K+e+++87n9ck49DyXeXl5EhERodRvug0fPlyKiorkkUceEQASGBgoly9fVr3+rFmzBIDk5uYqj23btk26deum7Ou2226T8vJyt46LtNeWcmqLUeZ3ZJ+ZMiriWX/Isd8czJZFe2pqaqRz584CQH71q18pj9fV1cnAgQMlMzPTbt2nnnpKAEivXr3cek5Sj1lz6O1cTa25HmlPz4x6Mubq1dfZ62vbAl+/r5k9e7YAkHfffder/bhyDjkPVs9/fvW3DVi8eDH27duH7du388ewiYiI/NQtt9yC0NBQ1NbW4tKlSxARh1/3UVVVBQBo3749OnfuDIvF4tP6ZBzeZskd48ePx3/9139h9+7dKC0tRffu3ZGYmIiIiAhUVFRg69atAIBHHnkE4eHhqtbPzs7G0qVLkZyc3OI3MEaMGIE9e/bgscceQ3FxMc6fP4/XXnsNy5cvd+vYSFttJae2cH5nDmbKqKf9oZ7HSJ4zUxYdCQ0NxaBBg7Blyxb89NNPyuOLFy9GaWkpgoODkZ2dbbPut99+C+DGb1A1LzNlyhT2ozrxlxyS/9Iro56OuXr1dfb62rbAl+9rrFYrcnNzAcDr30h0dg45D1aZjxY43ebtJ1/Wrl0rvXv3lnPnzmnQOvfxLxqJiIhaUvNTriNGjFD2VVpaardcZWWlUu7BBx80TH0yDiOcy9///vfKvnfu3Kl6/aZPa9r7VHBFRYXyafj27du7/ZcXpL22kNObGW1+R46ZJaPe9IdGOEZyzgjnydv+UkRk+vTpAkB+85vfKI8988wzrf5yzdXbyZMn1To8coEZc8i/aGxb9Miop2Ounn2drb62rfBVP7V9+3YBIIMHD/Z6XyKOzyHnwepqE3/RWFBQgJdffhmbN2/Gbbfd5uvmEBERkcZGjhyJ7du3AwBOnjyJHj162Cx38uRJ5f7YsWMNU5+Mw9fn8uzZs8jMzAQAPPbYY0hOTla1fmVlJcrLywEAcXFxNvfRtWtXzJ8/H6+88grq6upw8uRJDBo0yN1DIQ35e05vxvmd+Zgho972h74+RnKNr8+Tt/1lk/PnzwMAEhISlMeSkpJw7do1h/X27t2LEydO4JZbbkFqaqryeGhoqEftIM/4Sw7Jf2mdUW/GXD37Olt9bVvhq34qJycHAFr8haE37J1DzoPVF+DrBmht7969mDFjBjZs2GA3NACwb98+fP/99zq2jIiIiLSSnp6u3C8uLrZbrvm2MWPGGKY+GYcvz2VjYyNmzJiBq1evIiYmBitWrFC9fnV1tXLfarXa3deQIUOU+/X19W61g7Tn7zltjvM7czJDRr3tDzn2m4MZsuiKo0ePwmKxYNy4ccpjM2bMwOrVqx3eUlJSAABRUVEtHu/atavXx0eu85cckv/SOqPejLl69nW2+tq2whf9lIggLy8PgHoLjfbOIefB6vPrhcZDhw4hPT0d+fn56N+/v91yFy9exNy5c/nbCERERCZz4MABVFRUtHq8X79+yuTin//8p936GzZsAAAMHz4cPXv2NEx9Mg61zqW9rDry0ksvYevWrQgLC0NOTg6io6NVrx8fH4+wsDAAjieQ169fBwAEBgY6fF9NvuHvOW3C+Z15mSGj3vaHHPvNwQxZdGb37t24cOECnn76adx+++0e7YN8yx9ySP5N64yaYQ7S1vtaX/RTu3btQllZGe666y706dPHg1a35OgcmiGDpuPr7251VWFhofJ9v88++6zT8idOnJCYmBiZMmWKZGZm2ry999578sYbb0hsbKy88847OhzFf/A3GomIiFpyZ6y/fv263HPPPQJAgoOD5cMPP2xV5uDBg9KuXTtp166dHD9+vNX2EydOSHBwsAQEBMg333xjuPpkHN6cS1eyerO6ujqZNm2aAJDo6GgpKipyq73u1n/hhRcEgMTGxsq1a9dslsnIyBAA8utf/9qttpB+/D2nRp/fkXNmyKi3/SHHfnMwchazsrIkLS1NMjMz5erVq622NzQ0yKBBg6Rfv37y3XffuXC0Lc2cOVMASK9evdyuS+oycg5tcfe6rNr1SX9aZ1TLOYizvk7rvtZf6N1PzZ49WwDIwoULnZZV4xxyHqwu0yw0Nv+R4qFDh4rVarVb9vz589KzZ0+Xfwg2KChIKioqdDwaLjQSERHdzJ2x/vjx4y3G8pCQEKmrq2tVbuXKlRIQECAjRoyQmpoa5fHa2loZNWqUWCwWWbZsmd3n8XV9Mg5Pz6WrWW1SUFAggwYNEgCSnp4uZWVlbrXTk/o//fST3HnnnQJAJk+eLFeuXGmxfffu3RISEiKxsbFSXl7uVntIX/6aUzPM78g1Rs+oGv0hx35zMGoWu3Xrpuw7Pj5eCgsLlW2nT5+W++67T1JTU+XChQseHDUXGo3GqDm0xZ25mhb1yTe0zKiWcxBnfZ3Wfa0/0aufslqt0r17dwEghw4dctouNc4h58HqMvRCY2lpqcybN08ee+wxsVgsLcI5dOhQ+d3vfif5+fkt6jQ0NEhCQoLLk1AAMnHiRN2PjQuNREREno31IiL19fXKp+OabvbG1PXr10vfvn0lISFBXn/9dVmwYIH0799f4uLi5NNPP3XaRl/XJ+Pw5Fy6ktVTp07J+++/L6NHj5aOHTtKenq67Nixw+V2eVtfROTKlSsyZ84cadeuncTGxsr06dMlIyNDxo8fL8HBwTJp0iROtE3C33Jqlvkduc6oGW2iRn/Isd8cjJjFJUuWSFBQUIv9x8fHS9++fWXAgAGyceNGr46ZC43GY8QcNvF0rqZWfTIGrTIqot0cxFlfp3Vf62+0zECTHTt2CADp27evS21S6xxyHqwei4gISHenTp3Cli1bkJSUhMTERF83h4iIyJRKS0tx4cIFDB06FFVVVYiIiLBZrqGhAUVFRTh27BhEBP369cOgQYMQFBTk0vP4uj4Zh6fn0l5Wy8rK8MYbbyAhIQH9+/fH/fffj9DQUJfb4239m9XU1ODIkSMoLi5GQ0MDunXrhuTkZHTp0sXjfZL+/D2nZH5Gy6gt3vaHHPvNwYhZ/OGHH7Bt2zZUVFTAarUiKioKd999N+Li4jw+TjI2I+aQqDm1M3ozX8xB2Ne6R+sMlJaWoqSkBNHR0S7/FqKa55DzYO9xodFHuNBIRESkjs8++wyZmZkoKCjwdVOIHGJWyQyYUzI6ZpSMglkkI2AOyeiYUWIG2oZ2vm4AERERkafKysowd+5cbNiwwddNIXKIWSUzYE7J6JhRMgpmkYyAOSSjY0aJGWg7AnzdACIiIiJP7Nu3D48//jhWrlyJ+Ph4XzeHyC5mlcyAOSWjY0bJKJhFMgLmkIyOGSVmoG3hXzQSERGRKVksFmzatAldu3b1dVOIHGJWyQyYUzI6ZpSMglkkI2AOyeiYUWIG2hb+RqOP8DcaiYiIiIiIiIiIiIiIyMz41alERERERERERERERERE5DYuNBIRERERERERERERERGR27jQSERERERERERERERERERu40IjEREREREREdH/Z+/eo6Mq7/2Pf3IhEA0GDYSLGG6RgGJsS8FABEXUVlyiQBRIrRQvPSh6lNofIhax9dQue5MD5dBgEdQez1pcFAGrIjQQRBRIu7hEoEAEDbkQVGLCJRfy/f3hyjSBTDKTmcnsmbxfa2WtTfbzPPt5sj/M3rOfmb0BAAAAeI2JRgAAAAAAAAAAAABeY6IRAAAAAAAAAAAAgNeYaAQAAAAAAAAAAADgNSYaAQAAAAAAAAAAAHiNiUYAAAAAAAAAAAAAXmOiEQAAAAAAAAAAAIDXmGgEAAAAAAAAAAAA4DUmGgEAAAAAAAAAAAB4jYlGAAAAAAAAAAAAAF5johEAAAAAAAAAAACA15hoBAAAAAAAAAAAAOC16GB3wFsbN25UQUGBpkyZ4nGdbdu2ae3atTp69KhiY2OVmpqqSZMmKTExMYA9BQAAQLj5/PPPtWrVKu3bt09mpquuukrjxo1T7969fW773Llz+uCDD/TBBx+osLBQnTp10tChQ5WRkaGOHTs6vj6cI5xz2piamhpt3rxZ69atU35+vi699FI98cQT+s53vtOi9tA6nJxTSdqzZ4/ef/997d+/X5GRkUpJSVF6errS0tJaZftoHU7M4eeff64vvvjC4+3069dP3bp187j8zJkzVVZWpqysLI/rILCcmMPm+JIjjtuhx+kZ9bV/gRxfuAj038iX8y4pMPM/HC+9ZCEiOzvbRowYYZJs2rRpHtUpLS21G2+80SRd8NO1a1fLzs4ObKebcPjwYcvKyrJdu3YFrQ8AAADw3Jw5c6x9+/Y2btw4e+edd+zdd9+1jIwMi4mJsVmzZlltbW2L2y4uLraRI0falVdeaUuXLrX169fbb3/7W+vcubN17tzZli9f7uj6cI5wzun5ysrKbPbs2XbZZZdZ37597b//+7/t5MmTLR4fWo+Tc1pYWGjjx4+3zp072wsvvGDvvvuuvfHGG3bfffeZJLvrrrusuLg4YNtH63FqDm+66aZGr2O5+1m1apXH/VqyZIlJst69e7d4bPAvp+awKS3NEcft0OT0jPrav0COL1wE8m/k63lXoOZ/OF56z/ETjTk5OTZq1KgGIfFkorG0tNSuueYau/baa+3555+3devW2csvv2y33HKLq52LLrrIioqKWmEUF2KiEQAAIHQ88cQTJskmT57c4I1UbW2tTZkyxSTZI4880qK28/LyrEePHpaQkGCfffZZg3UFBQWWmJhoERER9pe//MWR9eEc4ZzT87322mvWuXNnk2Q/+tGPrKKioiXDQhA4OacnT5601NRUi4+Pt6NHj16w/s9//rNJslGjRtm5c+f8vn20HqfmMD8/3yIjIz2eZIyNjfX49e/QoUMWFxfHhVMHcWoOm9LSHHHcDk1Oz6iv/Qvk+MJFIP9Gvp53BWr+h+Nlyzh6onH79u22cuVKO3XqlP3pT3/yaqIxIyPDfvazn1lVVdUF66ZPn+5q65lnnglE15vFRCMAAEBoeP/9910X8woLCy9YX1JSYhdffLFJsjVr1njdft0boRdeeKHR9cuWLWvyTVKw68MZwj2ndWpqamzGjBkmydq3b2+LFi3yeiwIHqfn9MEHHzRJNnPmzEbr19bWWkpKikmytWvX+n37aB1OzuHMmTPt8ssvt8WLF1tubq4dOnSo0Z+6Nu66666mL8wAACAASURBVC6P+lRTU2NpaWnWsWNHLpw6hJNz6E5LcsRxO3Q5PaO+9i/Q4wsHgf4b+XreFYj5H46XLefoicb6/vnPf3o80bhnzx6bPHmy2/Xl5eUWExNjkmzs2LH+7qpHmGgEAAAIDVdffbVJsgkTJrgtM2nSJJNk/fv396rtujdvkmzv3r2Nljlz5ozrjc6jjz7qqPpwjnDOaX0PPPCAq61XX33Vq3Eg+JycUzOzLl26mCRbuHCh2+1MnDjRJNmcOXP8vn20Dqfm8OzZszZgwAA7fPhws9upu4D6+uuve9Sv5557zm699VbLzMzkwqlDODWHTWlJjjhuhy6nZ9TX/gVyfOEi0H8jX867AjX/w/Gy5SIVItq1a+dx2cLCQi1YsMDt+ri4OPXp00eS1LlzZ5/7BgAAgPD00UcfKS8vT5L0gx/8wG252267TZL0r3/9S3v27PG4/ddff12SFBERoQEDBjRapkOHDkpNTZUkLV68WMeOHXNMfThDuOe0zh/+8ActWbJEkjR+/Hjdd999Ho8Bwef0nEpSWVmZJOnjjz92u53S0lJJUnx8vN+3j8Bzcg6PHDmiF198UX379m1yG7W1tXrzzTcVExOjO+64o9k+ffLJJ/qf//kfLV26VJGRIXMZMKw5OYfutCRHHLdDl9Mz6mv/Aj2+cNAafyNfzrsCMf/D8dI3YfkXu/XWW5WQkOB2fVVVlY4cOSJJuueee1qpVwAAAAg1y5cvdy27exMsSSkpKa7lNWvWeNz+/v37JUmdOnVSVFSU23KDBg2S9O157IYNGxxTH84Q7jmVpPz8fM2ePVvStxcLsrKyPO4/nMHpOZXkuiC1Zs0aHT169IK6VVVV2r17tyQpPT3d79tH4Dk5hykpKRo7dmyz2/jwww9VVFSk0aNHX3Dh9XwVFRW69957tXDhQvXo0cPTYSDAnJzDxrQkRxy3Q5vTM+pr/wI9vnDQGn8jX867/D3/w/HSd2E50dicnJwcVVZW6ic/+UmTM/IAAABo27Zs2eJaTk5Odluu/jpv3mAdOHBAklRZWdlkufrt5+bmOqY+nCHccypJs2bNUlVVlSRp8uTJ3JkmBDk9p9K/L0SVlZXp7rvvVnl5eYP18+fP14kTJ5SZmam0tDS/bx+BFwo5bM6KFSskSRMmTGi27BNPPKHhw4crIyPDq20gsEIthy3JEcft0Ob0jPrav0CPLxy0xt/Il/Ou5ng7/8Px0ndtbqLxq6++0oMPPqjHH39cL7/8crC7AwAAAAeru11MbGysunfv7rZcQkKC61sFO3fu1Llz55pt28xUU1MjSTp9+rROnTrltmxcXJxr+fjx446oD+cI55xK394aaeXKla5/jxs3Trt379bMmTN15513atKkSXrxxRe1ffv2ZseD4HFyTus8+eST6tevnyRpx44duv76612fhl+5cqVmz56tsWPHXvDNHF5PQ0co5LAptbW1WrVqlaKionTnnXc2Wfatt97Sxo0bm7y1HIIjlHLYkhxx3A59Ts+or/0L5PjCRWv8jVp63tUcb+d/OF76R5uaaNy+fbuuv/56HT9+XJdeeqmqq6uD3SUAAAA41MmTJ12fsvXkU9h1ZWpra3XixIlmy0dERDR4DtPWrVvdlo2OjnYtnzlzxhH14QzhnlNJWr16tcxMktSuXTtlZWVp9OjRys7O1oEDB7R8+XLNmjVLaWlpmjFjhs6ePdvsuNC6nJ7TOvHx8Vq/fr3rllm7d+9Wamqq7rnnHj3yyCOaP3++3n777QYXPv25fQRWqOSwKXW3Tb3hhhuaHENRUZGmTZumV199VZdcconH7SPwQimHLc0Rx+3Q5vSM+tq/QI8vHLTW36il511N8Xb+h+Ol/7SJicbNmzcrMzNTw4cP1759+3TmzBk999xzGjp0qD777LNgdw8AAAAOVFxc7FqOjY1ttnz9MiUlJR5tY/To0a7lt956y2252tpa13KXLl0cUx/B1xZyunHjRtdyYmKi7r77bpWWlmrHjh3av3+/9u3bp+TkZJmZ5s2bp+nTp3swKrSmUMhpnb59+2rr1q3q37+/JKm8vFwrVqzQVVddpfHjxwd8+wicUMqhO57cNtXMNHXqVE2dOlUjR470uG20jlDJoS854rgd2pyeUV/71xrjC3Wt+Tdq6XnX+Voy/8Px0r/CfqKxoqJCe/fu1XXXXaeHH35Y3bp1c63bu3evfvzjH7s+ZQMAAADU+eabb1zLERERzZaPiopyLZeVlXm0jSeffFLt2rWTJC1ZsqTBszDq27Rpk2u5a9eujqmP4GsLOS0oKHAt/+53v7vgAntKSorWr1/vugC1dOlS7dy504ORobWEQk7r6927t2bPnt3gd5s3b9Z3v/td7dq1K+DbR2CEWg7PV3fb1IiICI0bN85tuQULFqikpES/+tWvPGoXrStUcuhLjjhuhzanZ9TX/rXG+EJda/+NWnLeVV9L5384XvpX2E80xsXFafr06Xr88ce1YMECFRQU6MUXX3T9B9i6daveeOONIPcSAAAATlP/NjH1P03rTv3nUXhyixlJSkpK0ksvvaTIyEhVV1crIyNDK1eu1DfffKPjx49r9erVSk9Pb/Dme+jQoY6pj+BrCzmt/6nqwYMHN9rHPn36aOrUqZK+/XTywoULPRobWkco5LS+X/7yl3rsscf03nvvae7cua7rB4WFhRoxYkSjF714PXW+UMvh+bZu3aqioiINHz7c7fOyPv30U82dO1d//etfFRMT41G7aF2hkENfc8RxO7Q5PaO+9q81xhfqWvtv1JLzrvpaMv/D8TIALETs3bvXJJkkmzZtms/t/f73v3e1N3HiRD/00DuHDx+2rKws27VrV6tvGwAAAM2rqKhwnS/27Nmz2fJ9+/Z1lf/yyy+92taqVassISHBVb/uZ8SIEZabm2s//OEPTZJFRUXZyZMnHVcfwdMWcpqcnOwqW1xc7LZ/O3bscJVLS0vzamwIrFDK6fTp002SrVy50vW7zZs3W/fu3V1tXXHFFVZUVBSQ7SNwQimHjXnsscdMkv3xj39sdH1lZaVde+21Nm/ePLdt3HvvvSbJevfu7dV44D9Oz6E/csRxO7Q5PaO+9q81xxeqWvNv5Ot5V1Pczf9wvAyMCLPQuG9oXl6eBg0aJEmaNm2aFi1a5FN7NTU16tOnjwoKCjRs2DB99NFH/uimx/Lz87VhwwalpaUpNTW1VbcNAAAAz3Ts2FEVFRXq0KGDTp8+3eStYy655BKVl5erffv2OnPmjEe3mamvqqpK27ZtU0FBgXr06KHU1FQlJCSouLhYSUlJqq6u1u23365169Y5sj6CJ9xzOmTIENct1b744gv17Nmz0bYrKyvVoUMHSVKnTp309ddfezU2BFYo5DQrK0vTpk1Tenq6PvzwwwbrPv/8c40ZM0Z5eXmSpPvvv19Llizx6/YReKGQw8bU1taqZ8+eKioq0pEjR9SrV68LyvzXf/2X5s2bp+eff16RkY3fwOyVV17R9u3blZCQoF//+teu30+ePFmXXHKJV+NDyzk5h/7IEcft0OfkjPqjf605vlDVGn8jf513ueNu/ofjZYAEe6bTU/7+RqOZ2UMPPRS0T83wjUYAAADnGzlypOsctKCgwG25kpISV7lbbrnFr314+umnXW1/+OGHIVcfgRfuOb3nnntc6/bu3dtkO/Hx8SbJ4uLivO4DAisUclr36Xl3n3AvLi52ffOiffv2Xn8jkdfT4AuFHDYmJyfHJNn3v/99t2UefPDBC74V5OnPoUOH/DU8eMDJOfRHjjhuhz4nZ9Qf/XPC+JyuNf5GgT7vMmt8/ofjZWBEXzDz2IbUPXS4sU+CAQAAADfccINycnIkSYcOHdLll1/eaLlDhw65lseOHeu37R89elTz5s2TJI0ZM0bp6ekhVR+tI9xzOmTIEC1fvlySdPDgQV199dVu2+rQoYPKysrUp08fr/qAwHN6TktKSlRUVCRJ6tevX6NtdO3aVbNnz9aTTz6pyspKHTp0yO3zx7zdPlqH03PozooVKyRJEyZMcFsmLS1NZ8+ebbKdTz75RAcPHtTFF1+scePGuX4fFxfnUT/gH07OoT9yxHE79Dk5o/7oX7DHFwoC/TcK9HlXncbmfzheBkiwZzo9FYhvNGZmZpoke/XVV/3Snjf4RiMAAIDz7du3z3UOunDhQrflFi9e7Cp35MgRv2y7pqbGRo8ebZKsW7duVlJSElL10XrCPaeffvqpq99PP/2027aqqqosMjLSJNl//Md/eD0WBJbTc3rgwAHXdt9++223bW3ZssVV7qOPPvLb9tE6nJ7DxtTW1lqPHj1Mkv3rX//yqQ/Tpk0ziWdOBVso5rC+5nLEcTv0OT2jvvYvmOMLFYH+GwXyvKu+ls7/cLz0XuM3oW0DqqqqlJOTo169eikjIyPY3QEAAIADDRgwQKNHj5Yk/e1vf3Nbru6ZISNGjGj0bhm7du1ScXGxV9ueMWOGNm7cqI4dO2rFihVKTEwMqfpoPeGe04EDB2rEiBGSpFWrVsnMGm3ryJEjqq2tlSQ9/PDDXvUDgef0nCYnJ6tjx46S5HoeUGOqq6slSVFRURo4cKDfto/W4fQcNmbr1q0qLCzUNddcoyuvvNKrbcKZQjGH3uC4HfqcnlFf++ev8YWzQGcgkOdddZj/aWXBnun01KZNm1yz1w899FCTZU+cOGHz58+3v//9727LzJ8/39q3b2/Z2dl+7qln+EYjAABAaNi9e7dFR0dbdHS0HThw4IL1Bw8etJiYGIuMjLR//OMfDdZVV1fbkCFDTJLFxMTYK6+80uz2KisrbcqUKSbJEhMTLTc316v+Brs+giPcc5qbm2tRUVEmyZYtW9Zombpn+YwePdqrvqD1OD2njz76qEmypKQkO3v2bKNl5s6da5Lspz/9qd+3j9bh9Bye77HHHjNJ9txzz3lVrzF8Q8M5Qi2H9XmSI47boc/pGfWlf/6o3xYEOgO+nHcFev6H46X3Qmaisf4DYIcNG2a1tbVuy9YFUJKNHDnSduzY4VpXVVVlL730kqWkpNjGjRtbo+uNYqIRAAAgdCxbtswiIyNt5MiRVl5e7vp9RUWFjRo1yiIiImzx4sUX1Kt/SxhJFhsba5WVlW63k52dbYMHDzZJlpmZaYWFhV71M9j1EVzhntPFixdbRESExcTE2OrVqxus+/jjjy0+Pt569epFbh3OyTk9ffq0DRo0yCTZpEmT7NSpUw3Wb9u2zWJjYy0pKcmKioqabIvXU2dzcg7rq3/b1D179nhVtzFcOHWWUMnh+TzNEcft0Of0jLa0f/6q3xYEMgO+nHcFev6H46X3HD3RWFBQYLNmzbIxY8ZYREREg3AOGzbMfv7zn9ubb755Qb2dO3daly5dGpS/8sorbdiwYZaSkmKLFy+26urqIIzo35hoBAAACC1r1661/v37W0pKiv3iF7+wOXPm2MCBA61fv3721ltvNVqnqqrK9UnOup/zz//y8/Nt0aJFdvPNN9tFF11kmZmZtmXLFo/7Fez6cJZwzWmdd955x/r162dRUVE2atQoe+aZZywzM9Pi4+MtMzPTTpw44XWbaH1OzamZ2alTp2zmzJkWHR1tSUlJNnXqVJs7d66NHz/eYmJibOLEiXbs2LFG6/J6GlqcnMM6dc+m6t+/f4vqn48Lp84TCjk8nzc54rgd+pye0Zb0z5/124JAZcCs5eddgZ7/4XjpvQgzNzfKDnEVFRXKycnR4cOHFR0drYSEBKWmpiolJUURERHB7p7y8/O1YcMGpaWlKTU1NdjdAQAAgAdqamqUm5ur/fv3y8w0YMAADR48WO3atWuyXkFBgY4dO6Zhw4aptLRUCQkJkqTCwkI9++yzSklJ0cCBA3XjjTcqLi7O4/4Euz6cKdxyej4z0yeffKK8vDxVVVXpiiuu0HXXXacuXbq0uE20Pqfl9Hzl5eX69NNPlZeXp5qaGnXv3l3p6em67LLLGi3P62locnoOCwoKdPjwYSUmJnr9bCqEDqfn0Fcct0Of0zPa0v75q35b4O8MnM/b8y7J+fM/bU3YTjQ6HRONAAAAbcvbb7+tefPmKTs7O9hdAdwipwgF5BROQA7hBOQQTkdGQQbahuhgdwAAAAAId4WFhXrqqae0bt26YHcFcIucIhSQUzgBOYQTkEM4HRkFGWg7IoPdAQAAACCc7dixQ7fffruWLVum5OTkYHcHaBQ5RSggp3ACcggnIIdwOjIKMtC28I1GAAAAIIAiIiL03nvvqWvXrsHuCuAWOUUoIKdwAnIIJyCHcDoyCjLQtvCMxiDhGY0AAAAAAAAAAAAIZdw6FQAAAAAAAAAAAIDXmGgEAAAAAAAAAAAA4DUmGgEAAAAAAAAAAAB4jYlGAAAAAAAAAAAAAF5johEAAAAAAAAAAACA15hoBAAAAAAAAAAAAOA1JhoBAAAAAAAAAAAAeI2JRgAAAAAAAAAAAABeY6IRAAAAAAAAAAAAgNeYaAQAAAAAAAAAAADgNSYaAQAAAAAAAAAAAHiNiUYAAAAAAAAAAAAAXmOiEQAAAAAAAAAAAIDXmGgEAAAAAAAAAAAA4DUmGgEAAAAAAAAAAAB4LTrYHfDWxo0bVVBQoClTpvjUzsyZM1VWVqasrCw/9QwAAABtib/OS+v7/PPPtWrVKu3bt09mpquuukrjxo1T7969Q6I+nCGQ+/HcuXP64IMP9MEHH6iwsFCdOnXS0KFDlZGRoY4dOwa8viTt2bNH77//vvbv36/IyEilpKQoPT1daWlpvg4PrSjcc9oYrkM4j5NzKPn/9a6mpkabN2/WunXrlJ+fr0svvVRPPPGEvvOd77SoPfiH03N4Pm9zxHE79Dk9o9u2bdPatWt19OhRxcbGKjU1VZMmTVJiYqJH9clo8wL9PtGXfeDv17lAvM9vC0LmG42bNm3SyJEjdfPNN+vjjz/2qa1XXnlFv/vd77R+/Xo/9Q4AAABthT/PS+t79tln1b9/f23ZskV33XWXJkyYoI8++kgpKSl6+umnZWaOrg9nCOR+LCkp0U033aT//M//1DXXXKP7779fffv21cyZM9W3b1+tWLEioPWLioo0YcIE3XTTTaqurlZGRoZGjRql3bt3a9iwYRo3bpxKSkpaPD60nnDOqTtch3AeJ+fQ369333zzjZ555hl17dpVP/3pT9WnTx+99tprWrZsGZOMQebkHJ7P2xxx3A4PTs7oiRMnNGrUKA0fPly/+c1v9MYbb2jJkiV6/PHHlZqaqk2bNjVZn4x6JpAZ8HUf+PN1LlDv89sMc7icnBwbNWqUSXL9TJs2rcXtHTp0yOLi4kyS9e7d24899c7hw4ctKyvLdu3aFbQ+AAAAwHP+Pi+t74knnjBJNnnyZKutrXX9vra21qZMmWKS7JFHHnFsfThDIPdjXl6e9ejRwxISEuyzzz5rsK6goMASExMtIiLC/vKXvwSk/smTJy01NdXi4+Pt6NGjF6z/85//bJJs1KhRdu7cuRaNEa0jnHPqjlOuQ+DfnJxDf7/evfbaa9a5c2eTZD/60Y+soqKiReOC/zk5h+fzNkcct8ODkzNaWlpq11xzjV177bX2/PPP27p16+zll1+2W265xfVe7aKLLrKioqJG65NRzwQyA77uA3+9zgXyfX5b4uiJxu3bt9vKlSvt1KlT9qc//cnnHV1TU2NpaWnWsWPHoJ/gM9EIAAAQOvx9Xlrf+++/b5IsNjbWCgsLL1hfUlJiF198sUmyNWvWOK4+nCHQ+7Huos0LL7zQ6Pply5Y1eUHH1/oPPvigSbKZM2c2Wr+2ttZSUlJMkq1du9aLkaE1hXtOG+Ok6xD4ltNz6K/Xu5qaGpsxY4ZJsvbt29uiRYu8HgsCx+k5rNPSHHHcDn1Oz2hGRob97Gc/s6qqqgvWTZ8+3fV+7Zlnnmm0fTLavEBnwNd94I/XuUC+z29rHD3RWN8///lPn3f0c889Z7feeqtlZmYG/QSfiUYAAIDQ5I/z0vquvvpqk2QTJkxwW2bSpEkmyfr37++4+nCGQO7HuosMkmzv3r2Nljlz5oxrIuXRRx/1a30zsy5dupgkW7hwodt+Tpw40STZnDlzvBgdWlO457QxTroOgW85OYdm/nu9e+CBB1x9efXVV70aBwLP6Tms09IccdwOfU7O6J49e2zy5Mlu2y8vL7eYmBiTZGPHjm20DBltXqDfJ/qyDwJx3ubv9/ltTcg8o7Fdu3Y+1f/kk0/0P//zP1q6dKkiI0Nm2AAAAHAYX89L6/voo4+Ul5cnSfrBD37gttxtt90mSfrXv/6lPXv2OKY+nCHQ+/H111+XJEVERGjAgAGNlunQoYNSU1MlSYsXL9axY8f8Vl+SysrKJKnJ56WUlpZKkuLj45sdE1pfW8jp+bgO4TxOz6Hkn9e7P/zhD1qyZIkkafz48brvvvs8HgMCLxRyKPmWI47boc3pGS0sLNSCBQvcth8XF6c+ffpIkjp37txoGTLatNZ4n+jLPgjEeZs/3+e3RW3iTLeiokL33nuvFi5cqB49egS7OwAAAIAkafny5a5ld2+QJCklJcW1vGbNGsfUhzMEej/u379fktSpUydFRUW5LTdo0CBJUlVVlTZs2OC3+pJcF4vWrFmjo0ePXlC3qqpKu3fvliSlp6c3Oya0vraQ0/q4DuFMTs+h5PvrXX5+vmbPni3p2wvsWVlZHvcfrSMUcuhrjjhuhzanZ/TWW29VQkKC23pVVVU6cuSIJOmee+5ptAwZbVprvE/0ZR/4+7wNvmsTE41PPPGEhg8froyMjGB3BQAAAHDZsmWLazk5Odltufrr6r+BC3Z9OEOg9+OBAwckSZWVlU2Wq99+bm6u3+pL/75IVFZWprvvvlvl5eUN1s+fP18nTpxQZmam0tLSmtwOgqMt5LQ+rkM4k9NzKPn+ejdr1ixVVVVJkiZPnuz22zwInlDIoa854rgd2kIho03JyclRZWWlfvKTn7j9Nh4ZbVprvE/0ZR8EOkPwXthPNL711lvauHFjk1+nBgAAAIKh7nY0sbGx6t69u9tyCQkJrtvF7Ny5U+fOnXNEfThDIPejmammpkaSdPr0aZ06dcpt2bi4ONfy8ePH/VK/zpNPPql+/fpJknbs2KHrr7/e9Un1lStXavbs2Ro7dizf3HGwtpDTOlyHcC4n57COL693hYWFWrlypevf48aN0+7duzVz5kzdeeedmjRpkl588UVt37692fEgcJyeQ3/kiON2aHN6Rpvy1Vdf6cEHH9Tjjz+ul19+2W05Mtq01nif2NJ9EOgMoWXCeqKxqKhI06ZN06uvvqpLLrkk2N0BAAAAXE6ePOn6BKYnnxKvK1NbW6sTJ04EvT6cIdD7MSIiQn379nX9e+vWrW7LRkdHu5bPnDnjl/p14uPjtX79etctKHfv3q3U1FTdc889euSRRzR//ny9/fbbDS4mwDnaSk4lrkM4mdNzWMeX17vVq1fLzCR9+6yprKwsjR49WtnZ2Tpw4ICWL1+uWbNmKS0tTTNmzNDZs2ebHRf8KxRy6I8ccdwOXaGQUXe2b9+u66+/XsePH9ell16q6upqt2XJqHut9T6xpfsgkBlCy4XtRKOZaerUqZo6dapGjhwZ7O4AAAAADRQXF7uWY2Njmy1fv0xJSUnQ68MZWmM/jh492rX81ltvuS1XW1vrWu7SpYvf6tfp27evtm7dqv79+0uSysvLtWLFCl111VUaP358M6NAMLWVnHIdwtlCIYd1Wvp6t3HjRtdyYmKi7r77bpWWlmrHjh3av3+/9u3bp+TkZJmZ5s2bp+nTp3s0LvhPKOTQXzniuB2aQiGj59u8ebMyMzM1fPhw7du3T2fOnNFzzz2noUOH6rPPPnNbj4w2rjXfJ7Z0H/g7Q/Bd2E40LliwQCUlJfrVr34V7K4AAAAAF/jmm29cyxEREc2Wr/+Q+7KysqDXhzO0xn588skn1a5dO0nSkiVLGjyzpb5Nmza5lrt27eq3+vX17t1bs2fPbvC7zZs367vf/a527drV7FgQHG0lp1yHcLZQyGF9LXm9KygocC3/7ne/04QJExqsT0lJ0fr1610XW5cuXaqdO3c2PSj4VSjk0J854rgdekIho/VVVFRo7969uu666/Twww+rW7durnV79+7Vj3/8Y9c3dBtDRi/U2u8TW7IP/Jkh+EdYTjR++umnmjt3rv76178qJiYm2N0BAAAALlD/NjT1P2npTv3nXXTu3Dno9eEMrbEfk5KS9NJLLykyMlLV1dXKyMjQypUr9c033+j48eNavXq10tPTG7zBHzp0qN/q1/fLX/5Sjz32mN577z3NnTvXdWGjsLBQI0aMaLMXhJyuLeSU6xDOFwo5rK8lr3f1v4UyePDgRtvt06ePpk6dKunbb+EuXLjQo7HBP0Ihh/7MEcft0BMKGa0vLi5O06dP1+OPP64FCxaooKBAL774oitrW7du1RtvvOG2L2T0Qq39PrEl+8CfGYKfWIjYu3evSTJJNm3aNLflKisr7dprr7V58+a5LXPvvfeaJOvdu3cguuqRw4cPW1ZWlu3atStofQAAAID3PD0vbU5FRYWrnZ49ezZbvm/fvq7yX375ZdDrwxlacz+uWrXKEhISXPXrfkaMGGG5ubn2wx/+0CRZVFSUnTx50u/1p0+fbpJs5cqVrt9t3rzZunfv7mrriiuusKKiIq/GhcAL95yGynWIti6UctjS17vk5GTX+uLiYrf927Fjh6tcWlqaV2ODb0Ihh/7KEcft0BQKGfXE73//e1d7EydObLQMGW1ca2bA133gzwz5631+WxVh1sR3hx0kLy9PgwYNkiRNmzZNixYtarTcf/3Xf2nevHl6/vnnFRnZ+Bc2X3nlFW3fvl0JCQn69a9/7fr95MmTW+1h7fn5+dqwYYPS0tKUmpraKtsEAACA7zw9L/VEx44dVVFR6mXymwAAIABJREFUoQ4dOuj06dNN3prmkksuUXl5udq3b68zZ84oIiIi6PXhDK25H6uqqrRt2zYVFBSoR48eSk1NVUJCgoqLi5WUlKTq6mrdfvvtWrdunV/rZ2Vladq0aUpPT9eHH37YYN3nn3+uMWPGKC8vT5J0//33a8mSJV6NC4EXzjkNlesQCI0c+vJ6N2TIENctLL/44gv17Nmz0b5VVlaqQ4cOkqROnTrp66+/9mps8I3Tc+iPHHHcDm1Oz6gnampq1KdPHxUUFGjYsGH66KOPGqwno01rjQz4ax/4K0P+fJ/fJgV7ptNTns4oP/jggxfMYHv6c+jQoVYbD99oBAAACE3+/KTjyJEjXW0VFBS4LVdSUuIqd8sttzimPpzBCfvx6aefdrX94Ycf+r1+3aea3X1jrLi42PVp5vbt23v9qXcEXjjnNFSuQyA0cujL690999zjanvv3r1N9iM+Pt4kWVxcnG8DgtecnkN/5IjjdmhzekY99dBDD7n9xi0ZbVprZCDQ+8DbDPGNRt+E3TMa09LSdO+99zb5c+WVV0qSLr744ga/j4uLC3LvAQAA0JbccMMNruVDhw65LVd/3dixYx1TH84Q7P149OhRzZs3T5I0ZswYpaen+7V+SUmJioqKJEn9+vVrtI2uXbtq9uzZkr79hkVTfwcERzjnlOsQocPpOfT19W7IkCGu5YMHDzbZl7pvovXp08fLUcBXTs+hrzniuB36nJ5RT3Xp0kWS1KtXrwa/J6PNC3QGAr0P/JUheC7sJhofeOABvf76603+jB49WtK3Lzb1f9+1a9cg9x4AAABtSWZmpmu57rYwjam/7o477nBMfThDMPfjuXPn9MADD+jMmTPq1q2bli5d6vf6ZWVlruXa2lq3bQ0dOtS1XFVV5VU/EHjhnFOuQ4QOp+fQ19e722+/3bW8fft2t/Wrq6tVWloqSRo+fLhnA4DfOD2HvuaI43boc3pGPXXkyBFJ30401UdGmxfoDARyH/gzQ/Bc2E00AgAAAE6za9cuFRcXX/D7AQMGuC4+/+1vf3Nbv+55EiNGjGjwidxg14cz+Gs/ustpU2bMmKGNGzeqY8eOWrFihRITE/1ePzk5WR07dpTU9IWO6upqSVJUVJQGDhzoVT8QeOGeU4QGp+fQ19e7gQMHasSIEZKkVatWycwarX/kyBHXhd2HH37Yq3HAd07Poa854rgd+pyeUU9UVVUpJydHvXr1UkZGRoN1ZLR5gc5AIPcB521BEux7t3pq06ZNrnvkPvTQQz61NW3aNJNkvXv39lPvvMczGgEAAEKTN+el1dXVNmTIEJNkMTEx9sorr1xQZvfu3RYdHW3R0dF24MCBC9YfPHjQYmJiLDIy0v7xj384rj6cwZf96ElOz1dZWWlTpkwxSZaYmGi5uble9dfb+o8++qhJsqSkJDt79myjZebOnWuS7Kc//alXfUHrCfecNsUJ1yHwLafn0NfXu9zcXIuKijJJtmzZskbr1z23avTo0c32H4Hh9Bz6miOO26HPyRk9ceKEzZ8/3/7+97+7LTN//nxr3769ZWdnN7qejDYv0Bnw9z7w9bzNn/NPbVHITDTWf3jnsGHDrLa2tsVtOeEEn4lGAACA0OTNeemBAwdcZSVZbGysVVZWXlBu2bJlFhkZaSNHjrTy8nLX7ysqKmzUqFEWERFhixcvdrudYNeHM7R0P3qa0zrZ2dk2ePBgk2SZmZlWWFjoVT9bUv/06dM2aNAgk2STJk2yU6dONVi/bds2i42NtaSkJCsqKvKqP2hd4ZzTpjjhOgT+zck59Mfr3eLFiy0iIsJiYmJs9erVDdZ9/PHHFh8fb7169fI51/CNk3No5luOOG6HB6dmtG7ySZKNHDnSduzY4VpXVVVlL730kqWkpNjGjRvdtkFGPRPIDPhzH/jjvM2f809tkaMnGgsKCmzWrFk2ZswYi4iIaBDOYcOG2c9//nN78803vW7XCSf4TDQCAACEjpael1ZVVbk+yVn34+78b+3atda/f39LSUmxX/ziFzZnzhwbOHCg9evXz956661m+xjs+nCGluxHT3Kan59vixYtsptvvtkuuugiy8zMtC1btnjcL1/rm5mdOnXKZs6cadHR0ZaUlGRTp061uXPn2vjx4y0mJsYmTpxox44d86pNBEc459QdJ1yHQENOzaGZf17v3nnnHevXr59FRUXZqFGj7JlnnrHMzEyLj4+3zMxMO3HihFd9QmA4OYdmvuWI43Z4cGJGd+7caV26dGnQ/pVXXmnDhg2zlJQUW7x4sVVXVzfbDhn1TKAyYObbPvDH61yg5p/aoggzNzfaRkDl5+drw4YNSktLU2pqarC7AwAAgAAqKCjQsWPHNGzYMJWWliohIaHRcjU1NcrNzdX+/ftlZhowYIAGDx6sdu3aebSdYNeHM7R0P7rLaWFhoZ599lmlpKRo4MCBuvHGGxUXF+dxf3ytf77y8nJ9+umnysvLU01Njbp376709HRddtllLW4TrS/cc4rQ4LQcns/X1zsz0yeffKK8vDxVVVXpiiuu0HXXXacuXbq0uE/wP6fn0NcccdwOfU7MaEVFhXJycnT48GFFR0crISFBqampSklJUUREhFdtkdHm+TsD5/N2H3De5jxMNAYJE40AAABty9tvv6158+YpOzs72F0B3CKnCAXkFE5ADuEE5BBOR0ZBBtqG6GB3AAAAAAh3hYWFeuqpp7Ru3bpgdwVwi5wiFJBTOAE5hBOQQzgdGQUZaDsig90BAAAAIJzt2LFDt99+u5YtW6bk5ORgdwdoFDlFKCCncAJyCCcgh3A6Mgoy0LbwjUYAAAAggCIiIvTee++pa9euwe4K4BY5RSggp3ACcggnIIdwOjIKMtC28IzGIOEZjQAAAAAAAAAAAAhl3DoVAAAAAAAAAAAAgNeYaAQAAAAAAAAAAADgNSYaAQAAAAAAAAAAAHiNiUYAAAAAAAAAAAAAXmOiEQAAAAAAAAAAAIDXmGgEAAAAAAAAAAAA4DUmGgEAAAAAAAAAAAB4jYlGAAAAAAAAAAAAAF5johEAAAAAAAAAAACA15hoBAAAAAAAAAAAAOA1JhoBAAAAAAAAAAAAeI2JRgAAAAAAAAAAAABeY6IRAAAAAAAAAAAAgNeYaAQAAAAAAAAAAADgNSYaAQAAAAAAAAAAAHiNiUYAAAAAAAAAAAAAXmOiEQAAAAAAAAAAAIDXmGgEAAAAAAAAAAAA4DUmGgEAAAAAAAAAAAB4jYlGAAAAAAAAAAAAAF5johEAAAAAAAAAAACA15hoBAAAAAAAAAAAAOA1JhoBAAAAAAAAAAAAeI2JRgAAAAAAAAAAAABeY6IRAAAAAAAAAAAAgNeYaJRkZsHuAgAAAAAAAAAAABBSooPdAW9t3LhRBQUFmjJlisd1CgoKdPTo0UbXff3111qxYoVeffVVf3URAAAAAILm888/16pVq7Rv3z6Zma666iqNGzdOvXv39rntc+fO6YMPPtAHH3ygwsJCderUSUOHDlVGRoY6duzo+PpwhnDN6Oeff64vvvjC477269dP3bp187g8/C9cs1hn06ZN2rJliw4ePKguXbro2muv1fjx4xUXF+fr8OBHTs6hJO3Zs0fvv/++9u/fr8jISKWkpCg9PV1paWke1SeHoc/pGT1fTU2NNm/erHXr1ik/P1+XXnqpnnjiCX3nO99ptPy2bdu0du1aHT16VLGxsUpNTdWkSZOUmJjoy9DCitMz4Os+DOT42gwLEdnZ2TZixAiTZNOmTfOqbl09dz+/+c1vAtRr9w4fPmxZWVm2a9euVt82AAAAgPA0Z84ca9++vY0bN87eeecde/fddy0jI8NiYmJs1qxZVltb2+K2i4uLbeTIkXbllVfa0qVLbf369fbb3/7WOnfubJ07d7bly5c7uj6cIZwzetNNNzV57eH8n1WrVrV4rPBdOGcxLy/PRo8e3WjuevbsaatXr27x2OBfTs5hYWGhjR8/3jp37mwvvPCCvfvuu/bGG2/YfffdZ5LsrrvusuLiYrf1yWF4cHJGz1dWVmazZ8+2yy67zPr27Wv//d//bSdPnnRbvrS01G688cZGM9q1a1fLzs5u8djCiZMz4I99GMjxtSWOn2jMycmxUaNGNQiJNxON27Zta/LEvkOHDlZaWhrAETSOiUYAAAAA/vTEE0+YJJs8eXKDN8S1tbU2ZcoUk2SPPPJIi9rOy8uzHj16WEJCgn322WcN1hUUFFhiYqJFRETYX/7yF0fWhzOEc0bz8/MtMjLS40nG2NhYq6ioaNFY4btwzuKnn35ql112mUmy5ORku/XWWy0lJaVB/iIjI23jxo0tGh/8x8k5PHnypKWmplp8fLwdPXr0gvV//vOfTZKNGjXKzp07d8F6chgenJzR87322mvWuXNnk2Q/+tGPmj3GlpaW2jXXXGPXXnutPf/887Zu3Tp7+eWX7ZZbbnFl9KKLLrKioqIWjS9cODkD/tiHgRxfW+Poicbt27fbypUr7dSpU/anP/2pRRON48aNs1GjRtm6desa/fnHP/4RwBG4x0QjAAAAAH95//33XZMXhYWFF6wvKSmxiy++2CTZmjVrvG6/7g37Cy+80Oj6ZcuWNflmPtj1EXzhntGZM2fa5ZdfbosXL7bc3Fw7dOhQoz917dx1111ejxH+Ec5ZPHfunH3ve9+z73//+xdctN25c6clJSW5rq1dfvnlVl5e7vX44B9Oz+GDDz5okmzmzJmN1q+trXVNHK5du7bBOnIYHpye0To1NTU2Y8YMk2Tt27e3RYsWebT9jIwM+9nPfmZVVVUXrJs+fboro88884xnAwpDTs+Ar/sw0ONraxw90VjfP//5T68nGg8cOGCRkZH28ccfB7h33mOiEQAAAIC/XH311SbJJkyY4LbMpEmTTJL179/fq7br3oRLsr179zZa5syZM9axY0eTZI8++qij6sMZwjmjZ8+etQEDBtjhw4eb7Wvdha/XX3/dw9HB38I5i6tXr7bk5GQ7depUo3WLiopc3zKTZBs2bPBqfPAfJ+fQzKxLly4myRYuXOh2OxMnTjRJNmfOnAa/J4fhwekZrfPAAw+42nr11Vc92v6ePXts8uTJbteXl5dbTEyMSbKxY8d61GY4cnIG/LEPAzm+tihSIaJdu3Ze1/n973+vH/zgB7ruuusC0CMAAAAACL6PPvpIeXl5kqQf/OAHbsvddtttkqR//etf2rNnj8ftv/7665KkiIgIDRgwoNEyHTp0UGpqqiRp8eLFOnbsmGPqI/jCPaNHjhzRiy++qL59+zbZz9raWr355puKiYnRHXfc4eHo4E/hnsXXXntNCxYs0EUXXdRo3W7duunhhx92/XvHjh2eDg1+5PQcSlJZWZkk6eOPP3a7ndLSUklSfHx8g9+Tw9AXChmVpD/84Q9asmSJJGn8+PG67777PNp+YWGhFixY4HZ9XFyc+vTpI0nq3LmzR22GG6dnwNd9GOjxtUUhM9HoreLiYr322mv68MMPddttt+nXv/61cnJydPbs2WB3DQAAAAD8Zvny5a5ld2/UJSklJcW1vGbNGo/b379/vySpU6dOioqKcltu0KBBkqSqqipt2LDBMfURfOGe0ZSUFI0dO7bZfn744YcqKirS6NGjL7gwj9YR7lmMj4/XD3/4wyb7eNNNN7mWKyoqmiyLwHB6DiW5LtCvWbNGR48evaBuVVWVdu/eLUlKT09vsI4chr5QyGh+fr5mz54t6duJpKysLI+3f+uttyohIcHt+qqqKh05ckSSdM8993jcbjhxegZ83YeBHl9bFLYTjfPnz1dlZaXKy8v13nvv6Re/+IVuuOEGdevWTXPnztXJkyeD3UUAAAAA8NmWLVtcy8nJyW7L1V/nzRvlAwcOSJIqKyubLFe//dzcXMfUR/CFe0Y9tWLFCknShAkTvK4L/wj3LL7yyivN9rFTp06u5WuvvbbZ8vA/p+dQ+veF+bKyMt19990qLy9vsH7+/Pk6ceKEMjMzlZaW1mAdOQx9oZDRWbNmqaqqSpI0efJkv37zMCcnR5WVlfrJT37S5LfdwlkoZKApze3DQI+vLQrbicb9+/erY8eOF/y+rKxMv/rVr/T9739fhw4dCkLPAAAAAMB/6m77Exsbq+7du7stl5CQ4PoW1c6dO3Xu3Llm2zYz1dTUSJJOnz6tU6dOuS0bFxfnWj5+/Lgj6sMZwjmjnqqtrdWqVasUFRWlO++806u68B+yKH322WeSvr1d3ZAhQ7yqC/9wcg7rPPnkk+rXr5+kb29tev3117u+HbRy5UrNnj1bY8eO9epbZPWRQ2dzekYLCwu1cuVK17/HjRun3bt3a+bMmbrzzjs1adIkvfjii9q+fXuz/TnfV199pQcffFCPP/64Xn75Za/rhwunZ6ApnuzDQI6vrQrbicY333xT33zzjY4fP641a9ZowoQJiomJca0/fPiwhg8f7jpIAgAAAECoOXnypOuTwJ58kruuTG1trU6cONFs+YiIiAbPndu6davbstHR0a7lM2fOOKI+gi/cM+qputum3nDDDW32eU/BRha/tW3bNknffrO2d+/eXtWF75yewzrx8fFav369evToIUnavXu3UlNTdc899+iRRx7R/Pnz9fbbbzeYBPAGOXSuUMjo6tWrZWaSpHbt2ikrK0ujR49Wdna2Dhw4oOXLl2vWrFlKS0vTjBkzPH6U2vbt23X99dfr+PHjuvTSS1VdXe1RvXATChlwx5N9GOjxtVVhO9FYp0uXLrrjjju0cuVKFRYW6v/9v/+nyMhvh11aWurxQ2IBAAAAwGmKi4tdy7Gxsc2Wr1+mpKTEo22MHj3atfzWW2+5LVdbW+ta7tKli2PqI7jaQkY9wW1Tg48sSjU1NfrrX/+qqKgozZkzx+N68J9QyGGdvn37auvWrerfv78kqby8XCtWrNBVV12l8ePHe9SXxpBDZwuFjG7cuNG1nJiYqLvvvlulpaXasWOH9u/fr3379ik5OVlmpnnz5mn69OlN9mfz5s3KzMzU8OHDtW/fPp05c0bPPfechg4d6vr2bVsSChk4nzf7sDXG1xaF/URjfQkJCfrtb3+rN9980/WQ0S1btmjz5s1B7hkAAAAAeO+bb75xLUdERDRbvu59kPTtYyU88eSTT6pdu3aSpCVLljR4pkl9mzZtci137drVMfURXG0ho82pu21qRESExo0b53E9+BdZlF577TWVlJRo7ty5Sk1N9bge/CcUclhf7969NXv27Aa/27x5s7773e9q165dHvXnfOTQ2UIhowUFBa7l3/3udxd8iCclJUXr1693TUwtXbpUO3fubHQbFRUV2rt3r6677jo9/PDD6tatm2vd3r179eMf/9j17cm2IhQyUJ+3+7A1xtcWtamJxjp33nmnfvWrX7n+XT+wAAAAABAq6t/up/4nft2p/1wRT2/fmJSUpJdeekmRkZGqrq5WRkaGVq5c6XpUxerVq5Went7gAsHQoUMdUx/B1RYy2pytW7eqqKhIw4cPb/I5QAistp7Fr776Sk899ZRuvvlmPfPMMx7Vgf+FQg7r++Uvf6nHHntM7733nubOneu64F5YWKgRI0Z4PdlIDp0vFDJa/xtpgwcPbnQbffr00dSpUyV9+0zAhQsXNlouLi5O06dP1+OPP64FCxaooKBAL774oivrW7du1RtvvOHRuMJFKGSgPm/3YWuMr02yELF3716TZJJs2rRpPrdXXl5ul156qUmy+++/3w899M7hw4ctKyvLdu3a1erbBgAAABAeKioqXO+Tevbs2Wz5vn37usp/+eWXXm1r1apVlpCQ4Kpf9zNixAjLzc21H/7whybJoqKi7OTJk46rj+BoSxl157HHHjNJ9sc//tGr8cC/2noWMzMzLTU11crKyrwaC/wrlHI4ffp0k2QrV650/W7z5s3WvXt3V1tXXHGFFRUVedwncuh8oZDR5ORkV9ni4mK37e/YscNVLi0tzau+/f73v3fVnThxold1Q10oZMAT7vZha46vLYkwC43v/ubl5WnQoEGSpGnTpmnRokU+t3nLLbdow4YNmjRpkv7v//7P5/a8kZ+frw0bNigtLY3bBAAAAABosY4dO6qiokIdOnTQ6dOnm7wF0CWXXKLy8nK1b99eZ86c8eh2QfVVVVVp27ZtKigoUI8ePZSamqqEhAQVFxcrKSlJ1dXVuv3227Vu3TpH1kdwtKWMnq+2tlY9e/ZUUVGRjhw5ol69enk1HvhXW83ib3/7W/3lL39RTk5Og1vKIThCIYdZWVmaNm2a0tPT9eGHHzZY9/nnn2vMmDHKy8uTJN1///1asmRJs30hh6HD6RkdMmSI61aoX3zxhXr27Nlo25WVlerQoYMkqVOnTvr666897ldNTY369OmjgoICDRs2TB999JFX4wp1Ts+AJ5rah605vrYiOtgdCKYrrrhCkhQfHx/kngAAAABAy3zve99TTk6Ozp49q8LCQl1++eWNljt+/LjKy8slSSNHjmzRm+SYmBjdcMMNF/x+/vz5qq6uliQ9/fTTjq2P4GhLGT1f3W1Tv//97zPJ6ABtMYtvv/22srKytGnTJiZ3HCIUcvjLX/5SknT33XdfsC4pKUkbN27U1VdfrS+//FL/+7//qz/+8Y9NXl8lh6HF6Rnt27eva6KxrKzM7URj+/btFR8fr7KyMtXU1HjVr+joaN122216+eWX29wzGiXnZ8ATTe3D1hxfW9Emn9FY54svvpD07QNiAQAAACAU1X9jfujQIbfl6q8bO3as37Z/9OhRzZs3T5I0ZswYpaenh1R9BF5bzuiKFSskSRMmTPBqmwiMtpbF7Oxs/exnP9P69etdH7ZH8Dk9hyUlJSoqKpIk9evXr9E2unbtqtmzZ0v69ltjTY2DHIYep2d0yJAhruWDBw822VbdNxr79OnjdT+6dOkiSW3yg0JOz4Cn3O3DYI8vHLXpicZ9+/YpIiJCd911V7C7AgAAAAAtkpmZ6Vquu41ZY+qvu+OOO/yy7XPnzumBBx7QmTNn1K1bNy1dujSk6qN1tNWMmplWrVoliYlGp2hLWfzkk0/0wAMPaN26dW4niyRpx44d+uqrr7zqC3zj9ByWlZW5lmtra922NXToUNdyVVVVo2XIYWhyekZvv/121/L27dvdtlVdXa3S0lJJ0vDhw73uy5EjRyR9O9HV1jg9A55ytw+DOb5w1WYnGrdt26Zjx47pJz/5SYs+0QAAAAAATjBgwACNHj1akvS3v/3Nbbm655qMGDGi0U9m79q1S8XFxV5te8aMGdq4caM6duyoFStWKDExMaTqo3W01Yxu3bpVhYWFuuaaa3TllVd6tV0ERlvJ4p49e5SZmak333xTAwcOdFvu+PHjeuqpp3TppZd61Rf4xuk5TE5OVseOHSU1fQG+7paGUVFRjeaMHIYup2d04MCBGjFihCRp1apVbm9teuTIEddk+cMPP+xVP6qqqpSTk6NevXopIyPDq7rhwOkZ8ERT+9Bf40M9FiI2bdpkkkySPfTQQ02WnT9/vmVkZNi8efPszJkzF6yvqamxwYMH24ABA+zLL78MVJebdPjwYcvKyrJdu3YFZfsAAAAAwsfu3bstOjraoqOj7cCBAxesP3jwoMXExFhkZKT94x//aLCuurrahgwZYpIsJibGXnnllWa3V1lZaVOmTDFJlpiYaLm5uV71N9j10fraWkbNzB577DGTZM8995zXdRE44Z7FgwcPWrdu3Wzy5Mk2b968Rn9eeukle/bZZy0pKcl+85vfeNUf+IfTc/joo4+aJEtKSrKzZ882Wmbu3LkmyX7605822n9yGNqcntHc3FyLiooySbZs2bJGyzz99NMmyUaPHt3g9ydOnLD58+fb3//+d7ftz58/39q3b2/Z2dnN9j1cOTkD/tiHvowPFwqZica6FwZJNmzYMKutrXVbtnv37q6yycnJtmnTJte6zz77zK6//nobN26cHTt2rDW63igmGgEAAAD407JlyywyMtJGjhxp5eXlrt9XVFTYqFGjLCIiwhYvXnxBvQMHDrjeP0my2NhYq6ysdLud7OxsGzx4sEmyzMxMKyws9Kqfwa6P4GkrGTUzq62ttR49epgk27Nnj9f1EVjhmsUvvvjCevXq1aCPTf20a9fOiouLveoT/MfJOTx9+rQNGjTIJNmkSZPs1KlTDdZv27bNYmNjLSkpyYqKihqsI4fhw8kZNTNbvHixRUREWExMjK1evbrBuo8//tji4+OtV69eF7RXN0kuyUaOHGk7duxwrauqqrKXXnrJUlJSbOPGjR71I5w5NQP+2octHR8u5OiJxoKCAps1a5aNGTPGIiIiGoRz2LBh9vOf/9zefPPNC+otWLDA2rVr16B8cnKy9e/f366++mp79913gzCahphoBAAAAOBva9eutf79+1tKSor94he/sDlz5tjAgQOtX79+9tZbbzVap6qqyvWJ47qf89+n5Ofn26JFi+zmm2+2iy66yDIzM23Lli0e9yvY9eEc4ZrR823ZssUkWf/+/VvcBgIr3LJYU1NjKSkpHk/uSLK7777b434hMJyaQzOzU6dO2cyZMy06OtqSkpJs6tSpNnfuXBs/frzFxMTYxIkTL/gSBzkMP07OqJnZO++8Y/369bOoqCgbNWqUPfPMM5aZmWnx8fGWmZlpJ06cuKDOzp07rUuXLg36d+WVV9qwYcMsJSXFFi9ebNXV1V73JVw5MQP+3IctGR8uFGHm5ibGIe7rr7/W5s2bVVxcrNraWnXp0kXf+973mnzwcGvKz8/Xhg0blJaWptTU1GB3BwAAAECYqKmpUW5urvbv3y8z04ABAzR48GC1a9euyXoFBQU6duyYhg0bptLSUiUkJEiSCgsL9eyzzyolJUUDBw7UjTfeqLi4OI/7E+z6cJ5wy6i7vh4+fFiJiYlNPpsMwdUwifngAAADNklEQVQWsgjnc1oOz1deXq5PP/1UeXl5qqmpUffu3ZWenq7LLrusxW0itDg9o2amTz75RHl5eaqqqtIVV1yh6667Tl26dHFbp6KiQjk5OTp8+LCio6OVkJCg1NRUpaSkKCIiosV9CVdOzIA/92FLx4d/C9uJRqdjohEAAACA07z99tuaN2+esrOzg90VoFFkFE5BFuEE5BBOR0ZBBtqG6GB3AAAAAAAQfIWFhXrqqae0bt26YHcFaBQZhVOQRTgBOYTTkVGQgbYjMtgdAAAAAAAE144dO3T77bdr2bJlSk5ODnZ3gAuQUTgFWYQTkEM4HRkFGWhb+EYjAAAAALRxEREReu+999S1a9dgdwVoFBmFU5BFOAE5hNORUZCBtoVnNAYJz2gEAAAAAAAAAABAKOPWqQAAAAAAAAAAAAC8xkQjAAAAAAAAAAAAAK8x0QgAAAAAAAAAAADAa0w0AgAAAAAAAAAAAPAaE40AAAAAAAD/v707tq0QiKIoiPUdIhARfdAKjVIZLeDIsXUSMNJMA+/mR6sFAAAyoREAAAAAAADIhEYAAAAAAAAgExoBAAAAAACATGgEAAAAAAAAMqERAAAAAAAAyIRGAAAAAAAAIBMaAQAAAAAAgExoBAAAAAAAADKhEQAAAAAAAMiERgAAAAAAACATGgEAAAAAAIBMaHzIsizDtm3Duq5PTwEAAAAAAIDs67qu6+kRv87zHI7jeHoGAAAAAAAAvMo8z8O+77fe/L712h8+n88wTdPTMwAAAAAAAOBVxnG8/ea/etEIAAAAAAAAvIM/GgEAAAAAAIBMaAQAAAAAAAAyoREAAAAAAADIhEYAAAAAAAAgExoBAAAAAACATGgEAAAAAAAAMqERAAAAAAAAyIRGAAAAAAAAIBMaAQAAAAAAgExoBAAAAAAAADKhEQAAAAAAAMiERgAAAAAAACATGgEAAAAAAIBMaAQAAAAAAAAyoREAAAAAAADIhEYAAAAAAAAgExoBAAAAAACATGgEAAAAAAAAMqERAAAAAAAAyIRGAAAAAAAAIBMaAQAAAAAAgExoBAAAAAAAADKhEQAAAAAAAMiERgAAAAAAACD7Aba7ufsE9w0iAAAAAElFTkSuQmCC;" vertex="1" parent="1">
          <mxGeometry width="613" height="310" as="geometry" />
        </mxCell>
        <mxCell id="Uwh58q4HtFnLxp5Cr1aM-3" value="" style="rounded=0;whiteSpace=wrap;html=1;fillColor=none;strokeColor=#FF0000;strokeWidth=3;" parent="1" vertex="1">
          <mxGeometry x="456" y="41" width="40" height="179" as="geometry" />
        </mxCell>
        <mxCell id="Uwh58q4HtFnLxp5Cr1aM-5" value="" style="rounded=0;whiteSpace=wrap;html=1;fillColor=none;strokeColor=#FF0000;strokeWidth=3;" parent="1" vertex="1">
          <mxGeometry x="5" y="187" width="491" height="16" as="geometry" />
        </mxCell>
        <mxCell id="D8GsEc0LYCsvKkbJvELL-4" value="" style="rounded=0;whiteSpace=wrap;html=1;fillColor=none;strokeColor=#FF0000;strokeWidth=3;" vertex="1" parent="1">
          <mxGeometry x="5" y="204" width="491" height="16" as="geometry" />
        </mxCell>
      </root>
    </mxGraphModel>
  </diagram>
</mxfile>
